<?xml version="1.0" encoding="utf-8"?>
<!-- Generator: Adobe Illustrator 15.0.0, SVG Export Plug-In . SVG Version: 6.00 Build 0)  -->
<!DOCTYPE svg PUBLIC "-//W3C//DTD SVG 1.1//EN" "http://www.w3.org/Graphics/SVG/1.1/DTD/svg11.dtd">
<svg version="1.1" xmlns="http://www.w3.org/2000/svg" xmlns:xlink="http://www.w3.org/1999/xlink" x="0px" y="0px" width="136.5px"
	 height="206px" viewBox="0 0 136.5 206" enable-background="new 0 0 136.5 206" xml:space="preserve">
<g id="Background">
	<rect fill="#606060" width="136.5" height="206"/>
</g>
<g id="clip8">
	<g id="D">
		<rect x="97.157" y="25.059" fill="#FBB03B" width="5.718" height="114.281"/>
		<rect x="88.578" y="39.357" fill="#990000" width="22.877" height="99.982"/>
		
			<line fill="none" stroke="#572509" stroke-width="1.4212" stroke-linecap="round" stroke-linejoin="round" stroke-miterlimit="10" stroke-dasharray="2.8424,1.8949" x1="97.157" y1="127.902" x2="102.875" y2="139.34"/>
		
			<line fill="none" stroke="#572509" stroke-width="1.4212" stroke-linecap="round" stroke-linejoin="round" stroke-miterlimit="10" stroke-dasharray="2.8424,1.8949" x1="102.875" y1="127.902" x2="97.157" y2="139.34"/>
	</g>
	<g id="I">
		
			<circle fill="#E3C291" stroke="#E3C291" stroke-width="0.9475" stroke-linecap="square" stroke-miterlimit="10" cx="97.157" cy="196.438" r="1.895"/>
		
			<circle fill="none" stroke="#E3C291" stroke-width="0.9475" stroke-linecap="square" stroke-miterlimit="10" cx="97.157" cy="196.438" r="3.79"/>
		
			<circle fill="#E3C291" stroke="#E3C291" stroke-width="0.9475" stroke-linecap="square" stroke-miterlimit="10" cx="7.67" cy="166.152" r="1.895"/>
		
			<rect x="105.736" y="127.902" fill="none" stroke="#572509" stroke-width="0.9475" stroke-miterlimit="10" stroke-dasharray="8.5789,2.8596" width="14.299" height="2.858"/>
		<path fill="none" stroke="#E3C291" stroke-width="1.4298" stroke-linecap="square" stroke-miterlimit="10" d="M120.035,130.761
			c8.579,0,8.579-5.718,0-5.718"/>
		<path fill="none" stroke="#E3C291" stroke-width="1.4298" stroke-linecap="square" stroke-miterlimit="10" d="M120.035,125.043
			c9.106,83.436-98.904,69.499-93.489,21.445"/>
		<path fill="none" stroke="#E3C291" stroke-width="1.4298" stroke-linecap="square" stroke-miterlimit="10" d="M97.157,139.34
			c8.579,0,11.44,22.878,2.861,22.878"/>
		<path fill="none" stroke="#E3C291" stroke-width="1.4298" stroke-linecap="square" stroke-miterlimit="10" d="M7.67,166.152
			c15.977,0,8.409,7.343,18.875,8.073"/>
		
			<line fill="none" stroke="#572509" stroke-width="1.2583" stroke-linecap="round" stroke-linejoin="round" stroke-miterlimit="10" x1="120.035" y1="122.508" x2="120.035" y2="125.043"/>
		
			<polyline fill="none" stroke="#572509" stroke-width="1.4298" stroke-linecap="round" stroke-linejoin="round" stroke-miterlimit="10" points="
			117.174,122.182 120.035,125.043 122.894,122.182 		"/>
		<polyline fill="none" stroke="#572509" stroke-width="4.2895" stroke-miterlimit="10" points="120.035,130.761 100.018,147.919 
			100.018,162.218 		"/>
		<polyline fill="none" stroke="#572509" stroke-width="4.2895" stroke-miterlimit="10" points="26.545,146.488 35.502,160.356 
			26.545,174.226 		"/>
		
			<rect x="79.999" y="125.043" fill="none" stroke="#572509" stroke-width="0.9475" stroke-miterlimit="10" stroke-dasharray="8.5789,2.8596" width="40.036" height="8.579"/>
		
			<line fill="none" stroke="#E3C291" stroke-width="1.4298" stroke-linecap="square" stroke-miterlimit="10" x1="35.502" y1="160.356" x2="100.018" y2="147.919"/>
		<path fill="none" stroke="#E3C291" stroke-width="1.4298" stroke-linecap="square" stroke-miterlimit="10" d="M97.157,196.438
			c-0.135-0.49-13.257,3.789,0-57.098"/>
	</g>
</g>
</svg>
