<?xml version="1.0" encoding="utf-8"?>
<!-- Generator: Adobe Illustrator 15.0.0, SVG Export Plug-In . SVG Version: 6.00 Build 0)  -->
<svg version="1.2" baseProfile="tiny" id="Ebene_1" xmlns="http://www.w3.org/2000/svg" xmlns:xlink="http://www.w3.org/1999/xlink"
	 x="0px" y="0px" width="727px" height="384px" viewBox="0 0 727 384" xml:space="preserve">
<g id="BG">
	<rect fill="#4F4F4F" width="727" height="384"/>
</g>
<g id="Ebene_1_1_">
	<g id="clip8">
		<g id="data">
			<rect x="489.418" y="229.624" width="23.66" height="34.415"/>
			<rect x="467.085" y="220.123" width="13.916" height="34.415"/>
			<rect x="379.051" y="229.624" width="23.66" height="34.415"/>
			<rect x="317.718" y="229.624" width="23.66" height="34.415"/>
			<rect x="256.385" y="229.624" width="23.66" height="34.415"/>
			<rect x="195.052" y="229.624" width="23.66" height="34.415"/>
			<rect x="133.719" y="229.624" width="23.66" height="34.415"/>
			<rect x="72.386" y="229.624" width="23.66" height="34.415"/>
			<rect x="563.051" y="229.624" width="23.66" height="34.414"/>
			<rect x="624.383" y="229.624" width="23.66" height="34.414"/>
		</g>
		<g id="sel">
			
				<rect x="250.882" y="206.164" fill="none" stroke="#BCBCBC" stroke-width="1.5" stroke-miterlimit="10" stroke-dasharray="5.6693,3.4016" width="34.667" height="62.333"/>
			
				<rect x="128.216" y="206.164" fill="none" stroke="#BCBCBC" stroke-width="1.5" stroke-miterlimit="10" stroke-dasharray="5.6693,3.4016" width="34.667" height="62.333"/>
			
				<rect x="334.967" y="206.164" fill="none" stroke="#BCBCBC" stroke-width="1.5" stroke-miterlimit="10" stroke-dasharray="5.6693,3.4016" width="11.915" height="62.333"/>
			
				<rect x="375.271" y="206.164" fill="none" stroke="#BCBCBC" stroke-width="1.5" stroke-miterlimit="10" stroke-dasharray="5.6693,3.4016" width="33.396" height="61.167"/>
			
				<rect x="458.086" y="206.164" fill="none" stroke="#BCBCBC" stroke-width="1.5" stroke-miterlimit="10" stroke-dasharray="5.6693,3.4016" width="60.582" height="62.333"/>
			
				<rect x="557.547" y="206.163" fill="none" stroke="#BCBCBC" stroke-width="1.5" stroke-miterlimit="10" stroke-dasharray="5.6693,3.4016" width="34.668" height="62.334"/>
			
				<rect x="618.881" y="206.163" fill="none" stroke="#BCBCBC" stroke-width="1.5" stroke-miterlimit="10" stroke-dasharray="5.6693,3.4016" width="34.666" height="62.334"/>
			
				<rect x="66.883" y="206.164" fill="none" stroke="#BCBCBC" stroke-width="1.5" stroke-miterlimit="10" stroke-dasharray="5.6693,3.4016" width="34.667" height="62.333"/>
		</g>
		<g id="controlflow">
			<circle fill="#AACE3A" stroke="#AACE3A" stroke-width="0.9921" stroke-miterlimit="10" cx="27.077" cy="155.124" r="4.252"/>
			<path fill="none" stroke="#AACE3A" stroke-width="0.9921" stroke-miterlimit="10" d="M27.077,155.124
				c1,34.293,24.856,74.5,39.806,51.04"/>
			<path fill="none" stroke="#AACE3A" stroke-width="0.9921" stroke-miterlimit="10" d="M66.883,206.164
				c28.092,0,44.081,33.557,61.333,0"/>
			<path fill="none" stroke="#AACE3A" stroke-width="0.9921" stroke-miterlimit="10" d="M128.216,206.164
				c28.092,0,45.717-19.874,61.333,0"/>
			<path fill="none" stroke="#AACE3A" stroke-width="0.9921" stroke-miterlimit="10" d="M189.549,206.164
				c28.384-11.207,44.081,33.557,61.333,0"/>
			<path fill="none" stroke="#AACE3A" stroke-width="0.9921" stroke-miterlimit="10" d="M334.967,206.164
				c49.033-14.164,54.159,0,73.701,0"/>
			<path fill="none" stroke="#AACE3A" stroke-width="0.9921" stroke-miterlimit="10" d="M408.668,206.164
				c28.092,0,32.166,33.557,49.418,0"/>
			<path fill="none" stroke="#AACE3A" stroke-width="0.9921" stroke-miterlimit="10" d="M250.882,206.164
				c28.092,0,66.833,33.557,84.085,0"/>
			<path fill="none" stroke="#AACE3A" stroke-width="0.9921" stroke-miterlimit="10" d="M458.086,206.164
				c28.092,0,82.208,33.557,99.46,0"/>
			<path fill="none" stroke="#AACE3A" stroke-width="0.9921" stroke-miterlimit="10" d="M557.547,206.163
				c28.092,0,44.08,33.558,61.334,0"/>
			<path fill="none" stroke="#AACE3A" stroke-width="0.9921" stroke-miterlimit="10" d="M618.881,206.163
				c5.502,14.915,87.287,14.337,54.619,76.337"/>
			<circle fill="#AACE3A" stroke="#AACE3A" stroke-width="0.9921" stroke-miterlimit="10" cx="673.5" cy="282.5" r="4.252"/>
			<circle fill="none" stroke="#AACE3A" stroke-width="0.9921" stroke-miterlimit="10" cx="673.5" cy="282.5" r="7.5"/>
		</g>
		<g id="instr">
			
				<line fill="none" stroke="#C65490" stroke-width="2.126" stroke-linecap="round" stroke-linejoin="round" stroke-miterlimit="10" stroke-dasharray="5.6693,3.4016" x1="223.065" y1="268.497" x2="189.549" y2="206.164"/>
			
				<line fill="none" stroke="#C65490" stroke-width="2.126" stroke-linecap="round" stroke-linejoin="round" stroke-miterlimit="10" stroke-dasharray="5.6693,3.4016" x1="189.549" y1="268.497" x2="223.065" y2="206.164"/>
			
				<line fill="none" stroke="#338B99" stroke-width="2.126" stroke-linecap="round" stroke-linejoin="round" stroke-miterlimit="10" x1="66.883" y1="206.164" x2="92.393" y2="81.791"/>
			
				<line fill="none" stroke="#338B99" stroke-width="2.126" stroke-linecap="round" stroke-linejoin="round" stroke-miterlimit="10" x1="128.216" y1="206.164" x2="153.726" y2="81.791"/>
			
				<line fill="none" stroke="#338B99" stroke-width="2.126" stroke-linecap="round" stroke-linejoin="round" stroke-miterlimit="10" x1="557.547" y1="206.163" x2="583.059" y2="81.791"/>
			
				<line fill="none" stroke="#338B99" stroke-width="2.126" stroke-linecap="round" stroke-linejoin="round" stroke-miterlimit="10" x1="618.881" y1="206.163" x2="644.391" y2="81.791"/>
			
				<line fill="none" stroke="#338B99" stroke-width="2.126" stroke-linecap="round" stroke-linejoin="round" stroke-miterlimit="10" x1="250.882" y1="206.164" x2="276.392" y2="81.791"/>
			
				<line fill="none" stroke="#338B99" stroke-width="2.126" stroke-linecap="round" stroke-linejoin="round" stroke-miterlimit="10" x1="334.967" y1="206.164" x2="360.477" y2="81.791"/>
			
				<line fill="none" stroke="#338B99" stroke-width="2.126" stroke-linecap="round" stroke-linejoin="round" stroke-miterlimit="10" x1="458.086" y1="206.164" x2="483.597" y2="81.791"/>
			
				<line fill="none" stroke="#338B99" stroke-width="2.126" stroke-linecap="round" stroke-linejoin="round" stroke-miterlimit="10" x1="408.668" y1="190.789" x2="408.668" y2="206.164"/>
			
				<polyline fill="none" stroke="#338B99" stroke-width="2.126" stroke-linecap="round" stroke-linejoin="round" stroke-miterlimit="10" points="
				402.518,196.939 408.668,206.164 414.818,196.939 			"/>
		</g>
	</g>
</g>
</svg>
