<?xml version="1.0" encoding="utf-8"?>
<!-- Generator: Adobe Illustrator 15.0.0, SVG Export Plug-In . SVG Version: 6.00 Build 0)  -->
<!DOCTYPE svg PUBLIC "-//W3C//DTD SVG 1.1//EN" "http://www.w3.org/Graphics/SVG/1.1/DTD/svg11.dtd">
<svg version="1.1" xmlns="http://www.w3.org/2000/svg" xmlns:xlink="http://www.w3.org/1999/xlink" x="0px" y="0px"
	 width="62.667px" height="207px" viewBox="0 0 62.667 207" enable-background="new 0 0 62.667 207" xml:space="preserve">
<g id="Background">
	<rect fill="#606060" width="62.667" height="207"/>
</g>
<g id="clip8">
	<g id="D">
		<rect x="20.125" y="9" width="7.75" height="1.167"/>
	</g>
	<g id="I">
		<polyline fill="none" stroke="#9ACDCD" stroke-width="0.5" stroke-linecap="square" stroke-miterlimit="10" points="21.5,24.583 
			20.5,25.583 21.5,26.583 		"/>
		<path fill="none" stroke="#9ACDCD" stroke-width="0.3" stroke-linecap="square" stroke-miterlimit="10" d="M29.385,13.406
			c5.25-1.063,7.25-0.833,7.25-7.833"/>
		
			<circle fill="#9ACDCD" stroke="#9ACDCD" stroke-width="0.3" stroke-linecap="square" stroke-miterlimit="10" cx="36.635" cy="5.573" r="1"/>
		
			<line fill="none" stroke="#E5B7B7" stroke-width="0.5" stroke-linecap="round" stroke-linejoin="round" stroke-miterlimit="10" x1="15.932" y1="6.167" x2="15.932" y2="15.5"/>
		
			<line fill="none" stroke="#E5B7B7" stroke-width="0.3" stroke-linecap="round" stroke-linejoin="round" stroke-miterlimit="10" x1="19.667" y1="12" x2="10.833" y2="22.667"/>
		
			<line fill="none" stroke="#E5B7B7" stroke-width="0.5" stroke-linecap="round" stroke-linejoin="round" stroke-miterlimit="10" x1="59.833" y1="27.834" x2="59.833" y2="29.867"/>
		
			<line fill="none" stroke="#E5B7B7" stroke-width="0.3" stroke-linecap="round" stroke-linejoin="round" stroke-miterlimit="10" x1="21.667" y1="12" x2="20.833" y2="22.667"/>
		
			<line fill="none" stroke="#E5B7B7" stroke-width="0.3" stroke-linecap="round" stroke-linejoin="round" stroke-miterlimit="10" x1="23.667" y1="12" x2="30.833" y2="22.667"/>
		
			<line fill="none" stroke="#E5B7B7" stroke-width="0.3" stroke-linecap="round" stroke-linejoin="round" stroke-miterlimit="10" x1="25.667" y1="12" x2="40.833" y2="22.667"/>
		
			<line fill="none" stroke="#E5B7B7" stroke-width="0.3" stroke-linecap="round" stroke-linejoin="round" stroke-miterlimit="10" x1="27.667" y1="12" x2="50.833" y2="22.667"/>
		
			<rect x="15.932" y="6.167" fill="none" stroke="#E5B7B7" stroke-width="0.3" stroke-miterlimit="10" stroke-dasharray="1,0.5" width="14.542" height="4.333"/>
		
			<rect x="19.667" y="12" fill="none" stroke="#E5B7B7" stroke-width="0.3" stroke-miterlimit="10" stroke-dasharray="1,0.5" width="1" height="7"/>
		
			<rect x="21.667" y="12" fill="none" stroke="#E5B7B7" stroke-width="0.3" stroke-miterlimit="10" stroke-dasharray="1,0.5" width="1" height="7"/>
		
			<rect x="23.667" y="12" fill="none" stroke="#E5B7B7" stroke-width="0.3" stroke-miterlimit="10" stroke-dasharray="1,0.5" width="1" height="7"/>
		
			<rect x="25.667" y="12" fill="none" stroke="#E5B7B7" stroke-width="0.3" stroke-miterlimit="10" stroke-dasharray="1,0.5" width="1" height="7"/>
		
			<rect x="27.667" y="12" fill="none" stroke="#E5B7B7" stroke-width="0.3" stroke-miterlimit="10" stroke-dasharray="1,0.5" width="1" height="7"/>
		
			<rect x="10" y="26.583" fill="none" stroke="#E5B7B7" stroke-width="0.3" stroke-miterlimit="10" stroke-dasharray="1,0.5" width="1.5" height="10.673"/>
		
			<rect x="10.265" y="6.167" fill="none" stroke="#E5B7B7" stroke-width="0.5" stroke-linecap="round" stroke-linejoin="round" stroke-miterlimit="10" width="5.667" height="2.167"/>
		
			<rect x="10.265" y="15.5" fill="none" stroke="#E5B7B7" stroke-width="0.5" stroke-linecap="round" stroke-linejoin="round" stroke-miterlimit="10" width="5.667" height="2.167"/>
		<path fill="none" stroke="#9ACDCD" stroke-width="0.3" stroke-linecap="square" stroke-miterlimit="10" d="M20.5,25.583
			c-2.583,0-9,0.583-9,1"/>
		<path fill="none" stroke="#9ACDCD" stroke-width="0.3" stroke-linecap="square" stroke-miterlimit="10" d="M22.885,13.906
			c-0.688,0-1.5-0.083-1.5-0.5"/>
		<path fill="none" stroke="#9ACDCD" stroke-width="0.3" stroke-linecap="square" stroke-miterlimit="10" d="M24.885,13.906
			c-0.688,0-1.5-0.083-1.5-0.5"/>
		<path fill="none" stroke="#9ACDCD" stroke-width="0.3" stroke-linecap="square" stroke-miterlimit="10" d="M26.885,13.906
			c-0.688,0-1.5-0.083-1.5-0.5"/>
		<path fill="none" stroke="#9ACDCD" stroke-width="0.3" stroke-linecap="square" stroke-miterlimit="10" d="M28.885,13.906
			c-0.688,0-1.5-0.083-1.5-0.5"/>
		<path fill="none" stroke="#9ACDCD" stroke-width="0.3" stroke-linecap="square" stroke-miterlimit="10" d="M19.667,12
			C17.083,12,7.323,25.323,11.5,24.583"/>
		<path fill="none" stroke="#9ACDCD" stroke-width="0.3" stroke-linecap="square" stroke-miterlimit="10" d="M15.932,6.167
			C4.667,13.25,0.417,25.583,10.5,25.583"/>
		<path fill="none" stroke="#9ACDCD" stroke-width="0.3" stroke-linecap="square" stroke-miterlimit="10" d="M3.417,10.5
			c2.75-4.167,5.25-7.5,12.515-4.333"/>
		<path fill="none" stroke="#9ACDCD" stroke-width="0.3" stroke-linecap="square" stroke-miterlimit="10" d="M21.385,14.406
			c1.188,0-0.239-2.406-1.719-2.406"/>
		<path fill="none" stroke="#9ACDCD" stroke-width="0.3" stroke-linecap="square" stroke-miterlimit="10" d="M29.385,14.406
			c1.188,0-0.239-2.406-1.719-2.406"/>
		<path fill="none" stroke="#9ACDCD" stroke-width="0.3" stroke-linecap="square" stroke-miterlimit="10" d="M27.385,14.406
			c1.188,0-0.239-2.406-1.719-2.406"/>
		<path fill="none" stroke="#9ACDCD" stroke-width="0.3" stroke-linecap="square" stroke-miterlimit="10" d="M25.385,14.406
			c1.188,0-0.239-2.406-1.719-2.406"/>
		<path fill="none" stroke="#9ACDCD" stroke-width="0.3" stroke-linecap="square" stroke-miterlimit="10" d="M23.385,14.406
			c1.188,0-0.239-2.406-1.719-2.406"/>
		<path fill="none" stroke="#9ACDCD" stroke-width="0.3" stroke-linecap="square" stroke-miterlimit="10" d="M21.667,12
			c-2.583,0-4.344,13.323-0.167,12.583"/>
		<path fill="none" stroke="#9ACDCD" stroke-width="0.3" stroke-linecap="square" stroke-miterlimit="10" d="M23.667,12
			c-2.583,0,3.656,13.323,7.833,12.583"/>
		<path fill="none" stroke="#9ACDCD" stroke-width="0.3" stroke-linecap="square" stroke-miterlimit="10" d="M25.667,12
			C23.083,12,37.323,25.323,41.5,24.583"/>
		<path fill="none" stroke="#9ACDCD" stroke-width="0.3" stroke-linecap="square" stroke-miterlimit="10" d="M27.667,12
			C25.083,12,47.323,25.323,51.5,24.583"/>
		<polyline fill="none" stroke="#9ACDCD" stroke-width="0.5" stroke-linecap="square" stroke-miterlimit="10" points="11.5,24.583 
			10.5,25.583 11.5,26.583 		"/>
		
			<rect x="20" y="26.583" fill="none" stroke="#E5B7B7" stroke-width="0.3" stroke-miterlimit="10" stroke-dasharray="1,0.5" width="1.5" height="8.64"/>
		<polyline fill="none" stroke="#9ACDCD" stroke-width="0.5" stroke-linecap="square" stroke-miterlimit="10" points="31.5,24.583 
			30.5,25.583 31.5,26.583 		"/>
		<path fill="none" stroke="#9ACDCD" stroke-width="0.3" stroke-linecap="square" stroke-miterlimit="10" d="M30.5,25.583
			c-2.583,0-9,0.583-9,1"/>
		
			<rect x="30" y="26.583" fill="none" stroke="#E5B7B7" stroke-width="0.3" stroke-miterlimit="10" stroke-dasharray="1,0.5" width="1.5" height="6.608"/>
		<polyline fill="none" stroke="#9ACDCD" stroke-width="0.5" stroke-linecap="square" stroke-miterlimit="10" points="41.5,24.583 
			40.5,25.583 41.5,26.583 		"/>
		<path fill="none" stroke="#9ACDCD" stroke-width="0.3" stroke-linecap="square" stroke-miterlimit="10" d="M40.5,25.583
			c-2.583,0-9,0.583-9,1"/>
		
			<rect x="40" y="26.583" fill="none" stroke="#E5B7B7" stroke-width="0.3" stroke-miterlimit="10" stroke-dasharray="1,0.5" width="1.5" height="4.575"/>
		<polyline fill="none" stroke="#9ACDCD" stroke-width="0.5" stroke-linecap="square" stroke-miterlimit="10" points="51.5,24.583 
			50.5,25.583 51.5,26.583 		"/>
		<polyline fill="none" stroke="#9ACDCD" stroke-width="0.5" stroke-linecap="square" stroke-miterlimit="10" points="
			21.385,14.406 20.885,13.906 21.385,13.406 		"/>
		<polyline fill="none" stroke="#9ACDCD" stroke-width="0.5" stroke-linecap="square" stroke-miterlimit="10" points="
			29.385,14.406 28.885,13.906 29.385,13.406 		"/>
		<polyline fill="none" stroke="#9ACDCD" stroke-width="0.5" stroke-linecap="square" stroke-miterlimit="10" points="2.917,11 
			3.417,10.5 3.917,11 		"/>
		<polyline fill="none" stroke="#9ACDCD" stroke-width="0.5" stroke-linecap="square" stroke-miterlimit="10" points="
			27.385,14.406 26.885,13.906 27.385,13.406 		"/>
		<polyline fill="none" stroke="#9ACDCD" stroke-width="0.5" stroke-linecap="square" stroke-miterlimit="10" points="
			25.385,14.406 24.885,13.906 25.385,13.406 		"/>
		<polyline fill="none" stroke="#9ACDCD" stroke-width="0.5" stroke-linecap="square" stroke-miterlimit="10" points="
			23.385,14.406 22.885,13.906 23.385,13.406 		"/>
		<path fill="none" stroke="#9ACDCD" stroke-width="0.3" stroke-linecap="square" stroke-miterlimit="10" d="M50.5,25.583
			c-2.583,0-9,0.583-9,1"/>
		
			<rect x="50" y="26.583" fill="none" stroke="#E5B7B7" stroke-width="0.3" stroke-miterlimit="10" stroke-dasharray="1,0.5" width="1.5" height="2.542"/>
		<path fill="none" stroke="#9ACDCD" stroke-width="0.3" stroke-linecap="square" stroke-miterlimit="10" d="M51.5,26.583
			c13.708-4.083,10,0.667,8.333,1.25"/>
		
			<rect x="8.167" y="27.834" fill="none" stroke="#E5B7B7" stroke-width="0.3" stroke-miterlimit="10" stroke-dasharray="1,0.5" width="51.667" height="178.041"/>
		<path fill="none" stroke="#9ACDCD" stroke-width="0.3" stroke-linecap="square" stroke-miterlimit="10" d="M20.885,13.906
			C8.718,15.323,4.5,14.5,3.917,11"/>
		<path fill="none" stroke="#9ACDCD" stroke-width="0.3" stroke-linecap="square" stroke-miterlimit="10" d="M59.833,27.834
			C59.792,1.625,6.667-7.875,2.917,11"/>
	</g>
</g>
</svg>
