<?xml version="1.0" encoding="utf-8"?>
<!-- Generator: Adobe Illustrator 15.0.0, SVG Export Plug-In . SVG Version: 6.00 Build 0)  -->
<!DOCTYPE svg PUBLIC "-//W3C//DTD SVG 1.1//EN" "http://www.w3.org/Graphics/SVG/1.1/DTD/svg11.dtd">
<svg version="1.1" xmlns="http://www.w3.org/2000/svg" xmlns:xlink="http://www.w3.org/1999/xlink" x="0px" y="0px" width="992px"
	 height="1264px" viewBox="-31.5 -95.5 992 1264" enable-background="new -31.5 -95.5 992 1264" xml:space="preserve">
<g id="unused_graphic_styles">
</g>
<g id="diagram" xmlns:dc="http://purl.org/dc/elements/1.1/" xmlns:cc="http://creativecommons.org/ns#" xmlns:rdf="http://www.w3.org/1999/02/22-rdf-syntax-ns#" xmlns:svg="http://www.w3.org/2000/svg" xmlns:sodipodi="http://sodipodi.sourceforge.net/DTD/sodipodi-0.dtd" xmlns:inkscape="http://www.inkscape.org/namespaces/inkscape" inkscape:version="0.91 r13725" sodipodi:docname="ControlFlow-positiveExamples_inkscape.svg">
	<g>
		<g>
			<line fill="none" stroke="#000000" stroke-miterlimit="10" x1="56.5" y1="177.5" x2="117.674" y2="177.5"/>
			<g>
				<polygon points="111.763,180.681 111.421,179.74 117.576,177.5 111.421,175.26 111.763,174.32 120.5,177.5 				"/>
			</g>
		</g>
	</g>
	<g>
		<g>
			<line fill="none" stroke="#000000" stroke-miterlimit="10" x1="168.5" y1="464.502" x2="509.674" y2="464.502"/>
			<g>
				<polygon points="503.764,467.684 503.422,466.742 509.576,464.502 503.422,462.262 503.764,461.322 512.5,464.502 				"/>
			</g>
		</g>
	</g>
	<g>
		<g>
			<line fill="none" stroke="#000000" stroke-miterlimit="10" x1="32.5" y1="201.498" x2="32.5" y2="997.674"/>
			<g>
				<polygon points="29.32,991.764 30.26,991.422 32.5,997.576 34.74,991.422 35.68,991.764 32.5,1000.5 				"/>
			</g>
		</g>
	</g>
	<g>
		<text transform="matrix(1 0 0 1 64.5002 161.5)"><tspan x="0" y="0" font-family="'CourierNewPSMT'" font-size="12">has </tspan><tspan x="0" y="12" font-family="'CourierNewPSMT'" font-size="12">stroke</tspan></text>
	</g>
	<g>
		<g>
			<line fill="none" stroke="#000000" stroke-miterlimit="10" x1="56.5" y1="1024.502" x2="117.674" y2="1024.502"/>
			<g>
				<polygon points="111.763,1027.684 111.421,1026.742 117.576,1024.502 111.421,1022.262 111.763,1021.322 120.5,1024.502 				"/>
			</g>
		</g>
	</g>
	<g>
		<text transform="matrix(1 0 0 1 64.5002 1008.5029)"><tspan x="0" y="0" font-family="'CourierNewPSMT'" font-size="12">has </tspan><tspan x="0" y="12" font-family="'CourierNewPSMT'" font-size="12">fill</tspan></text>
	</g>
	<g>
		<text transform="matrix(1 0 0 1 38.5002 217.5)"><tspan x="0" y="0" font-family="'CourierNewPSMT'" font-size="12">no </tspan><tspan x="0" y="12" font-family="'CourierNewPSMT'" font-size="12">stroke</tspan></text>
	</g>
	<g>
		<g>
			<line fill="none" stroke="#000000" stroke-miterlimit="10" x1="32.5" y1="1048.502" x2="32.5" y2="1093.674"/>
			<g>
				<polygon points="29.32,1087.764 30.26,1087.422 32.5,1093.576 34.74,1087.422 35.68,1087.764 32.5,1096.5 				"/>
			</g>
		</g>
	</g>
	<g>
		<text transform="matrix(1 0 0 1 38.5002 1064.5029)"><tspan x="0" y="0" font-family="'CourierNewPSMT'" font-size="12">no </tspan><tspan x="0" y="12" font-family="'CourierNewPSMT'" font-size="12">fill</tspan></text>
	</g>
	<g>
		<g>
			<line fill="none" stroke="#000000" stroke-miterlimit="10" x1="736.5" y1="384.5" x2="797.174" y2="384.5"/>
			<g>
				<polygon points="791.264,387.682 790.922,386.74 797.076,384.5 790.922,382.26 791.264,381.32 800,384.5 				"/>
			</g>
		</g>
	</g>
	<g>
		<text transform="matrix(1 0 0 1 744.0002 368.5)"><tspan x="0" y="0" font-family="'CourierNewPSMT'" font-size="12">is </tspan><tspan x="0" y="12" font-family="'CourierNewPSMT'" font-size="12">dashed</tspan></text>
	</g>
	<g>
		<g>
			<line fill="none" stroke="#000000" stroke-miterlimit="10" x1="712.5" y1="408.5" x2="712.5" y2="469.674"/>
			<g>
				<polygon points="709.32,463.764 710.26,463.422 712.5,469.576 714.74,463.422 715.68,463.764 712.5,472.5 				"/>
			</g>
		</g>
	</g>
	<g>
		<text transform="matrix(1 0 0 1 718.5002 424.5)"><tspan x="0" y="0" font-family="'CourierNewPSMT'" font-size="12">is </tspan><tspan x="0" y="12" font-family="'CourierNewPSMT'" font-size="12">continuous</tspan></text>
	</g>
	<g>
		<g>
			<line fill="none" stroke="#000000" stroke-miterlimit="10" x1="560.5" y1="552.5" x2="621.674" y2="552.5"/>
			<g>
				<polygon points="615.764,555.682 615.422,554.74 621.576,552.5 615.422,550.26 615.764,549.32 624.5,552.5 				"/>
			</g>
		</g>
	</g>
	<g>
		<text transform="matrix(1 0 0 1 568.5002 536.5)"><tspan x="0" y="0" font-family="'CourierNewPSMT'" font-size="12">is </tspan><tspan x="0" y="12" font-family="'CourierNewPSMT'" font-size="12">dashed</tspan></text>
	</g>
	<g>
		<g>
			<line fill="none" stroke="#000000" stroke-miterlimit="10" x1="536.5" y1="576.5" x2="536.5" y2="637.674"/>
			<g>
				<polygon points="533.32,631.764 534.26,631.422 536.5,637.576 538.74,631.422 539.68,631.764 536.5,640.5 				"/>
			</g>
		</g>
	</g>
	<g>
		<text transform="matrix(1 0 0 1 542.5002 592.5)"><tspan x="0" y="0" font-family="'CourierNewPSMT'" font-size="12">is </tspan><tspan x="0" y="12" font-family="'CourierNewPSMT'" font-size="12">continuous</tspan></text>
	</g>
	<g>
		<g>
			<line fill="none" stroke="#000000" stroke-miterlimit="10" x1="280.5" y1="848.5" x2="401.674" y2="848.5"/>
			<g>
				<polygon points="395.764,851.681 395.422,850.74 401.576,848.5 395.422,846.26 395.764,845.32 404.5,848.5 				"/>
			</g>
		</g>
	</g>
	<g>
		<text transform="matrix(1 0 0 1 288.5002 832.501)"><tspan x="0" y="0" font-family="'CourierNewPSMT'" font-size="12">is </tspan><tspan x="0" y="12" font-family="'CourierNewPSMT'" font-size="12">dashed</tspan></text>
	</g>
	<g>
		<text transform="matrix(1 0 0 1 262.5002 888.501)"><tspan x="0" y="0" font-family="'CourierNewPSMT'" font-size="12">is </tspan><tspan x="0" y="12" font-family="'CourierNewPSMT'" font-size="12">continuous</tspan></text>
	</g>
	<g>
		<g>
			<line fill="none" stroke="#000000" stroke-miterlimit="10" x1="56.5" y1="32.5" x2="117.674" y2="32.5"/>
			<g>
				<polygon points="111.763,35.681 111.421,34.74 117.576,32.5 111.421,30.26 111.763,29.32 120.5,32.5 				"/>
			</g>
		</g>
	</g>
	<text transform="matrix(1 0 0 1 64.5002 28.5)" font-family="'CourierNewPSMT'" font-size="12">circle</text>
	<g>
		<g>
			<line fill="none" stroke="#000000" stroke-miterlimit="10" x1="168.5" y1="384.5" x2="685.674" y2="384.5"/>
			<g>
				<polygon points="679.764,387.682 679.422,386.74 685.576,384.5 679.422,382.26 679.764,381.32 688.5,384.5 				"/>
			</g>
		</g>
	</g>
	<text transform="matrix(1 0 0 1 176.5002 380.5)" font-family="'CourierNewPSMT'" font-size="12">line</text>
	<g>
		<g>
			<line fill="none" stroke="#000000" stroke-miterlimit="10" x1="32.5" y1="56.5" x2="32.5" y2="150.674"/>
			<g>
				<polygon points="29.32,144.763 30.26,144.421 32.5,150.577 34.74,144.421 35.68,144.763 32.5,153.5 				"/>
			</g>
		</g>
	</g>
	<text transform="matrix(1 0 0 1 36.5002 72.5)" font-family="'CourierNewPSMT'" font-size="12">(other)</text>
	<g>
		<g>
			<line fill="none" stroke="#000000" stroke-miterlimit="10" x1="168.5" y1="552.5" x2="229.674" y2="552.5"/>
			<g>
				<polygon points="223.763,555.682 223.421,554.74 229.576,552.5 223.421,550.26 223.763,549.32 232.5,552.5 				"/>
			</g>
		</g>
	</g>
	<text transform="matrix(1 0 0 1 176.5002 548.5)" font-family="'CourierNewPSMT'" font-size="12">path</text>
	<g>
		<g>
			<line fill="none" stroke="#000000" stroke-miterlimit="10" x1="280.5" y1="552.5" x2="341.674" y2="552.5"/>
			<g>
				<polygon points="335.763,555.682 335.421,554.74 341.576,552.5 335.421,550.26 335.763,549.32 344.5,552.5 				"/>
			</g>
		</g>
	</g>
	<text transform="matrix(1 0 0 1 400.5002 548.5)" font-family="'CourierNewPSMT'" font-size="12">straight</text>
	<g>
		<g>
			<line fill="none" stroke="#000000" stroke-miterlimit="10" x1="368.5" y1="576.5" x2="368.5" y2="637.674"/>
			<g>
				<polygon points="365.32,631.764 366.26,631.422 368.5,637.576 370.74,631.422 371.68,631.764 368.5,640.5 				"/>
			</g>
		</g>
	</g>
	<text transform="matrix(1 0 0 1 372.5002 592.5)" font-family="'CourierNewPSMT'" font-size="12">curved</text>
	<g>
		<g>
			<path fill="none" stroke="#000000" stroke-miterlimit="10" d="M392.5,552.5h70c5.5,0,10-4.5,10-10v-68c0-5.5,4.5-10,10-10h27.174
				"/>
			<g>
				<polygon points="503.764,467.682 503.422,466.74 509.576,464.5 503.422,462.26 503.764,461.32 512.5,464.5 				"/>
			</g>
		</g>
	</g>
	<text transform="matrix(1 0 0 1 288.5002 548.5)" font-family="'CourierNewPSMT'" font-size="12">open</text>
	<g>
		<g>
			<path fill="none" stroke="#000000" stroke-miterlimit="10" d="M256.5,872.5v61c0,5.5-4.5,10-10,10h-204c-5.5,0-10,4.5-10,10
				v44.176"/>
			<g>
				<polygon points="29.32,991.766 30.26,991.424 32.5,997.578 34.74,991.424 35.68,991.766 32.5,1000.502 				"/>
			</g>
		</g>
	</g>
	<text transform="matrix(1 0 0 1 260.5002 592.5)" font-family="'CourierNewPSMT'" font-size="12">closed</text>
	<g>
		<text transform="matrix(1 0 0 1 568.0002 448.5)"><tspan x="0" y="0" font-family="'CourierNewPSMT'" font-size="12">one </tspan><tspan x="0" y="12" font-family="'CourierNewPSMT'" font-size="12">segment</tspan></text>
	</g>
	<g>
		<g>
			<line fill="none" stroke="#000000" stroke-miterlimit="10" x1="536.5" y1="488.5" x2="536.5" y2="525.674"/>
			<g>
				<polygon points="533.32,519.764 534.26,519.422 536.5,525.576 538.74,519.422 539.68,519.764 536.5,528.5 				"/>
			</g>
		</g>
	</g>
	<g>
		<g>
			<path fill="none" stroke="#000000" stroke-miterlimit="10" d="M560.5,464.5h78c5.5,0,10-4.5,10-10v-60c0-5.5,4.5-10,10-10h27.174
				"/>
			<g>
				<polygon points="679.764,387.682 679.422,386.74 685.576,384.5 679.422,382.26 679.764,381.32 688.5,384.5 				"/>
			</g>
		</g>
	</g>
	<g>
		<text transform="matrix(1 0 0 1 176.5002 460.5)" font-family="'CourierNewPSMT'" font-size="12">polyline</text>
	</g>
	<g>
		<g>
			<line fill="none" stroke="#000000" stroke-miterlimit="10" x1="144.5" y1="408.5" x2="144.5" y2="437.674"/>
			<g>
				<polygon points="141.32,431.764 142.26,431.422 144.5,437.576 146.74,431.422 147.68,431.764 144.5,440.5 				"/>
			</g>
		</g>
	</g>
	<g>
		<text transform="matrix(1 0 0 1 89.092 424.5)" font-family="'CourierNewPSMT'" font-size="12">(other)</text>
	</g>
	<g>
		<g>
			<line fill="none" stroke="#000000" stroke-miterlimit="10" x1="144.5" y1="488.5" x2="144.5" y2="525.674"/>
			<g>
				<polygon points="141.32,519.764 142.26,519.422 144.5,525.576 146.74,519.422 147.68,519.764 144.5,528.5 				"/>
			</g>
		</g>
	</g>
	<g>
		<text transform="matrix(1 0 0 1 89.092 504.5)" font-family="'CourierNewPSMT'" font-size="12">(other)</text>
	</g>
	<g>
		<g>
			<path fill="none" stroke="#000000" stroke-miterlimit="10" d="M168.5,640.5h78c5.5,0,10,4.5,10,10v171.174"/>
			<g>
				<polygon points="253.32,815.764 254.26,815.422 256.5,821.576 258.74,815.422 259.68,815.764 256.5,824.5 				"/>
			</g>
		</g>
	</g>
	<text transform="matrix(1 0 0 1 176.5002 636.5)" font-family="'CourierNewPSMT'" font-size="12">polygon</text>
	<g>
		<g>
			<line fill="none" stroke="#000000" stroke-miterlimit="10" x1="144.5" y1="576.5" x2="144.5" y2="613.674"/>
			<g>
				<polygon points="141.32,607.764 142.26,607.422 144.5,613.576 146.74,607.422 147.68,607.764 144.5,616.5 				"/>
			</g>
		</g>
	</g>
	<g>
		<text transform="matrix(1 0 0 1 89.092 592.5)" font-family="'CourierNewPSMT'" font-size="12">(other)</text>
	</g>
	<g>
		<g>
			<path fill="none" stroke="#000000" stroke-miterlimit="10" d="M168.501,728.5h78c5.5,0,10,4.5,10,10v83.174"/>
			<g>
				<polygon points="253.32,815.764 254.26,815.422 256.5,821.576 258.74,815.422 259.68,815.764 256.5,824.5 				"/>
			</g>
		</g>
	</g>
	<text transform="matrix(1 0 0 1 176.5007 724.5)" font-family="'CourierNewPSMT'" font-size="12">rect</text>
	<g>
		<g>
			<line fill="none" stroke="#000000" stroke-miterlimit="10" x1="144.501" y1="664.5" x2="144.501" y2="701.674"/>
			<g>
				<polygon points="141.32,695.764 142.26,695.422 144.501,701.576 146.741,695.422 147.68,695.764 144.501,704.5 				"/>
			</g>
		</g>
	</g>
	<g>
		<text transform="matrix(1 0 0 1 89.0925 680.5)" font-family="'CourierNewPSMT'" font-size="12">(other)</text>
	</g>
	<g>
		<g>
			<line fill="none" stroke="#000000" stroke-miterlimit="10" x1="144.5" y1="752.5" x2="144.5" y2="789.674"/>
			<g>
				<polygon points="141.32,783.764 142.26,783.422 144.5,789.576 146.74,783.422 147.68,783.764 144.5,792.5 				"/>
			</g>
		</g>
	</g>
	<g>
		<text transform="matrix(1 0 0 1 89.092 768.5)" font-family="'CourierNewPSMT'" font-size="12">(other)</text>
	</g>
	<g>
		<text transform="matrix(1 0 0 1 541.5002 504.5)" font-family="'CourierNewPSMT'" font-size="12">multi-segment</text>
	</g>
	<g>
		<g>
			<line fill="none" stroke="#000000" stroke-miterlimit="10" x1="144.5" y1="201.5" x2="144.5" y2="357.674"/>
			<g>
				<polygon points="141.32,351.764 142.26,351.422 144.5,357.576 146.74,351.422 147.68,351.764 144.5,360.5 				"/>
			</g>
		</g>
	</g>
	<g>
		<text transform="matrix(1 0 0 1 148.5002 217.5)"><tspan x="0" y="0" font-family="'CourierNewPSMT'" font-size="12">has hard </tspan><tspan x="0" y="12" font-family="'CourierNewPSMT'" font-size="12">edge+cap</tspan></text>
	</g>
	<g>
		<g>
			<line fill="none" stroke="#000000" stroke-miterlimit="10" x1="168.5" y1="177.5" x2="245.674" y2="177.5"/>
			<g>
				<polygon points="239.764,180.681 239.422,179.74 245.576,177.5 239.422,175.26 239.764,174.32 248.5,177.5 				"/>
			</g>
		</g>
	</g>
	<text transform="matrix(1 0 0 1 176.5002 161.5)"><tspan x="0" y="0" font-family="'CourierNewPSMT'" font-size="12">has round  </tspan><tspan x="0" y="12" font-family="'CourierNewPSMT'" font-size="12">edge+cap</tspan></text>
	<polygon fill="#FFBC00" stroke="#000000" stroke-miterlimit="10" points="40.423,1105.5 29.149,1105.5 26.234,1114.426 
		29.097,1114.426 24.5,1128.5 36.338,1113.758 33.794,1113.758 	"/>
	<polygon fill="#FFBC00" stroke="#000000" stroke-miterlimit="10" points="720.274,480.5 709,480.5 706.084,489.426 
		708.948,489.426 704.351,503.5 716.189,488.758 713.645,488.758 	"/>
	<polygon fill="#FFBC00" stroke="#000000" stroke-miterlimit="10" points="151.5,801.5 140.227,801.5 137.311,810.426 
		140.174,810.426 135.577,824.5 147.415,809.758 144.871,809.758 	"/>
	<polygon fill="#FFBC00" stroke="#000000" stroke-miterlimit="10" points="646.69,543.574 635.416,543.574 632.5,552.5 
		635.364,552.5 630.767,566.574 642.605,551.832 640.061,551.832 	"/>
	<g>
		<g>
			<line fill="none" stroke="#000000" stroke-miterlimit="10" x1="256.5" y1="576.5" x2="256.5" y2="821.674"/>
			<g>
				<polygon points="253.32,815.764 254.26,815.422 256.5,821.576 258.74,815.422 259.68,815.764 256.5,824.5 				"/>
			</g>
		</g>
	</g>
	<g>
		<text transform="matrix(1 0 0 1 515.1907 -47.5)"><tspan x="0" y="0" font-family="'CourierNewPS-BoldMT'" font-size="21">clip_8 </tspan><tspan x="88.214" y="0" font-family="'CourierNewPSMT'" font-size="21">| Tree of Graphics Ele</tspan><tspan x="365.46" y="0" font-family="'CourierNewPSMT'" font-size="21">m</tspan><tspan x="378.901" y="0" font-family="'CourierNewPSMT'" font-size="21">ents </tspan><tspan x="429.31" y="25.2" font-family="'CourierNewPSMT'" font-size="21"> </tspan><tspan x="26.044" y="50.4" font-family="'CourierNewPSMT'" font-size="21">draft for language version 0.1.x </tspan><tspan x="38.646" y="75.6" font-family="'CourierNewPSMT'" font-size="21">Copyright Martin Brösamle, 2017</tspan></text>
	</g>
	<g>
		<g>
			<line fill="none" stroke="#000000" stroke-miterlimit="10" x1="32.5" y1="-23.5" x2="32.5" y2="6.674"/>
			<g>
				<polygon points="29.32,0.763 30.26,0.421 32.5,6.577 34.74,0.421 35.68,0.763 32.5,9.5 				"/>
			</g>
		</g>
	</g>
	<text transform="matrix(1 0 0 1 -5.906 -57.5)"><tspan x="0" y="0" font-family="'CourierNewPS-BoldMT'" font-size="16">graphics </tspan><tspan x="4.801" y="19.2" font-family="'CourierNewPS-BoldMT'" font-size="16">element</tspan></text>
	<g>
		
			<rect x="133.187" y="373.186" transform="matrix(-0.7071 -0.7071 0.7071 -0.7071 -25.2052 758.5597)" fill="#DDDDDD" stroke="#000000" stroke-width="2" stroke-miterlimit="10" width="22.627" height="22.627"/>
		<g>
			<path d="M145.317,385.547c-0.031,0.303-0.119,0.521-0.262,0.66s-0.324,0.207-0.543,0.207c-0.234,0-0.426-0.082-0.574-0.246
				s-0.223-0.439-0.223-0.824v-0.898c1.266-0.484,2.029-0.857,2.289-1.117s0.391-0.525,0.391-0.797c0-0.381-0.152-0.709-0.457-0.984
				s-0.736-0.414-1.293-0.414c-0.588,0-1.156,0.135-1.703,0.406v0.234c0,0.381-0.074,0.652-0.223,0.816s-0.342,0.246-0.582,0.246
				c-0.234,0-0.426-0.08-0.574-0.242s-0.223-0.436-0.223-0.82v-1.289c0.818-0.385,1.453-0.641,1.906-0.766s0.922-0.188,1.406-0.188
				c1.01,0,1.82,0.291,2.43,0.875s0.914,1.314,0.914,2.195c0,0.625-0.184,1.156-0.551,1.594S146.369,385.084,145.317,385.547z
				 M145.653,388.641c0,0.244-0.087,0.443-0.262,0.598s-0.465,0.23-0.871,0.23s-0.697-0.076-0.871-0.23s-0.262-0.354-0.262-0.598
				s0.086-0.443,0.258-0.598s0.463-0.23,0.875-0.23c0.406,0,0.697,0.076,0.871,0.23S145.653,388.396,145.653,388.641z"/>
		</g>
	</g>
	<g>
		
			<rect x="133.187" y="453.186" transform="matrix(-0.7071 -0.7071 0.7071 -0.7071 -81.7737 895.1282)" fill="#DDDDDD" stroke="#000000" stroke-width="2" stroke-miterlimit="10" width="22.627" height="22.627"/>
		<g>
			<path d="M145.317,465.547c-0.031,0.303-0.119,0.521-0.262,0.66s-0.324,0.207-0.543,0.207c-0.234,0-0.426-0.082-0.574-0.246
				s-0.223-0.439-0.223-0.824v-0.898c1.266-0.484,2.029-0.857,2.289-1.117s0.391-0.525,0.391-0.797c0-0.381-0.152-0.709-0.457-0.984
				s-0.736-0.414-1.293-0.414c-0.588,0-1.156,0.135-1.703,0.406v0.234c0,0.381-0.074,0.652-0.223,0.816s-0.342,0.246-0.582,0.246
				c-0.234,0-0.426-0.08-0.574-0.242s-0.223-0.436-0.223-0.82v-1.289c0.818-0.385,1.453-0.641,1.906-0.766s0.922-0.188,1.406-0.188
				c1.01,0,1.82,0.291,2.43,0.875s0.914,1.314,0.914,2.195c0,0.625-0.184,1.156-0.551,1.594S146.369,465.084,145.317,465.547z
				 M145.653,468.641c0,0.244-0.087,0.443-0.262,0.598s-0.465,0.23-0.871,0.23s-0.697-0.076-0.871-0.23s-0.262-0.354-0.262-0.598
				s0.086-0.443,0.258-0.598s0.463-0.23,0.875-0.23c0.406,0,0.697,0.076,0.871,0.23S145.653,468.396,145.653,468.641z"/>
		</g>
	</g>
	<g>
		
			<rect x="133.187" y="541.186" transform="matrix(-0.7071 -0.7071 0.7071 -0.7071 -143.9991 1045.3535)" fill="#DDDDDD" stroke="#000000" stroke-width="2" stroke-miterlimit="10" width="22.627" height="22.627"/>
		<g>
			<path d="M145.317,553.547c-0.031,0.303-0.119,0.521-0.262,0.66s-0.324,0.207-0.543,0.207c-0.234,0-0.426-0.082-0.574-0.246
				s-0.223-0.439-0.223-0.824v-0.898c1.266-0.484,2.029-0.857,2.289-1.117s0.391-0.525,0.391-0.797c0-0.381-0.152-0.709-0.457-0.984
				s-0.736-0.414-1.293-0.414c-0.588,0-1.156,0.135-1.703,0.406v0.234c0,0.381-0.074,0.652-0.223,0.816s-0.342,0.246-0.582,0.246
				c-0.234,0-0.426-0.08-0.574-0.242s-0.223-0.436-0.223-0.82v-1.289c0.818-0.385,1.453-0.641,1.906-0.766s0.922-0.188,1.406-0.188
				c1.01,0,1.82,0.291,2.43,0.875s0.914,1.314,0.914,2.195c0,0.625-0.184,1.156-0.551,1.594S146.369,553.084,145.317,553.547z
				 M145.653,556.641c0,0.244-0.087,0.443-0.262,0.598s-0.465,0.23-0.871,0.23s-0.697-0.076-0.871-0.23s-0.262-0.354-0.262-0.598
				s0.086-0.443,0.258-0.598s0.463-0.23,0.875-0.23c0.406,0,0.697,0.076,0.871,0.23S145.653,556.396,145.653,556.641z"/>
		</g>
	</g>
	<g>
		
			<rect x="245.187" y="541.186" transform="matrix(-0.7071 -0.7071 0.7071 -0.7071 47.1968 1124.5496)" fill="#DDDDDD" stroke="#000000" stroke-width="2" stroke-miterlimit="10" width="22.627" height="22.627"/>
		<g>
			<path d="M257.317,553.547c-0.031,0.303-0.119,0.521-0.262,0.66s-0.324,0.207-0.543,0.207c-0.234,0-0.426-0.082-0.574-0.246
				s-0.223-0.439-0.223-0.824v-0.898c1.266-0.484,2.029-0.857,2.289-1.117s0.391-0.525,0.391-0.797c0-0.381-0.152-0.709-0.457-0.984
				s-0.736-0.414-1.293-0.414c-0.588,0-1.156,0.135-1.703,0.406v0.234c0,0.381-0.074,0.652-0.223,0.816s-0.342,0.246-0.582,0.246
				c-0.234,0-0.426-0.08-0.574-0.242s-0.223-0.436-0.223-0.82v-1.289c0.818-0.385,1.453-0.641,1.906-0.766s0.922-0.188,1.406-0.188
				c1.01,0,1.82,0.291,2.43,0.875s0.914,1.314,0.914,2.195c0,0.625-0.184,1.156-0.551,1.594S258.369,553.084,257.317,553.547z
				 M257.653,556.641c0,0.244-0.088,0.443-0.262,0.598s-0.465,0.23-0.871,0.23s-0.697-0.076-0.871-0.23s-0.262-0.354-0.262-0.598
				s0.086-0.443,0.258-0.598s0.463-0.23,0.875-0.23c0.406,0,0.697,0.076,0.871,0.23S257.653,556.396,257.653,556.641z"/>
		</g>
	</g>
	<g>
		
			<rect x="357.187" y="541.186" transform="matrix(-0.7071 -0.7071 0.7071 -0.7071 238.3928 1203.7455)" fill="#DDDDDD" stroke="#000000" stroke-width="2" stroke-miterlimit="10" width="22.627" height="22.627"/>
		<g>
			<path d="M369.317,553.547c-0.031,0.303-0.119,0.521-0.262,0.66s-0.324,0.207-0.543,0.207c-0.234,0-0.426-0.082-0.574-0.246
				s-0.223-0.439-0.223-0.824v-0.898c1.266-0.484,2.029-0.857,2.289-1.117s0.391-0.525,0.391-0.797c0-0.381-0.152-0.709-0.457-0.984
				s-0.736-0.414-1.293-0.414c-0.588,0-1.156,0.135-1.703,0.406v0.234c0,0.381-0.074,0.652-0.223,0.816s-0.342,0.246-0.582,0.246
				c-0.234,0-0.426-0.08-0.574-0.242s-0.223-0.436-0.223-0.82v-1.289c0.818-0.385,1.453-0.641,1.906-0.766s0.922-0.188,1.406-0.188
				c1.01,0,1.82,0.291,2.43,0.875s0.914,1.314,0.914,2.195c0,0.625-0.184,1.156-0.551,1.594S370.369,553.084,369.317,553.547z
				 M369.653,556.641c0,0.244-0.088,0.443-0.262,0.598s-0.465,0.23-0.871,0.23s-0.697-0.076-0.871-0.23s-0.262-0.354-0.262-0.598
				s0.086-0.443,0.258-0.598s0.463-0.23,0.875-0.23c0.406,0,0.697,0.076,0.871,0.23S369.653,556.396,369.653,556.641z"/>
		</g>
	</g>
	<g>
		
			<rect x="525.187" y="453.186" transform="matrix(-0.7071 -0.7071 0.7071 -0.7071 587.4121 1172.314)" fill="#DDDDDD" stroke="#000000" stroke-width="2" stroke-miterlimit="10" width="22.627" height="22.627"/>
		<g>
			<path d="M537.317,465.547c-0.031,0.303-0.119,0.521-0.262,0.66s-0.324,0.207-0.543,0.207c-0.234,0-0.426-0.082-0.574-0.246
				s-0.223-0.439-0.223-0.824v-0.898c1.266-0.484,2.029-0.857,2.289-1.117s0.391-0.525,0.391-0.797c0-0.381-0.152-0.709-0.457-0.984
				s-0.736-0.414-1.293-0.414c-0.588,0-1.156,0.135-1.703,0.406v0.234c0,0.381-0.074,0.652-0.223,0.816s-0.342,0.246-0.582,0.246
				c-0.234,0-0.426-0.08-0.574-0.242s-0.223-0.436-0.223-0.82v-1.289c0.818-0.385,1.453-0.641,1.906-0.766s0.922-0.188,1.406-0.188
				c1.01,0,1.82,0.291,2.43,0.875s0.914,1.314,0.914,2.195c0,0.625-0.184,1.156-0.551,1.594S538.369,465.084,537.317,465.547z
				 M537.653,468.641c0,0.244-0.088,0.443-0.262,0.598s-0.465,0.23-0.871,0.23s-0.697-0.076-0.871-0.23s-0.262-0.354-0.262-0.598
				s0.086-0.443,0.258-0.598s0.463-0.23,0.875-0.23c0.406,0,0.697,0.076,0.871,0.23S537.653,468.396,537.653,468.641z"/>
		</g>
	</g>
	<g>
		
			<rect x="525.187" y="541.186" transform="matrix(-0.7071 -0.7071 0.7071 -0.7071 525.1867 1322.5394)" fill="#DDDDDD" stroke="#000000" stroke-width="2" stroke-miterlimit="10" width="22.627" height="22.627"/>
		<g>
			<path d="M537.317,553.547c-0.031,0.303-0.119,0.521-0.262,0.66s-0.324,0.207-0.543,0.207c-0.234,0-0.426-0.082-0.574-0.246
				s-0.223-0.439-0.223-0.824v-0.898c1.266-0.484,2.029-0.857,2.289-1.117s0.391-0.525,0.391-0.797c0-0.381-0.152-0.709-0.457-0.984
				s-0.736-0.414-1.293-0.414c-0.588,0-1.156,0.135-1.703,0.406v0.234c0,0.381-0.074,0.652-0.223,0.816s-0.342,0.246-0.582,0.246
				c-0.234,0-0.426-0.08-0.574-0.242s-0.223-0.436-0.223-0.82v-1.289c0.818-0.385,1.453-0.641,1.906-0.766s0.922-0.188,1.406-0.188
				c1.01,0,1.82,0.291,2.43,0.875s0.914,1.314,0.914,2.195c0,0.625-0.184,1.156-0.551,1.594S538.369,553.084,537.317,553.547z
				 M537.653,556.641c0,0.244-0.088,0.443-0.262,0.598s-0.465,0.23-0.871,0.23s-0.697-0.076-0.871-0.23s-0.262-0.354-0.262-0.598
				s0.086-0.443,0.258-0.598s0.463-0.23,0.875-0.23c0.406,0,0.697,0.076,0.871,0.23S537.653,556.396,537.653,556.641z"/>
		</g>
	</g>
	<g>
		
			<rect x="701.187" y="373.186" transform="matrix(-0.7071 -0.7071 0.7071 -0.7071 944.4315 1160.1963)" fill="#DDDDDD" stroke="#000000" stroke-width="2" stroke-miterlimit="10" width="22.627" height="22.627"/>
		<g>
			<path d="M713.317,385.547c-0.031,0.303-0.119,0.521-0.262,0.66s-0.324,0.207-0.543,0.207c-0.234,0-0.426-0.082-0.574-0.246
				s-0.223-0.439-0.223-0.824v-0.898c1.266-0.484,2.029-0.857,2.289-1.117s0.391-0.525,0.391-0.797c0-0.381-0.152-0.709-0.457-0.984
				s-0.736-0.414-1.293-0.414c-0.588,0-1.156,0.135-1.703,0.406v0.234c0,0.381-0.074,0.652-0.223,0.816s-0.342,0.246-0.582,0.246
				c-0.234,0-0.426-0.08-0.574-0.242s-0.223-0.436-0.223-0.82v-1.289c0.818-0.385,1.453-0.641,1.906-0.766s0.922-0.188,1.406-0.188
				c1.01,0,1.82,0.291,2.43,0.875s0.914,1.314,0.914,2.195c0,0.625-0.184,1.156-0.551,1.594S714.369,385.084,713.317,385.547z
				 M713.653,388.641c0,0.244-0.088,0.443-0.262,0.598s-0.465,0.23-0.871,0.23s-0.697-0.076-0.871-0.23s-0.262-0.354-0.262-0.598
				s0.086-0.443,0.258-0.598s0.463-0.23,0.875-0.23c0.406,0,0.697,0.076,0.871,0.23S713.653,388.396,713.653,388.641z"/>
		</g>
	</g>
	<g>
		
			<rect x="133.187" y="629.186" transform="matrix(-0.7071 -0.7071 0.7071 -0.7071 -206.2245 1195.579)" fill="#DDDDDD" stroke="#000000" stroke-width="2" stroke-miterlimit="10" width="22.627" height="22.627"/>
		<g>
			<path d="M145.317,641.547c-0.031,0.303-0.119,0.521-0.262,0.66s-0.324,0.207-0.543,0.207c-0.234,0-0.426-0.082-0.574-0.246
				s-0.223-0.439-0.223-0.824v-0.898c1.266-0.484,2.029-0.857,2.289-1.117s0.391-0.525,0.391-0.797c0-0.381-0.152-0.709-0.457-0.984
				s-0.736-0.414-1.293-0.414c-0.588,0-1.156,0.135-1.703,0.406v0.234c0,0.381-0.074,0.652-0.223,0.816s-0.342,0.246-0.582,0.246
				c-0.234,0-0.426-0.08-0.574-0.242s-0.223-0.436-0.223-0.82v-1.289c0.818-0.385,1.453-0.641,1.906-0.766s0.922-0.188,1.406-0.188
				c1.01,0,1.82,0.291,2.43,0.875s0.914,1.314,0.914,2.195c0,0.625-0.184,1.156-0.551,1.594S146.369,641.084,145.317,641.547z
				 M145.653,644.641c0,0.244-0.088,0.443-0.262,0.598s-0.465,0.23-0.871,0.23s-0.697-0.076-0.871-0.23s-0.262-0.354-0.262-0.598
				s0.086-0.443,0.258-0.598s0.463-0.23,0.875-0.23c0.406,0,0.697,0.076,0.871,0.23S145.653,644.396,145.653,644.641z"/>
		</g>
	</g>
	<g>
		
			<rect x="133.187" y="717.186" transform="matrix(-0.7071 -0.7071 0.7071 -0.7071 -268.4491 1345.8047)" fill="#DDDDDD" stroke="#000000" stroke-width="2" stroke-miterlimit="10" width="22.627" height="22.627"/>
		<g>
			<path d="M145.317,729.547c-0.031,0.303-0.119,0.521-0.262,0.66s-0.324,0.207-0.543,0.207c-0.234,0-0.426-0.082-0.574-0.246
				s-0.223-0.439-0.223-0.824v-0.898c1.266-0.484,2.029-0.857,2.289-1.117s0.391-0.525,0.391-0.797c0-0.381-0.152-0.709-0.457-0.984
				s-0.736-0.414-1.293-0.414c-0.588,0-1.156,0.135-1.703,0.406v0.234c0,0.381-0.074,0.652-0.223,0.816s-0.342,0.246-0.582,0.246
				c-0.234,0-0.426-0.08-0.574-0.242s-0.223-0.436-0.223-0.82v-1.289c0.818-0.385,1.453-0.641,1.906-0.766s0.922-0.188,1.406-0.188
				c1.01,0,1.82,0.291,2.43,0.875s0.914,1.314,0.914,2.195c0,0.625-0.184,1.156-0.551,1.594S146.37,729.084,145.317,729.547z
				 M145.653,732.641c0,0.244-0.088,0.443-0.262,0.598s-0.465,0.23-0.871,0.23s-0.697-0.076-0.871-0.23s-0.262-0.354-0.262-0.598
				s0.086-0.443,0.258-0.598s0.463-0.23,0.875-0.23c0.406,0,0.697,0.076,0.871,0.23S145.653,732.396,145.653,732.641z"/>
		</g>
	</g>
	<g>
		
			<rect x="245.187" y="837.186" transform="matrix(-0.7071 -0.7071 0.7071 -0.7071 -162.1068 1629.8531)" fill="#DDDDDD" stroke="#000000" stroke-width="2" stroke-miterlimit="10" width="22.627" height="22.627"/>
		<g>
			<path d="M257.317,849.547c-0.031,0.303-0.119,0.521-0.262,0.66s-0.324,0.207-0.543,0.207c-0.234,0-0.426-0.082-0.574-0.246
				s-0.223-0.439-0.223-0.824v-0.898c1.266-0.484,2.029-0.857,2.289-1.117s0.391-0.525,0.391-0.797c0-0.381-0.152-0.709-0.457-0.984
				s-0.736-0.414-1.293-0.414c-0.588,0-1.156,0.135-1.703,0.406v0.234c0,0.381-0.074,0.652-0.223,0.816s-0.342,0.246-0.582,0.246
				c-0.234,0-0.426-0.08-0.574-0.242s-0.223-0.436-0.223-0.82v-1.289c0.818-0.385,1.453-0.641,1.906-0.766s0.922-0.188,1.406-0.188
				c1.01,0,1.82,0.291,2.43,0.875s0.914,1.314,0.914,2.195c0,0.625-0.184,1.156-0.551,1.594S258.369,849.084,257.317,849.547z
				 M257.653,852.641c0,0.244-0.088,0.443-0.262,0.598s-0.465,0.23-0.871,0.23s-0.697-0.076-0.871-0.23s-0.262-0.354-0.262-0.598
				s0.086-0.443,0.258-0.598s0.463-0.23,0.875-0.23c0.406,0,0.697,0.076,0.871,0.23S257.653,852.396,257.653,852.641z"/>
		</g>
	</g>
	<g>
		
			<rect x="21.187" y="1013.188" transform="matrix(-0.7071 -0.7071 0.7071 -0.7071 -668.9509 1771.9153)" fill="#DDDDDD" stroke="#000000" stroke-width="2" stroke-miterlimit="10" width="22.627" height="22.627"/>
		<g>
			<path d="M33.317,1025.549c-0.031,0.303-0.119,0.521-0.262,0.66s-0.324,0.207-0.543,0.207c-0.234,0-0.426-0.082-0.574-0.246
				s-0.223-0.439-0.223-0.824v-0.898c1.266-0.484,2.029-0.857,2.289-1.117s0.391-0.525,0.391-0.797c0-0.381-0.152-0.709-0.457-0.984
				s-0.736-0.414-1.293-0.414c-0.588,0-1.156,0.135-1.703,0.406v0.234c0,0.381-0.074,0.652-0.223,0.816s-0.342,0.246-0.582,0.246
				c-0.234,0-0.426-0.08-0.574-0.242s-0.223-0.436-0.223-0.82v-1.289c0.818-0.385,1.453-0.641,1.906-0.766s0.922-0.188,1.406-0.188
				c1.01,0,1.82,0.291,2.43,0.875s0.914,1.314,0.914,2.195c0,0.625-0.184,1.156-0.551,1.594S34.369,1025.086,33.317,1025.549z
				 M33.653,1028.643c0,0.244-0.088,0.443-0.262,0.598s-0.465,0.23-0.871,0.23s-0.697-0.076-0.871-0.23s-0.262-0.354-0.262-0.598
				s0.086-0.443,0.258-0.598s0.463-0.23,0.875-0.23c0.406,0,0.697,0.076,0.871,0.23S33.653,1028.398,33.653,1028.643z"/>
		</g>
	</g>
	<g>
		
			<rect x="133.187" y="166.186" transform="matrix(-0.7071 -0.7071 0.7071 -0.7071 121.1659 405.1885)" fill="#DDDDDD" stroke="#000000" stroke-width="2" stroke-miterlimit="10" width="22.627" height="22.627"/>
		<g>
			<path d="M145.317,178.547c-0.031,0.302-0.119,0.522-0.262,0.66s-0.324,0.207-0.543,0.207c-0.234,0-0.426-0.082-0.574-0.246
				s-0.223-0.439-0.223-0.824v-0.898c1.266-0.484,2.029-0.857,2.289-1.117s0.391-0.526,0.391-0.797c0-0.38-0.152-0.708-0.457-0.984
				s-0.736-0.414-1.293-0.414c-0.588,0-1.156,0.135-1.703,0.406v0.234c0,0.38-0.074,0.652-0.223,0.816s-0.342,0.246-0.582,0.246
				c-0.234,0-0.426-0.081-0.574-0.242s-0.223-0.435-0.223-0.82v-1.289c0.818-0.385,1.453-0.641,1.906-0.766s0.922-0.188,1.406-0.188
				c1.01,0,1.82,0.292,2.43,0.875s0.914,1.315,0.914,2.195c0,0.625-0.184,1.156-0.551,1.594S146.369,178.083,145.317,178.547z
				 M145.653,181.641c0,0.245-0.087,0.444-0.262,0.598s-0.465,0.23-0.871,0.23s-0.697-0.077-0.871-0.23s-0.262-0.353-0.262-0.598
				s0.086-0.444,0.258-0.598s0.463-0.23,0.875-0.23c0.406,0,0.697,0.077,0.871,0.23S145.653,181.396,145.653,181.641z"/>
		</g>
	</g>
	<g>
		
			<rect x="21.187" y="166.186" transform="matrix(-0.7071 -0.7071 0.7071 -0.7071 -70.0301 325.9926)" fill="#DDDDDD" stroke="#000000" stroke-width="2" stroke-miterlimit="10" width="22.627" height="22.627"/>
		<g>
			<path d="M33.317,178.547c-0.031,0.302-0.119,0.522-0.262,0.66s-0.324,0.207-0.543,0.207c-0.234,0-0.426-0.082-0.574-0.246
				s-0.223-0.439-0.223-0.824v-0.898c1.266-0.484,2.029-0.857,2.289-1.117s0.391-0.526,0.391-0.797c0-0.38-0.152-0.708-0.457-0.984
				s-0.736-0.414-1.293-0.414c-0.588,0-1.156,0.135-1.703,0.406v0.234c0,0.38-0.074,0.652-0.223,0.816s-0.342,0.246-0.582,0.246
				c-0.234,0-0.426-0.081-0.574-0.242s-0.223-0.435-0.223-0.82v-1.289c0.818-0.385,1.453-0.641,1.906-0.766s0.922-0.188,1.406-0.188
				c1.01,0,1.82,0.292,2.43,0.875s0.914,1.315,0.914,2.195c0,0.625-0.184,1.156-0.551,1.594S34.369,178.083,33.317,178.547z
				 M33.653,181.641c0,0.245-0.087,0.444-0.262,0.598s-0.465,0.23-0.871,0.23s-0.697-0.077-0.871-0.23s-0.262-0.353-0.262-0.598
				s0.086-0.444,0.258-0.598s0.463-0.23,0.875-0.23c0.406,0,0.697,0.077,0.871,0.23S33.653,181.396,33.653,181.641z"/>
		</g>
	</g>
	<g>
		
			<rect x="21.187" y="21.186" transform="matrix(-0.7071 -0.7071 0.7071 -0.7071 32.5004 78.4621)" fill="#DDDDDD" stroke="#000000" stroke-width="2" stroke-miterlimit="10" width="22.627" height="22.627"/>
		<g>
			<path d="M33.317,33.547c-0.031,0.302-0.119,0.522-0.262,0.66s-0.324,0.207-0.543,0.207c-0.234,0-0.426-0.082-0.574-0.246
				s-0.223-0.439-0.223-0.824v-0.898c1.266-0.484,2.029-0.857,2.289-1.117s0.391-0.526,0.391-0.797c0-0.38-0.152-0.708-0.457-0.984
				s-0.736-0.414-1.293-0.414c-0.588,0-1.156,0.135-1.703,0.406v0.234c0,0.38-0.074,0.652-0.223,0.816s-0.342,0.246-0.582,0.246
				c-0.234,0-0.426-0.081-0.574-0.242s-0.223-0.435-0.223-0.82v-1.289c0.818-0.385,1.453-0.641,1.906-0.766s0.922-0.188,1.406-0.188
				c1.01,0,1.82,0.292,2.43,0.875s0.914,1.315,0.914,2.195c0,0.625-0.184,1.156-0.551,1.594S34.369,33.083,33.317,33.547z
				 M33.653,36.641c0,0.245-0.087,0.444-0.262,0.598s-0.465,0.23-0.871,0.23s-0.697-0.077-0.871-0.23s-0.262-0.353-0.262-0.598
				s0.086-0.444,0.258-0.598s0.463-0.23,0.875-0.23c0.406,0,0.697,0.077,0.871,0.23S33.653,36.396,33.653,36.641z"/>
		</g>
	</g>
</g>
<g id="TEST-controlflow-circle">
	<g>
		<path fill="#BBBBBB" d="M280.5,97.5c0,5.5-4.5,10-10,10h-132c-5.5,0-10-4.5-10-10v-71c0-5.5,4.5-10,10-10h132c5.5,0,10,4.5,10,10
			V97.5z"/>
		<path fill="none" stroke="#000000" stroke-miterlimit="10" d="M280.5,97.5c0,5.5-4.5,10-10,10h-132c-5.5,0-10-4.5-10-10v-71
			c0-5.5,4.5-10,10-10h132c5.5,0,10,4.5,10,10V97.5z"/>
	</g>
	<text id="CONTROL_FLOW__x28_init_x2F_term_x29_" transform="matrix(1 0 0 1 138.4998 28.5)"><tspan x="0" y="0" font-family="'CourierNewPSMT'" font-size="12">CONTROL FLOW </tspan><tspan x="0" y="14.4" font-family="'CourierNewPSMT'" font-size="12">(initial/terminal)</tspan></text>
	<g id="EX_x5F_controlfolw-circle">
		<circle stroke="#000000" stroke-miterlimit="10" cx="182.5" cy="62.5" r="9"/>
		<circle fill="none" stroke="#000000" stroke-miterlimit="10" cx="152.5" cy="74.5" r="9"/>
		<circle stroke="#000000" stroke-miterlimit="10" cx="223.5" cy="80.5" r="9"/>
		<circle fill="#7F7F7F" stroke="#000000" stroke-miterlimit="10" cx="186.5" cy="89.5" r="9"/>
		<circle fill="none" stroke="#000000" stroke-width="4" stroke-miterlimit="10" cx="223.5" cy="80.5" r="18"/>
	</g>
	<rect x="281.5" y="16.5" fill="none" width="232" height="100"/>
	<text transform="matrix(1 0 0 1 281.5002 21.4038)" display="none"><tspan x="0" y="0" display="inline" font-family="'CourierNewPSMT'" font-size="8">Inital and terminal symbol both consist of </tspan><tspan x="0" y="9.6" display="inline" font-family="'CourierNewPSMT'" font-size="8">`circle` elements. Circle elements (filled or </tspan><tspan x="0" y="19.2" display="inline" font-family="'CourierNewPSMT'" font-size="8">unfilled, with stroke or without) are reserved </tspan><tspan x="0" y="28.8" display="inline" font-family="'CourierNewPSMT'" font-size="8">for that purpose.</tspan><tspan x="0" y="48" display="inline" font-family="'CourierNewPSMT'" font-size="8">METADATA {</tspan><tspan x="0" y="57.6" display="inline" font-family="'CourierNewPSMT'" font-size="8">testtype: element_ISCDdetection;</tspan><tspan x="0" y="67.2" display="inline" font-family="'CourierNewPSMT'" font-size="8">expectedresult: CONTROLFLOW;</tspan><tspan x="0" y="76.8" display="inline" font-family="'CourierNewPSMT'" font-size="8">}</tspan></text>
	
		<rect id="BBox" x="136.5" y="47.5" display="none" fill="none" stroke="#E5B7B7" stroke-width="3.559" stroke-linecap="round" stroke-linejoin="round" stroke-miterlimit="10" width="112" height="57"/>
</g>
<g id="TEST-instruction-elements">
	<g>
		<path fill="#BBBBBB" d="M904.349,313.788c0,5.342-4.37,9.712-9.712,9.712H266.212c-5.342,0-9.712-4.37-9.712-9.712V138.212
			c0-5.341,4.37-9.712,9.712-9.712h628.425c5.342,0,9.712,4.371,9.712,9.712V313.788z"/>
		<path fill="none" stroke="#000000" stroke-width="0.9712" stroke-miterlimit="10" d="M904.349,313.788
			c0,5.342-4.37,9.712-9.712,9.712H266.212c-5.342,0-9.712-4.37-9.712-9.712V138.212c0-5.341,4.37-9.712,9.712-9.712h628.425
			c5.342,0,9.712,4.371,9.712,9.712V313.788z"/>
	</g>
	<text transform="matrix(1 0 0 1 266.5002 140.5)" font-family="'CourierNewPSMT'" font-size="12">INSTRUCTION / CUTTING DIE</text>
	<g id="EX-instruction-elements">
		
			<line fill="none" stroke="#000000" stroke-width="8" stroke-linecap="round" stroke-linejoin="round" stroke-miterlimit="10" stroke-dasharray="20,12" x1="355.5" y1="159.5" x2="421.5" y2="261.5"/>
		
			<polyline fill="none" stroke="#000000" stroke-width="8" stroke-linecap="round" stroke-linejoin="round" stroke-miterlimit="10" points="
			858.5,141.5 842.5,165.5 858.5,189.5 		"/>
		
			<polyline fill="none" stroke="#000000" stroke-width="8" stroke-linecap="round" stroke-linejoin="round" stroke-miterlimit="10" points="
			816.5,173.5 792.5,157.5 768.5,173.5 		"/>
		
			<polyline fill="none" stroke="#000000" stroke-width="8" stroke-linecap="round" stroke-linejoin="round" stroke-miterlimit="10" points="
			663.5,189.5 679.5,165.5 663.5,141.5 		"/>
		
			<polyline fill="none" stroke="#000000" stroke-width="8" stroke-linecap="round" stroke-linejoin="round" stroke-miterlimit="10" points="
			705.5,157.5 729.5,173.5 753.5,157.5 		"/>
		
			<line fill="none" stroke="#000000" stroke-width="8" stroke-linecap="round" stroke-linejoin="round" stroke-miterlimit="10" x1="341.5" y1="286.5" x2="452.5" y2="286.5"/>
		
			<line fill="none" stroke="#000000" stroke-width="8" stroke-linecap="round" stroke-linejoin="round" stroke-miterlimit="10" x1="314.5" y1="185" x2="314.5" y2="310.5"/>
		
			<rect x="660.5" y="236.441" stroke="#000000" stroke-width="8" stroke-linecap="round" stroke-linejoin="round" stroke-miterlimit="10" width="29.522" height="29.522"/>
		
			<rect x="709.5" y="222.964" fill="none" stroke="#000000" stroke-width="8" stroke-linecap="round" stroke-linejoin="round" stroke-miterlimit="10" width="29.522" height="29.522"/>
		
			<polygon fill="none" stroke="#000000" stroke-width="8" stroke-linecap="round" stroke-linejoin="round" stroke-miterlimit="10" points="
			711.226,301.5 727.124,273.964 743.023,301.5 		"/>
		<polygon stroke="#000000" stroke-width="8" stroke-linecap="round" stroke-linejoin="round" stroke-miterlimit="10" points="
			746.703,281.5 762.602,253.964 778.5,281.5 		"/>
		
			<polygon fill="none" stroke="#000000" stroke-width="8" stroke-linecap="round" stroke-linejoin="round" stroke-miterlimit="10" points="
			863.5,226.5 847.5,290.5 863.5,274.5 879.5,290.5 		"/>
		
			<path fill="none" stroke="#000000" stroke-width="8" stroke-linecap="round" stroke-linejoin="round" stroke-miterlimit="10" stroke-dasharray="20,12" d="
			M556.5,150.5l-96,57l28.592,34.235c4.445-9.585,14.147-16.235,25.408-16.235c15.464,0,28,12.536,28,28
			c0,13.027-8.897,23.977-20.947,27.103L536.5,298.5l71-18L556.5,150.5z"/>
	</g>
	<rect x="905.5" y="128.5" fill="none" width="229" height="100"/>
	<text transform="matrix(1 0 0 1 905.5002 133.4038)" display="none"><tspan x="0" y="0" display="inline" font-family="'CourierNewPSMT'" font-size="8">Any shape (except for circles) can be an </tspan><tspan x="0" y="9.6" display="inline" font-family="'CourierNewPSMT'" font-size="8">INSTRUCTION element. `stroke-linecap` and </tspan><tspan x="0" y="19.2" display="inline" font-family="'CourierNewPSMT'" font-size="8">`stroke-linejoin` must be set to `round`.</tspan><tspan x="0" y="38.4" display="inline" font-family="'CourierNewPSMT'" font-size="8">METADATA {</tspan><tspan x="0" y="48" display="inline" font-family="'CourierNewPSMT'" font-size="8">testtype: element_ISCDdetection;</tspan><tspan x="0" y="57.6" display="inline" font-family="'CourierNewPSMT'" font-size="8">expectedresult: INSTRUCTION;</tspan><tspan x="0" y="67.2" display="inline" font-family="'CourierNewPSMT'" font-size="8">}</tspan></text>
	
		<rect id="BBox_1_" x="299.5" y="126.5" display="none" fill="none" stroke="#E5B7B7" stroke-width="3.559" stroke-linecap="round" stroke-linejoin="round" stroke-miterlimit="10" width="596" height="200"/>
</g>
<g id="TEST-selector-line">
	<g>
		<path fill="#BBBBBB" d="M944.5,490.5c0,5.5-4.5,10-10,10h-116c-5.5,0-10-4.5-10-10v-112c0-5.5,4.5-10,10-10h116
			c5.5,0,10,4.5,10,10V490.5z"/>
		<path fill="none" stroke="#000000" stroke-miterlimit="10" d="M944.5,490.5c0,5.5-4.5,10-10,10h-116c-5.5,0-10-4.5-10-10v-112
			c0-5.5,4.5-10,10-10h116c5.5,0,10,4.5,10,10V490.5z"/>
	</g>
	<text transform="matrix(1 0 0 1 818.5002 380.5)" font-family="'CourierNewPSMT'" font-size="12">SELECTOR</text>
	<g id="EX-selector-line">
		
			<line fill="none" stroke="#000000" stroke-width="4" stroke-miterlimit="10" stroke-dasharray="12,4" x1="819.5" y1="427.5" x2="882.5" y2="478.5"/>
		
			<line fill="none" stroke="#000000" stroke-width="4" stroke-miterlimit="10" stroke-dasharray="4,12" x1="849.5" y1="427.5" x2="912.5" y2="478.5"/>
		
			<line fill="none" stroke="#000000" stroke-width="4" stroke-miterlimit="10" stroke-dasharray="16,4,4,4" x1="858.148" y1="407.5" x2="933.5" y2="468.5"/>
	</g>
	<rect x="945.5" y="368.5" fill="none" width="229" height="122"/>
	<text transform="matrix(1 0 0 1 945.5002 373.4043)" display="none"><tspan x="0" y="0" display="inline" font-family="'CourierNewPSMT'" font-size="8">Dashed lines with sharp `stroke-linejoin` and </tspan><tspan x="0" y="9.6" display="inline" font-family="'CourierNewPSMT'" font-size="8">`stroke-linecap` (i.e. not set to `round`) are </tspan><tspan x="0" y="19.199" display="inline" font-family="'CourierNewPSMT'" font-size="8">interpretet as SELECTOR. The two left-most </tspan><tspan x="0" y="28.8" display="inline" font-family="'CourierNewPSMT'" font-size="8">patterns connect instructions with selector </tspan><tspan x="0" y="38.399" display="inline" font-family="'CourierNewPSMT'" font-size="8">areas. The right one selects an object to be </tspan><tspan x="0" y="48" display="inline" font-family="'CourierNewPSMT'" font-size="8">used as a parameter.</tspan><tspan x="0" y="67.199" display="inline" font-family="'CourierNewPSMT'" font-size="8">METADATA {</tspan><tspan x="0" y="76.8" display="inline" font-family="'CourierNewPSMT'" font-size="8">testtype: element_ISCDdetection;</tspan><tspan x="0" y="86.399" display="inline" font-family="'CourierNewPSMT'" font-size="8">expectedresult: SELECTOR;</tspan><tspan x="0" y="96" display="inline" font-family="'CourierNewPSMT'" font-size="8">}</tspan></text>
	
		<rect id="BBox_2_" x="809.5" y="392.5" display="none" fill="none" stroke="#E5B7B7" stroke-width="3.559" stroke-linecap="round" stroke-linejoin="round" stroke-miterlimit="10" width="136" height="98"/>
</g>
<g id="TEST-controlflow-curvedpath">
	<g>
		<path fill="#BBBBBB" d="M480.167,770.5c0,5.5-4.5,10-10,10h-116c-5.5,0-10-4.5-10-10v-112c0-5.5,4.5-10,10-10h116
			c5.5,0,10,4.5,10,10V770.5z"/>
		<path fill="none" stroke="#000000" stroke-miterlimit="10" d="M480.167,770.5c0,5.5-4.5,10-10,10h-116c-5.5,0-10-4.5-10-10v-112
			c0-5.5,4.5-10,10-10h116c5.5,0,10,4.5,10,10V770.5z"/>
	</g>
	<text transform="matrix(1 0 0 1 354.5002 660.5)" font-family="'CourierNewPSMT'" font-size="12">CONTROL FLOW</text>
	<g id="EX-controlflow-curvedpath">
		<path fill="none" stroke="#000000" stroke-width="4" stroke-miterlimit="10" d="M361.667,715.742c0,0,18-27,41-30s60,23,60,23"/>
		<path fill="none" stroke="#000000" stroke-width="4" stroke-miterlimit="10" d="M361.667,768.5c50-2,56-35,101-36"/>
	</g>
	<g display="none">
		<g display="inline">
			<line fill="none" stroke="#000000" stroke-width="2" stroke-miterlimit="10" x1="547.5" y1="790.5" x2="546.015" y2="790.288"/>
			
				<line fill="none" stroke="#000000" stroke-width="2" stroke-miterlimit="10" stroke-dasharray="3.0628,3.0628" x1="542.984" y1="789.854" x2="483.858" y2="781.408"/>
			
				<line fill="none" stroke="#000000" stroke-width="2" stroke-miterlimit="10" x1="482.342" y1="781.191" x2="480.857" y2="780.979"/>
			<g>
				<polygon points="488.419,778.204 488.665,779.38 480.973,780.996 487.905,784.702 487.339,785.76 477.5,780.5 				"/>
			</g>
		</g>
	</g>
	<rect x="547.5" y="790.5" fill="none" width="229" height="104"/>
	<text transform="matrix(1 0 0 1 547.5002 795.4043)" display="none"><tspan x="0" y="0" display="inline" font-family="'CourierNewPSMT'" font-size="8">Curved, open, undashed paths are CONTROLFLOW </tspan><tspan x="0" y="9.6" display="inline" font-family="'CourierNewPSMT'" font-size="8">paths. The direction of the flow is defined by </tspan><tspan x="0" y="19.199" display="inline" font-family="'CourierNewPSMT'" font-size="8">the context; i.e. depending on which end the </tspan><tspan x="0" y="28.8" display="inline" font-family="'CourierNewPSMT'" font-size="8">flow enters it can travel any direction on the </tspan><tspan x="0" y="38.399" display="inline" font-family="'CourierNewPSMT'" font-size="8">element.</tspan><tspan x="0" y="57.6" display="inline" font-family="'CourierNewPSMT'" font-size="8">METADATA {</tspan><tspan x="0" y="67.199" display="inline" font-family="'CourierNewPSMT'" font-size="8">testtype: element_ISCDdetection;</tspan><tspan x="0" y="76.8" display="inline" font-family="'CourierNewPSMT'" font-size="8">expectedresult: CONTROLFLOW;</tspan><tspan x="0" y="86.399" display="inline" font-family="'CourierNewPSMT'" font-size="8">}</tspan></text>
	
		<rect id="BBox_4_" x="350.5" y="675.5" display="none" fill="none" stroke="#E5B7B7" stroke-width="3.559" stroke-linecap="round" stroke-linejoin="round" stroke-miterlimit="10" width="123" height="98"/>
</g>
<g id="TEST-controlflow-mulitsegment">
	<g>
		<path fill="#BBBBBB" d="M664.5,770.5c0,5.5-4.5,10-10,10h-132c-5.5,0-10-4.5-10-10v-112c0-5.5,4.5-10,10-10h132
			c5.5,0,10,4.5,10,10V770.5z"/>
		<path fill="none" stroke="#000000" stroke-miterlimit="10" d="M664.5,770.5c0,5.5-4.5,10-10,10h-132c-5.5,0-10-4.5-10-10v-112
			c0-5.5,4.5-10,10-10h132c5.5,0,10,4.5,10,10V770.5z"/>
	</g>
	<text id="CONTROL_FLOW" transform="matrix(1 0 0 1 522.5002 660.5)"><tspan x="0" y="0" font-family="'CourierNewPSMT'" font-size="12">CONTROL FLOW </tspan><tspan x="0" y="14.4" font-family="'CourierNewPSMT'" font-size="12">(alternative/join)</tspan></text>
	<g id="EX-controlflow-mulitsegment">
		<polyline fill="none" stroke="#000000" stroke-width="8" stroke-miterlimit="10" points="568.5,716.5 552.5,740.5 568.5,764.5 		
			"/>
		<polyline fill="none" stroke="#000000" stroke-width="8" stroke-miterlimit="10" points="606.5,692.5 622.5,716.5 606.5,740.5 		
			"/>
	</g>
	<rect x="665.5" y="648.5" fill="none" width="241" height="131"/>
	<text transform="matrix(1 0 0 1 665.5002 653.4043)" display="none"><tspan x="0" y="0" display="inline" font-family="'CourierNewPSMT'" font-size="8">Multi-segment, open `path` and `polyline` elements </tspan><tspan x="0" y="9.6" display="inline" font-family="'CourierNewPSMT'" font-size="8">with sharp edges are considered CONTROLFLOW </tspan><tspan x="0" y="19.199" display="inline" font-family="'CourierNewPSMT'" font-size="8">elements. Typically, this  defines an alternative </tspan><tspan x="0" y="28.8" display="inline" font-family="'CourierNewPSMT'" font-size="8">or a join in the flow.</tspan><tspan x="0" y="48" display="inline" font-family="'CourierNewPSMT'" font-size="8">METADATA {</tspan><tspan x="0" y="57.6" display="inline" font-family="'CourierNewPSMT'" font-size="8">testtype: element_ISCDdetection;</tspan><tspan x="0" y="67.199" display="inline" font-family="'CourierNewPSMT'" font-size="8">expectedresult: CONTROLFLOW;</tspan><tspan x="0" y="76.8" display="inline" font-family="'CourierNewPSMT'" font-size="8">}</tspan></text>
	
		<rect id="BBox_5_" x="518.5" y="677.5" display="none" fill="none" stroke="#E5B7B7" stroke-width="3.559" stroke-linecap="round" stroke-linejoin="round" stroke-miterlimit="10" width="136" height="98"/>
</g>
<g id="TEST-selector-area">
	<g>
		<path fill="#BBBBBB" d="M572.5,973.5c0,5.5-4.5,10-10,10h-140c-5.5,0-10-4.5-10-10v-131c0-5.5,4.5-10,10-10h140
			c5.5,0,10,4.5,10,10V973.5z"/>
		<path fill="none" stroke="#000000" stroke-miterlimit="10" d="M572.5,973.5c0,5.5-4.5,10-10,10h-140c-5.5,0-10-4.5-10-10v-131
			c0-5.5,4.5-10,10-10h140c5.5,0,10,4.5,10,10V973.5z"/>
	</g>
	<text transform="matrix(1 0 0 1 422.5002 844.5)" font-family="'CourierNewPSMT'" font-size="12">SELECTOR (area)</text>
	<g id="EX-selector-area">
		<polygon fill="none" stroke="#000000" stroke-width="4" stroke-miterlimit="10" stroke-dasharray="12,4" points="425.897,892.25 
			442.23,911.5 470.814,908.584 492.98,869.5 		"/>
		
			<rect x="438.938" y="922.5" fill="none" stroke="#000000" stroke-width="4" stroke-miterlimit="10" stroke-dasharray="12,4" width="41" height="45"/>
		<polygon fill="none" stroke="#000000" stroke-width="4" stroke-miterlimit="10" stroke-dasharray="3,7" points="484.417,896.25 
			500.75,915.5 529.334,912.584 551.5,873.5 		"/>
		
			<rect x="497.458" y="926.5" fill="none" stroke="#000000" stroke-width="4" stroke-miterlimit="10" stroke-dasharray="3,7" width="41" height="45"/>
	</g>
	<rect x="573.5" y="905.5" fill="none" width="241" height="77"/>
	<text transform="matrix(1 0 0 1 573.5002 910.4043)" display="none"><tspan x="0" y="0" display="inline" font-family="'CourierNewPSMT'" font-size="8">Closed, unfilled, dashed shapes are considered </tspan><tspan x="0" y="9.6" display="inline" font-family="'CourierNewPSMT'" font-size="8">SELECTOR areas. Neither `stroke-linecap` nor </tspan><tspan x="0" y="19.199" display="inline" font-family="'CourierNewPSMT'" font-size="8">`stroke-linejoin` should be `round`.</tspan><tspan x="0" y="38.399" display="inline" font-family="'CourierNewPSMT'" font-size="8">METADATA {</tspan><tspan x="0" y="48" display="inline" font-family="'CourierNewPSMT'" font-size="8">testtype: element_ISCDdetection;</tspan><tspan x="0" y="57.6" display="inline" font-family="'CourierNewPSMT'" font-size="8">expectedresult: SELECTOR;</tspan><tspan x="0" y="67.199" display="inline" font-family="'CourierNewPSMT'" font-size="8">}</tspan></text>
	
		<rect id="BBox_6_" x="416.5" y="856.5" display="none" fill="none" stroke="#E5B7B7" stroke-width="3.559" stroke-linecap="round" stroke-linejoin="round" stroke-miterlimit="10" width="150" height="124"/>
</g>
<g id="TEST-data-filled-shape">
	<g>
		<path fill="#BBBBBB" d="M328.5,1142.5c0,5.5-4.5,10-10,10h-180c-5.5,0-10-4.5-10-10v-124c0-5.5,4.5-10,10-10h180
			c5.5,0,10,4.5,10,10V1142.5z"/>
		<path fill="none" stroke="#000000" stroke-miterlimit="10" d="M328.5,1142.5c0,5.5-4.5,10-10,10h-180c-5.5,0-10-4.5-10-10v-124
			c0-5.5,4.5-10,10-10h180c5.5,0,10,4.5,10,10V1142.5z"/>
	</g>
	<text transform="matrix(1 0 0 1 138.4998 1020.5)" font-family="'CourierNewPSMT'" font-size="12">DATA / FORM</text>
	<g id="EX-data-filled-shape">
		<polygon stroke="#FFFFFF" stroke-width="4" stroke-miterlimit="10" points="170.897,1074.25 187.23,1093.5 215.814,1090.584 
			237.98,1051.5 		"/>
		<rect x="166.5" y="1082.5" stroke="#FFFFFF" stroke-width="4" stroke-miterlimit="10" width="41" height="45"/>
		<polygon points="229.417,1078.25 245.75,1097.5 274.334,1094.584 296.5,1055.5 		"/>
		<rect x="254.5" y="1083.5" width="41" height="45"/>
	</g>
	<rect x="329.5" y="1008.5" fill="none" width="241" height="131"/>
	<text transform="matrix(1 0 0 1 329.5002 1013.4043)" display="none"><tspan x="0" y="0" display="inline" font-family="'CourierNewPSMT'" font-size="8">Any filled, closed form with or without stroke is </tspan><tspan x="0" y="9.6" display="inline" font-family="'CourierNewPSMT'" font-size="8">considered a DATA element or form. Stroke may be </tspan><tspan x="0" y="19.199" display="inline" font-family="'CourierNewPSMT'" font-size="8">visible but must not be dashed or rounded.</tspan><tspan x="0" y="38.399" display="inline" font-family="'CourierNewPSMT'" font-size="8">METADATA {</tspan><tspan x="0" y="48" display="inline" font-family="'CourierNewPSMT'" font-size="8">testtype: element_ISCDdetection;</tspan><tspan x="0" y="57.6" display="inline" font-family="'CourierNewPSMT'" font-size="8">expectedresult: DATA;</tspan><tspan x="0" y="67.199" display="inline" font-family="'CourierNewPSMT'" font-size="8">}</tspan></text>
	
		<rect id="BBox_7_" x="151.5" y="1028.5" display="none" fill="none" stroke="#E5B7B7" stroke-width="3.559" stroke-linecap="round" stroke-linejoin="round" stroke-miterlimit="10" width="162" height="119"/>
</g>
<g id="SECTIONINFO" display="none">
	<rect x="608.5" y="966.25" display="inline" fill="none" width="331" height="141.25"/>
	<text transform="matrix(1 0 0 1 608.5002 973.6055)" display="inline"><tspan x="0" y="0" font-family="'CourierNewPSMT'" font-size="12">+ How does clip_8 interpret graphics </tspan><tspan x="0" y="14.4" font-family="'CourierNewPSMT'" font-size="12">elements, depending on their type, style and </tspan><tspan x="0" y="28.801" font-family="'CourierNewPSMT'" font-size="12">shape?</tspan></text>
	<g id="I" display="inline">
		<path fill="none" stroke="#990000" stroke-width="14.6801" stroke-miterlimit="10" d="M35.58,490.51
			c0,0,66.061-99.091,150.471-110.102c84.41-11.009,220.201,84.411,220.201,84.411"/>
		<polyline fill="none" stroke="#990000" stroke-width="29.3602" stroke-miterlimit="10" points="692.846,464.328 634.123,552.408 
			692.846,640.489 		"/>
		<g>
			<g>
				
					<line fill="none" stroke="#990000" stroke-width="14.6801" stroke-miterlimit="10" x1="503.715" y1="827.313" x2="520.83" y2="841.169"/>
				
					<line fill="none" stroke="#990000" stroke-width="14.6801" stroke-miterlimit="10" stroke-dasharray="44.7242,14.9081" x1="532.417" y1="850.549" x2="712.02" y2="995.94"/>
				
					<line fill="none" stroke="#990000" stroke-width="14.6801" stroke-miterlimit="10" x1="717.813" y1="1000.63" x2="734.928" y2="1014.485"/>
			</g>
		</g>
		<g>
			<g>
				
					<line fill="none" stroke="#990000" stroke-width="29.3602" stroke-linecap="round" stroke-linejoin="round" x1="634.278" y1="-13.5" x2="654.215" y2="17.313"/>
				
					<line fill="none" stroke="#990000" stroke-width="29.3602" stroke-linecap="round" stroke-linejoin="round" stroke-dasharray="68.9765,41.386" x1="676.698" y1="52.059" x2="845.322" y2="312.656"/>
				
					<line fill="none" stroke="#990000" stroke-width="29.3602" stroke-linecap="round" stroke-linejoin="round" x1="856.563" y1="330.029" x2="876.5" y2="360.842"/>
			</g>
		</g>
		
			<polygon fill="none" stroke="#990000" stroke-width="29.3602" stroke-linecap="round" stroke-linejoin="round" stroke-miterlimit="10" points="
			412.784,12.918 354.064,247.799 412.784,189.079 471.503,247.799 		"/>
		<circle fill="#990000" stroke="#990000" stroke-width="3.67" stroke-miterlimit="10" cx="117.818" cy="41.351" r="33.03"/>
		<circle fill="none" stroke="#990000" stroke-width="14.6801" stroke-miterlimit="10" cx="117.818" cy="41.351" r="66.06"/>
		
			<polygon fill="none" stroke="#990000" stroke-width="14.6801" stroke-miterlimit="10" stroke-dasharray="44.0403,14.6801" points="
			82.061,1051.006 9.019,860.652 159.531,738.916 327.75,747.77 183.878,873.934 285.696,1066.5 		"/>
	</g>
</g>
</svg>
