<?xml version="1.0" encoding="utf-8"?>
<!-- Generator: Adobe Illustrator 15.0.0, SVG Export Plug-In . SVG Version: 6.00 Build 0)  -->
<!DOCTYPE svg PUBLIC "-//W3C//DTD SVG 1.1//EN" "http://www.w3.org/Graphics/SVG/1.1/DTD/svg11.dtd">
<svg version="1.1" xmlns="http://www.w3.org/2000/svg" xmlns:xlink="http://www.w3.org/1999/xlink" x="0px" y="0px" width="992px"
	 height="1264px" viewBox="-31.5 -95.5 992 1264" enable-background="new -31.5 -95.5 992 1264" xml:space="preserve">
<g id="Ebene_3" display="none">
	
		<rect x="21.187" y="166.186" transform="matrix(-0.7071 -0.7071 0.7071 -0.7071 -70.0301 325.9926)" display="inline" fill="#DDDDDD" stroke="#000000" stroke-width="2" stroke-miterlimit="10" width="22.627" height="22.627"/>
	
		<rect x="21.187" y="21.186" transform="matrix(-0.7071 -0.7071 0.7071 -0.7071 32.5004 78.4621)" display="inline" fill="#DDDDDD" stroke="#000000" stroke-width="2" stroke-miterlimit="10" width="22.627" height="22.627"/>
	
		<rect x="133.187" y="166.186" transform="matrix(-0.7071 -0.7071 0.7071 -0.7071 121.1659 405.1885)" display="inline" fill="#DDDDDD" stroke="#000000" stroke-width="2" stroke-miterlimit="10" width="22.627" height="22.627"/>
	
		<rect x="21.187" y="997.186" transform="matrix(-0.7071 -0.7071 0.7071 -0.7071 -657.6358 1744.5984)" display="inline" fill="#DDDDDD" stroke="#000000" stroke-width="2" stroke-miterlimit="10" width="22.627" height="22.627"/>
	
		<rect x="701.187" y="373.186" transform="matrix(-0.7071 -0.7071 0.7071 -0.7071 944.4315 1160.1963)" display="inline" fill="#DDDDDD" stroke="#000000" stroke-width="2" stroke-miterlimit="10" width="22.627" height="22.627"/>
	
		<rect x="525.187" y="541.186" transform="matrix(-0.7071 -0.7071 0.7071 -0.7071 525.1867 1322.5394)" display="inline" fill="#DDDDDD" stroke="#000000" stroke-width="2" stroke-miterlimit="10" width="22.627" height="22.627"/>
	
		<rect x="245.187" y="837.186" transform="matrix(-0.7071 -0.7071 0.7071 -0.7071 -162.1068 1629.8531)" display="inline" fill="#DDDDDD" stroke="#000000" stroke-width="2" stroke-miterlimit="10" width="22.627" height="22.627"/>
	
		<rect x="133.187" y="373.186" transform="matrix(-0.7071 -0.7071 0.7071 -0.7071 -25.2052 758.5597)" display="inline" fill="#DDDDDD" stroke="#000000" stroke-width="2" stroke-miterlimit="10" width="22.627" height="22.627"/>
	
		<rect x="133.187" y="541.186" transform="matrix(-0.7071 -0.7071 0.7071 -0.7071 -143.9991 1045.3535)" display="inline" fill="#DDDDDD" stroke="#000000" stroke-width="2" stroke-miterlimit="10" width="22.627" height="22.627"/>
	
		<rect x="357.187" y="541.186" transform="matrix(-0.7071 -0.7071 0.7071 -0.7071 238.3928 1203.7455)" display="inline" fill="#DDDDDD" stroke="#000000" stroke-width="2" stroke-miterlimit="10" width="22.627" height="22.627"/>
	
		<rect x="245.187" y="541.186" transform="matrix(-0.7071 -0.7071 0.7071 -0.7071 47.1968 1124.5496)" display="inline" fill="#DDDDDD" stroke="#000000" stroke-width="2" stroke-miterlimit="10" width="22.627" height="22.627"/>
	
		<rect x="525.187" y="453.186" transform="matrix(-0.7071 -0.7071 0.7071 -0.7071 587.4121 1172.314)" display="inline" fill="#DDDDDD" stroke="#000000" stroke-width="2" stroke-miterlimit="10" width="22.627" height="22.627"/>
	
		<rect x="133.187" y="453.186" transform="matrix(-0.7071 -0.7071 0.7071 -0.7071 -81.7737 895.1282)" display="inline" fill="#DDDDDD" stroke="#000000" stroke-width="2" stroke-miterlimit="10" width="22.627" height="22.627"/>
	
		<rect x="133.187" y="629.186" transform="matrix(-0.7071 -0.7071 0.7071 -0.7071 -206.2245 1195.579)" display="inline" fill="#DDDDDD" stroke="#000000" stroke-width="2" stroke-miterlimit="10" width="22.627" height="22.627"/>
	
		<rect x="133.187" y="717.186" transform="matrix(-0.7071 -0.7071 0.7071 -0.7071 -268.4491 1345.8047)" display="inline" fill="#DDDDDD" stroke="#000000" stroke-width="2" stroke-miterlimit="10" width="22.627" height="22.627"/>
</g>
<g id="svg2" sodipodi:docname="ControlFlow-positiveExamples_inkscape.svg" inkscape:version="0.91 r13725" xmlns:svg="http://www.w3.org/2000/svg" xmlns:sodipodi="http://sodipodi.sourceforge.net/DTD/sodipodi-0.dtd" xmlns:cc="http://creativecommons.org/ns#" xmlns:rdf="http://www.w3.org/1999/02/22-rdf-syntax-ns#" xmlns:inkscape="http://www.inkscape.org/namespaces/inkscape" xmlns:dc="http://purl.org/dc/elements/1.1/">
	<g>
		<g>
			<line fill="none" stroke="#000000" stroke-miterlimit="10" x1="56.5" y1="177.5" x2="117.674" y2="177.5"/>
			<g>
				<polygon points="111.763,180.681 111.421,179.74 117.576,177.5 111.421,175.26 111.763,174.32 120.5,177.5 				"/>
			</g>
		</g>
	</g>
	<g>
		<g>
			<line fill="none" stroke="#000000" stroke-miterlimit="10" x1="168.5" y1="464.502" x2="509.674" y2="464.502"/>
			<g>
				<polygon points="503.764,467.684 503.422,466.742 509.576,464.502 503.422,462.262 503.764,461.322 512.5,464.502 				"/>
			</g>
		</g>
	</g>
	<g>
		<g>
			<line fill="none" stroke="#000000" stroke-miterlimit="10" x1="32.5" y1="984.5" x2="32.5" y2="204.326"/>
			<g>
				<polygon points="35.681,210.237 34.74,210.579 32.5,204.423 30.26,210.579 29.321,210.237 32.5,201.5 				"/>
			</g>
		</g>
	</g>
	<g>
		<text transform="matrix(1 0 0 1 64.5002 161.5)"><tspan x="0" y="0" font-family="'CourierNewPSMT'" font-size="12">has </tspan><tspan x="0" y="12" font-family="'CourierNewPSMT'" font-size="12">stroke</tspan></text>
	</g>
	<g>
		<g>
			<line fill="none" stroke="#000000" stroke-miterlimit="10" x1="56.5" y1="1008.5" x2="117.674" y2="1008.5"/>
			<g>
				<polygon points="111.763,1011.682 111.421,1010.74 117.576,1008.5 111.421,1006.26 111.763,1005.32 120.5,1008.5 				"/>
			</g>
		</g>
	</g>
	<g>
		<text transform="matrix(1 0 0 1 64.5002 992.501)"><tspan x="0" y="0" font-family="'CourierNewPSMT'" font-size="12">has </tspan><tspan x="0" y="12" font-family="'CourierNewPSMT'" font-size="12">fill</tspan></text>
	</g>
	<g>
		<text transform="matrix(1 0 0 1 38.5002 217.5)"><tspan x="0" y="0" font-family="'CourierNewPSMT'" font-size="12">no </tspan><tspan x="0" y="12" font-family="'CourierNewPSMT'" font-size="12">stroke</tspan></text>
	</g>
	<g>
		<g>
			<line fill="none" stroke="#000000" stroke-miterlimit="10" x1="32.5" y1="1032.5" x2="32.5" y2="1093.674"/>
			<g>
				<polygon points="29.32,1087.764 30.26,1087.422 32.5,1093.576 34.74,1087.422 35.68,1087.764 32.5,1096.5 				"/>
			</g>
		</g>
	</g>
	<g>
		<text transform="matrix(1 0 0 1 38.5002 1048.501)"><tspan x="0" y="0" font-family="'CourierNewPSMT'" font-size="12">no </tspan><tspan x="0" y="12" font-family="'CourierNewPSMT'" font-size="12">fill</tspan></text>
	</g>
	<g>
		<g>
			<line fill="none" stroke="#000000" stroke-miterlimit="10" x1="736.5" y1="384.5" x2="797.174" y2="384.5"/>
			<g>
				<polygon points="791.264,387.682 790.922,386.74 797.076,384.5 790.922,382.26 791.264,381.32 800,384.5 				"/>
			</g>
		</g>
	</g>
	<g>
		<text transform="matrix(1 0 0 1 744.0002 368.5)"><tspan x="0" y="0" font-family="'CourierNewPSMT'" font-size="12">is </tspan><tspan x="0" y="12" font-family="'CourierNewPSMT'" font-size="12">dashed</tspan></text>
	</g>
	<g>
		<g>
			<line fill="none" stroke="#000000" stroke-miterlimit="10" x1="712.5" y1="408.5" x2="712.5" y2="469.674"/>
			<g>
				<polygon points="709.32,463.764 710.26,463.422 712.5,469.576 714.74,463.422 715.68,463.764 712.5,472.5 				"/>
			</g>
		</g>
	</g>
	<g>
		<text transform="matrix(1 0 0 1 718.5002 424.5)"><tspan x="0" y="0" font-family="'CourierNewPSMT'" font-size="12">is </tspan><tspan x="0" y="12" font-family="'CourierNewPSMT'" font-size="12">continuous</tspan></text>
	</g>
	<g>
		<g>
			<line fill="none" stroke="#000000" stroke-miterlimit="10" x1="560.5" y1="552.5" x2="621.674" y2="552.5"/>
			<g>
				<polygon points="615.764,555.682 615.422,554.74 621.576,552.5 615.422,550.26 615.764,549.32 624.5,552.5 				"/>
			</g>
		</g>
	</g>
	<g>
		<text transform="matrix(1 0 0 1 568.5002 536.5)"><tspan x="0" y="0" font-family="'CourierNewPSMT'" font-size="12">is </tspan><tspan x="0" y="12" font-family="'CourierNewPSMT'" font-size="12">dashed</tspan></text>
	</g>
	<g>
		<g>
			<line fill="none" stroke="#000000" stroke-miterlimit="10" x1="536.5" y1="576.5" x2="536.5" y2="637.674"/>
			<g>
				<polygon points="533.32,631.764 534.26,631.422 536.5,637.576 538.74,631.422 539.68,631.764 536.5,640.5 				"/>
			</g>
		</g>
	</g>
	<g>
		<text transform="matrix(1 0 0 1 542.5002 592.5)"><tspan x="0" y="0" font-family="'CourierNewPSMT'" font-size="12">is </tspan><tspan x="0" y="12" font-family="'CourierNewPSMT'" font-size="12">continuous</tspan></text>
	</g>
	<g>
		<g>
			<line fill="none" stroke="#000000" stroke-miterlimit="10" x1="280.5" y1="848.5" x2="341.674" y2="848.5"/>
			<g>
				<polygon points="335.764,851.682 335.422,850.74 341.576,848.5 335.422,846.26 335.764,845.32 344.5,848.5 				"/>
			</g>
		</g>
	</g>
	<g>
		<text transform="matrix(1 0 0 1 288.5002 832.501)"><tspan x="0" y="0" font-family="'CourierNewPSMT'" font-size="12">is </tspan><tspan x="0" y="12" font-family="'CourierNewPSMT'" font-size="12">dashed</tspan></text>
	</g>
	<g>
		<text transform="matrix(1 0 0 1 262.5002 888.501)"><tspan x="0" y="0" font-family="'CourierNewPSMT'" font-size="12">is </tspan><tspan x="0" y="12" font-family="'CourierNewPSMT'" font-size="12">continuous</tspan></text>
	</g>
	<g>
		<g>
			<line fill="none" stroke="#000000" stroke-miterlimit="10" x1="56.5" y1="32.5" x2="117.674" y2="32.5"/>
			<g>
				<polygon points="111.763,35.681 111.421,34.74 117.576,32.5 111.421,30.26 111.763,29.32 120.5,32.5 				"/>
			</g>
		</g>
	</g>
	<text transform="matrix(1 0 0 1 64.5002 28.5)" font-family="'CourierNewPSMT'" font-size="12">circle</text>
	<g>
		<g>
			<line fill="none" stroke="#000000" stroke-miterlimit="10" x1="168.5" y1="384.5" x2="685.674" y2="384.5"/>
			<g>
				<polygon points="679.764,387.682 679.422,386.74 685.576,384.5 679.422,382.26 679.764,381.32 688.5,384.5 				"/>
			</g>
		</g>
	</g>
	<text transform="matrix(1 0 0 1 176.5002 380.5)" font-family="'CourierNewPSMT'" font-size="12">line</text>
	<g>
		<g>
			<line fill="none" stroke="#000000" stroke-miterlimit="10" x1="32.5" y1="56.5" x2="32.5" y2="150.674"/>
			<g>
				<polygon points="29.32,144.763 30.26,144.421 32.5,150.577 34.74,144.421 35.68,144.763 32.5,153.5 				"/>
			</g>
		</g>
	</g>
	<text transform="matrix(1 0 0 1 36.5002 72.5)" font-family="'CourierNewPSMT'" font-size="12">(other)</text>
	<g>
		<g>
			<line fill="none" stroke="#000000" stroke-miterlimit="10" x1="168.5" y1="552.5" x2="229.674" y2="552.5"/>
			<g>
				<polygon points="223.763,555.682 223.421,554.74 229.576,552.5 223.421,550.26 223.763,549.32 232.5,552.5 				"/>
			</g>
		</g>
	</g>
	<text transform="matrix(1 0 0 1 176.5002 548.5)" font-family="'CourierNewPSMT'" font-size="12">path</text>
	<g>
		<g>
			<line fill="none" stroke="#000000" stroke-miterlimit="10" x1="280.5" y1="552.5" x2="341.674" y2="552.5"/>
			<g>
				<polygon points="335.763,555.682 335.421,554.74 341.576,552.5 335.421,550.26 335.763,549.32 344.5,552.5 				"/>
			</g>
		</g>
	</g>
	<text transform="matrix(1 0 0 1 400.5002 548.5)" font-family="'CourierNewPSMT'" font-size="12">straight</text>
	<g>
		<g>
			<line fill="none" stroke="#000000" stroke-miterlimit="10" x1="368.5" y1="576.5" x2="368.5" y2="630.674"/>
			<g>
				<polygon points="365.32,624.764 366.26,624.422 368.5,630.576 370.74,624.422 371.68,624.764 368.5,633.5 				"/>
			</g>
		</g>
	</g>
	<text transform="matrix(1 0 0 1 372.5002 592.5)" font-family="'CourierNewPSMT'" font-size="12">curved</text>
	<g>
		<g>
			<path fill="none" stroke="#000000" stroke-miterlimit="10" d="M392.5,552.5h70c5.5,0,10-4.5,10-10v-68c0-5.5,4.5-10,10-10h27.174
				"/>
			<g>
				<polygon points="503.764,467.682 503.422,466.74 509.576,464.5 503.422,462.26 503.764,461.32 512.5,464.5 				"/>
			</g>
		</g>
	</g>
	<text transform="matrix(1 0 0 1 288.5002 548.5)" font-family="'CourierNewPSMT'" font-size="12">open</text>
	<g>
		<g>
			<path fill="none" stroke="#000000" stroke-miterlimit="10" d="M256.5,872.5v61c0,5.5-4.5,10-10,10h-204c-5.5,0-10,4.5-10,10
				v28.174"/>
			<g>
				<polygon points="29.32,975.764 30.26,975.422 32.5,981.576 34.74,975.422 35.68,975.764 32.5,984.5 				"/>
			</g>
		</g>
	</g>
	<text transform="matrix(1 0 0 1 260.5002 592.5)" font-family="'CourierNewPSMT'" font-size="12">closed</text>
	<g>
		<text transform="matrix(1 0 0 1 568.0002 448.5)"><tspan x="0" y="0" font-family="'CourierNewPSMT'" font-size="12">one </tspan><tspan x="0" y="12" font-family="'CourierNewPSMT'" font-size="12">segment</tspan></text>
	</g>
	<g>
		<g>
			<line fill="none" stroke="#000000" stroke-miterlimit="10" x1="536.5" y1="488.5" x2="536.5" y2="525.674"/>
			<g>
				<polygon points="533.32,519.764 534.26,519.422 536.5,525.576 538.74,519.422 539.68,519.764 536.5,528.5 				"/>
			</g>
		</g>
	</g>
	<g>
		<g>
			<path fill="none" stroke="#000000" stroke-miterlimit="10" d="M560.5,464.5h78c5.5,0,10-4.5,10-10v-60c0-5.5,4.5-10,10-10h27.174
				"/>
			<g>
				<polygon points="679.764,387.682 679.422,386.74 685.576,384.5 679.422,382.26 679.764,381.32 688.5,384.5 				"/>
			</g>
		</g>
	</g>
	<g>
		<text transform="matrix(1 0 0 1 176.5002 460.5)" font-family="'CourierNewPSMT'" font-size="12">polyline</text>
	</g>
	<g>
		<g>
			<line fill="none" stroke="#000000" stroke-miterlimit="10" x1="144.5" y1="408.5" x2="144.5" y2="437.674"/>
			<g>
				<polygon points="141.32,431.764 142.26,431.422 144.5,437.576 146.74,431.422 147.68,431.764 144.5,440.5 				"/>
			</g>
		</g>
	</g>
	<g>
		<text transform="matrix(1 0 0 1 89.092 424.5)" font-family="'CourierNewPSMT'" font-size="12">(other)</text>
	</g>
	<g>
		<g>
			<line fill="none" stroke="#000000" stroke-miterlimit="10" x1="144.5" y1="488.5" x2="144.5" y2="525.674"/>
			<g>
				<polygon points="141.32,519.764 142.26,519.422 144.5,525.576 146.74,519.422 147.68,519.764 144.5,528.5 				"/>
			</g>
		</g>
	</g>
	<g>
		<text transform="matrix(1 0 0 1 89.092 504.5)" font-family="'CourierNewPSMT'" font-size="12">(other)</text>
	</g>
	<g>
		<g>
			<path fill="none" stroke="#000000" stroke-miterlimit="10" d="M168.5,640.5h78c5.5,0,10,4.5,10,10v171.174"/>
			<g>
				<polygon points="253.32,815.764 254.26,815.422 256.5,821.576 258.74,815.422 259.68,815.764 256.5,824.5 				"/>
			</g>
		</g>
	</g>
	<text transform="matrix(1 0 0 1 176.5002 636.5)" font-family="'CourierNewPSMT'" font-size="12">polygon</text>
	<g>
		<g>
			<line fill="none" stroke="#000000" stroke-miterlimit="10" x1="144.5" y1="576.5" x2="144.5" y2="613.674"/>
			<g>
				<polygon points="141.32,607.764 142.26,607.422 144.5,613.576 146.74,607.422 147.68,607.764 144.5,616.5 				"/>
			</g>
		</g>
	</g>
	<g>
		<text transform="matrix(1 0 0 1 89.092 592.5)" font-family="'CourierNewPSMT'" font-size="12">(other)</text>
	</g>
	<g>
		<g>
			<path fill="none" stroke="#000000" stroke-miterlimit="10" d="M168.501,728.5h78c5.5,0,10,4.5,10,10v83.174"/>
			<g>
				<polygon points="253.32,815.764 254.26,815.422 256.5,821.576 258.74,815.422 259.68,815.764 256.5,824.5 				"/>
			</g>
		</g>
	</g>
	<text transform="matrix(1 0 0 1 176.5007 724.5)" font-family="'CourierNewPSMT'" font-size="12">rect</text>
	<g>
		<g>
			<line fill="none" stroke="#000000" stroke-miterlimit="10" x1="144.501" y1="664.5" x2="144.501" y2="701.674"/>
			<g>
				<polygon points="141.32,695.764 142.26,695.422 144.501,701.576 146.741,695.422 147.68,695.764 144.501,704.5 				"/>
			</g>
		</g>
	</g>
	<g>
		<text transform="matrix(1 0 0 1 89.0925 680.5)" font-family="'CourierNewPSMT'" font-size="12">(other)</text>
	</g>
	<g>
		<g>
			<line fill="none" stroke="#000000" stroke-miterlimit="10" x1="144.5" y1="752.5" x2="144.5" y2="789.674"/>
			<g>
				<polygon points="141.32,783.764 142.26,783.422 144.5,789.576 146.74,783.422 147.68,783.764 144.5,792.5 				"/>
			</g>
		</g>
	</g>
	<g>
		<text transform="matrix(1 0 0 1 89.092 768.5)" font-family="'CourierNewPSMT'" font-size="12">(other)</text>
	</g>
	<g>
		<text transform="matrix(1 0 0 1 541.5002 504.5)" font-family="'CourierNewPSMT'" font-size="12">multi-segment</text>
	</g>
	<g>
		<g>
			<line fill="none" stroke="#000000" stroke-miterlimit="10" x1="144.5" y1="201.5" x2="144.5" y2="357.674"/>
			<g>
				<polygon points="141.32,351.764 142.26,351.422 144.5,357.576 146.74,351.422 147.68,351.764 144.5,360.5 				"/>
			</g>
		</g>
	</g>
	<g>
		<text transform="matrix(1 0 0 1 148.5002 217.5)"><tspan x="0" y="0" font-family="'CourierNewPSMT'" font-size="12">has hard </tspan><tspan x="0" y="12" font-family="'CourierNewPSMT'" font-size="12">edge+cap</tspan></text>
	</g>
	<g>
		<g>
			<line fill="none" stroke="#000000" stroke-miterlimit="10" x1="168.5" y1="177.5" x2="245.674" y2="177.5"/>
			<g>
				<polygon points="239.764,180.681 239.422,179.74 245.576,177.5 239.422,175.26 239.764,174.32 248.5,177.5 				"/>
			</g>
		</g>
	</g>
	<text transform="matrix(1 0 0 1 176.5002 161.5)"><tspan x="0" y="0" font-family="'CourierNewPSMT'" font-size="12">has round  </tspan><tspan x="0" y="12" font-family="'CourierNewPSMT'" font-size="12">edge+cap</tspan></text>
	<g>
		<path fill="#BBBBBB" d="M944.5,490.5c0,5.5-4.5,10-10,10h-116c-5.5,0-10-4.5-10-10v-112c0-5.5,4.5-10,10-10h116
			c5.5,0,10,4.5,10,10V490.5z"/>
		<path fill="none" stroke="#000000" stroke-miterlimit="10" d="M944.5,490.5c0,5.5-4.5,10-10,10h-116c-5.5,0-10-4.5-10-10v-112
			c0-5.5,4.5-10,10-10h116c5.5,0,10,4.5,10,10V490.5z"/>
	</g>
	<text transform="matrix(1 0 0 1 818.5002 380.5)"><tspan x="0" y="0" font-family="'CourierNewPSMT'" font-size="12">SELECTOR</tspan><tspan x="0" y="14.4" font-family="'CourierNewPSMT'" font-size="12">or parameter</tspan></text>
	<g>
		<path fill="#BBBBBB" d="M664.5,770.5c0,5.5-4.5,10-10,10h-132c-5.5,0-10-4.5-10-10v-112c0-5.5,4.5-10,10-10h132
			c5.5,0,10,4.5,10,10V770.5z"/>
		<path fill="none" stroke="#000000" stroke-miterlimit="10" d="M664.5,770.5c0,5.5-4.5,10-10,10h-132c-5.5,0-10-4.5-10-10v-112
			c0-5.5,4.5-10,10-10h132c5.5,0,10,4.5,10,10V770.5z"/>
	</g>
	<text transform="matrix(1 0 0 1 522.5002 660.5)"><tspan x="0" y="0" font-family="'CourierNewPSMT'" font-size="12">CONTROL FLOW </tspan><tspan x="0" y="14.4" font-family="'CourierNewPSMT'" font-size="12">(alternative/join)</tspan></text>
	<polygon fill="#FFBC00" stroke="#000000" stroke-miterlimit="10" points="40.423,1105.5 29.149,1105.5 26.234,1114.426 
		29.097,1114.426 24.5,1128.5 36.338,1113.758 33.794,1113.758 	"/>
	<polygon fill="#FFBC00" stroke="#000000" stroke-miterlimit="10" points="720.274,480.5 709,480.5 706.084,489.426 
		708.948,489.426 704.351,503.5 716.189,488.758 713.645,488.758 	"/>
	<polygon fill="#FFBC00" stroke="#000000" stroke-miterlimit="10" points="151.5,801.5 140.227,801.5 137.311,810.426 
		140.174,810.426 135.577,824.5 147.415,809.758 144.871,809.758 	"/>
	<polygon fill="#FFBC00" stroke="#000000" stroke-miterlimit="10" points="646.69,543.574 635.416,543.574 632.5,552.5 
		635.364,552.5 630.767,566.574 642.605,551.832 640.061,551.832 	"/>
	<g>
		<g>
			<line fill="none" stroke="#000000" stroke-miterlimit="10" x1="256.5" y1="576.5" x2="256.5" y2="821.674"/>
			<g>
				<polygon points="253.32,815.764 254.26,815.422 256.5,821.576 258.74,815.422 259.68,815.764 256.5,824.5 				"/>
			</g>
		</g>
	</g>
	<g>
		<path fill="#BBBBBB" d="M480.167,770.5c0,5.5-4.5,10-10,10h-116c-5.5,0-10-4.5-10-10v-112c0-5.5,4.5-10,10-10h116
			c5.5,0,10,4.5,10,10V770.5z"/>
		<path fill="none" stroke="#000000" stroke-miterlimit="10" d="M480.167,770.5c0,5.5-4.5,10-10,10h-116c-5.5,0-10-4.5-10-10v-112
			c0-5.5,4.5-10,10-10h116c5.5,0,10,4.5,10,10V770.5z"/>
	</g>
	<text transform="matrix(1 0 0 1 354.5002 660.5)" font-family="'CourierNewPSMT'" font-size="12">CONTROL FLOW</text>
	<path fill="none" stroke="#000000" stroke-width="4" stroke-miterlimit="10" d="M361.667,715.742c0,0,18-27,41-30s60,23,60,23"/>
	<path fill="none" stroke="#000000" stroke-width="4" stroke-miterlimit="10" d="M361.667,768.5c50-2,56-35,101-36"/>
	<polyline fill="none" stroke="#000000" stroke-width="8" stroke-miterlimit="10" points="568.5,716.5 552.5,740.5 568.5,764.5 	"/>
	<polyline fill="none" stroke="#000000" stroke-width="8" stroke-miterlimit="10" points="606.5,692.5 622.5,716.5 606.5,740.5 	"/>
	<g>
		<g>
			<line fill="none" stroke="#000000" stroke-width="4" stroke-miterlimit="10" x1="819.5" y1="427.5" x2="824.163" y2="431.275"/>
			
				<line fill="none" stroke="#000000" stroke-width="4" stroke-miterlimit="10" stroke-dasharray="12.1863,4.0621" x1="827.321" y1="433.832" x2="876.258" y2="473.447"/>
			<line fill="none" stroke="#000000" stroke-width="4" stroke-miterlimit="10" x1="877.837" y1="474.725" x2="882.5" y2="478.5"/>
		</g>
	</g>
	<g>
		<g>
			<line fill="none" stroke="#000000" stroke-width="4" stroke-miterlimit="10" x1="849.5" y1="427.5" x2="851.055" y2="428.76"/>
			
				<line fill="none" stroke="#000000" stroke-width="4" stroke-miterlimit="10" stroke-dasharray="4.0556,12.1667" x1="860.511" y1="436.414" x2="906.217" y2="473.414"/>
			<line fill="none" stroke="#000000" stroke-width="4" stroke-miterlimit="10" x1="910.946" y1="477.242" x2="912.5" y2="478.5"/>
		</g>
	</g>
	<g>
		<g>
			
				<line fill="none" stroke="#000000" stroke-width="4" stroke-miterlimit="10" x1="858.148" y1="407.5" x2="864.365" y2="412.533"/>
			
				<line fill="none" stroke="#000000" stroke-width="4" stroke-miterlimit="10" stroke-dasharray="3.3728,3.3728" x1="866.988" y1="414.656" x2="870.919" y2="417.84"/>
			
				<line fill="none" stroke="#000000" stroke-width="4" stroke-miterlimit="10" stroke-dasharray="13.4914,3.3728,3.3728,3.3728" x1="872.231" y1="418.9" x2="925.972" y2="462.406"/>
			<line fill="none" stroke="#000000" stroke-width="4" stroke-miterlimit="10" x1="927.282" y1="463.467" x2="933.5" y2="468.5"/>
		</g>
	</g>
	<g>
		<path fill="#BBBBBB" d="M943.349,313.5c0,5.5-4.5,10-10,10H266.5c-5.5,0-10-4.5-10-10v-175c0-5.5,4.5-10,10-10h666.849
			c5.5,0,10,4.5,10,10V313.5z"/>
		<path fill="none" stroke="#000000" stroke-miterlimit="10" d="M943.349,313.5c0,5.5-4.5,10-10,10H266.5c-5.5,0-10-4.5-10-10v-175
			c0-5.5,4.5-10,10-10h666.849c5.5,0,10,4.5,10,10V313.5z"/>
	</g>
	<text transform="matrix(1 0 0 1 266.5002 140.5)" font-family="'CourierNewPSMT'" font-size="12">INSTRUCTION / CUTTING DIE</text>
	<g>
		<g>
			
				<line fill="none" stroke="#000000" stroke-width="8" stroke-linecap="round" stroke-linejoin="round" x1="355.5" y1="159.5" x2="360.933" y2="167.896"/>
			
				<line fill="none" stroke="#000000" stroke-width="8" stroke-linecap="round" stroke-linejoin="round" stroke-dasharray="18.7946,11.2767" x1="367.059" y1="177.363" x2="413.005" y2="248.371"/>
			
				<line fill="none" stroke="#000000" stroke-width="8" stroke-linecap="round" stroke-linejoin="round" x1="416.068" y1="253.104" x2="421.5" y2="261.5"/>
		</g>
	</g>
	<g>
		<path fill="none" d="M330.5,270.5"/>
	</g>
	<g>
		<path fill="#BBBBBB" d="M512.5,973.5c0,5.5-4.5,10-10,10h-140c-5.5,0-10-4.5-10-10v-131c0-5.5,4.5-10,10-10h140
			c5.5,0,10,4.5,10,10V973.5z"/>
		<path fill="none" stroke="#000000" stroke-miterlimit="10" d="M512.5,973.5c0,5.5-4.5,10-10,10h-140c-5.5,0-10-4.5-10-10v-131
			c0-5.5,4.5-10,10-10h140c5.5,0,10,4.5,10,10V973.5z"/>
	</g>
	<text transform="matrix(1 0 0 1 362.5002 844.5)" font-family="'CourierNewPSMT'" font-size="12">SELECTOR (area)</text>
	<g>
		<g>
			<polyline fill="none" stroke="#000000" stroke-width="4" stroke-miterlimit="10" points="371.578,890.323 365.897,892.25 
				369.779,896.825 			"/>
			
				<line fill="none" stroke="#000000" stroke-width="4" stroke-miterlimit="10" stroke-dasharray="7.9472,2.6491" x1="371.492" y1="898.845" x2="377.49" y2="905.915"/>
			<polyline fill="none" stroke="#000000" stroke-width="4" stroke-miterlimit="10" points="378.348,906.925 382.23,911.5 
				388.198,910.891 			"/>
			
				<line fill="none" stroke="#000000" stroke-width="4" stroke-miterlimit="10" stroke-dasharray="10.0394,3.3465" x1="391.528" y1="910.552" x2="403.18" y2="909.362"/>
			<polyline fill="none" stroke="#000000" stroke-width="4" stroke-miterlimit="10" points="404.845,909.193 410.814,908.584 
				413.774,903.365 			"/>
			
				<line fill="none" stroke="#000000" stroke-width="4" stroke-miterlimit="10" stroke-dasharray="10.9774,3.6591" x1="415.578" y1="900.182" x2="429.117" y2="876.311"/>
			<polyline fill="none" stroke="#000000" stroke-width="4" stroke-miterlimit="10" points="430.02,874.719 432.98,869.5 
				427.297,871.427 			"/>
			
				<line fill="none" stroke="#000000" stroke-width="4" stroke-miterlimit="10" stroke-dasharray="13.5775,4.5258" x1="423.012" y1="872.881" x2="373.722" y2="889.597"/>
		</g>
	</g>
	<g>
		<g>
			<polyline fill="none" stroke="#000000" stroke-width="4" stroke-miterlimit="10" points="419.938,961.5 419.938,967.5 
				413.938,967.5 			"/>
			
				<line fill="none" stroke="#000000" stroke-width="4" stroke-miterlimit="10" stroke-dasharray="9.6667,3.2222" x1="410.715" y1="967.5" x2="386.549" y2="967.5"/>
			<polyline fill="none" stroke="#000000" stroke-width="4" stroke-miterlimit="10" points="384.938,967.5 378.938,967.5 
				378.938,961.5 			"/>
			
				<line fill="none" stroke="#000000" stroke-width="4" stroke-miterlimit="10" stroke-dasharray="11,3.6667" x1="378.938" y1="957.833" x2="378.938" y2="930.333"/>
			<polyline fill="none" stroke="#000000" stroke-width="4" stroke-miterlimit="10" points="378.938,928.5 378.938,922.5 
				384.938,922.5 			"/>
			
				<line fill="none" stroke="#000000" stroke-width="4" stroke-miterlimit="10" stroke-dasharray="9.6667,3.2222" x1="388.16" y1="922.5" x2="412.326" y2="922.5"/>
			<polyline fill="none" stroke="#000000" stroke-width="4" stroke-miterlimit="10" points="413.938,922.5 419.938,922.5 
				419.938,928.5 			"/>
			
				<line fill="none" stroke="#000000" stroke-width="4" stroke-miterlimit="10" stroke-dasharray="11,3.6667" x1="419.938" y1="932.167" x2="419.938" y2="959.667"/>
		</g>
	</g>
	<g>
		<g>
			<polyline fill="none" stroke="#000000" stroke-width="4" stroke-miterlimit="10" points="425.838,895.769 424.417,896.25 
				425.388,897.394 			"/>
			
				<line fill="none" stroke="#000000" stroke-width="4" stroke-miterlimit="10" stroke-dasharray="2.4717,5.7673" x1="429.119" y1="901.791" x2="437.914" y2="912.157"/>
			<polyline fill="none" stroke="#000000" stroke-width="4" stroke-miterlimit="10" points="439.78,914.356 440.75,915.5 
				442.242,915.348 			"/>
			
				<line fill="none" stroke="#000000" stroke-width="4" stroke-miterlimit="10" stroke-dasharray="2.8591,6.6714" x1="448.879" y1="914.671" x2="464.524" y2="913.075"/>
			<polyline fill="none" stroke="#000000" stroke-width="4" stroke-miterlimit="10" points="467.842,912.736 469.334,912.584 
				470.074,911.279 			"/>
			
				<line fill="none" stroke="#000000" stroke-width="4" stroke-miterlimit="10" stroke-dasharray="2.6765,6.2452" x1="473.156" y1="905.847" x2="489.22" y2="877.521"/>
			<polyline fill="none" stroke="#000000" stroke-width="4" stroke-miterlimit="10" points="490.76,874.805 491.5,873.5 
				490.079,873.981 			"/>
			
				<line fill="none" stroke="#000000" stroke-width="4" stroke-miterlimit="10" stroke-dasharray="3.0374,7.0873" x1="483.367" y1="876.258" x2="429.194" y2="894.63"/>
		</g>
	</g>
	<g>
		<g>
			<polyline fill="none" stroke="#000000" stroke-width="4" stroke-miterlimit="10" points="478.458,970 478.458,971.5 
				476.958,971.5 			"/>
			
				<line fill="none" stroke="#000000" stroke-width="4" stroke-miterlimit="10" stroke-dasharray="3.0811,7.1892" x1="469.769" y1="971.5" x2="442.553" y2="971.5"/>
			<polyline fill="none" stroke="#000000" stroke-width="4" stroke-miterlimit="10" points="438.958,971.5 437.458,971.5 
				437.458,970 			"/>
			
				<line fill="none" stroke="#000000" stroke-width="4" stroke-miterlimit="10" stroke-dasharray="2.6809,6.2553" x1="437.458" y1="963.745" x2="437.458" y2="931.128"/>
			<polyline fill="none" stroke="#000000" stroke-width="4" stroke-miterlimit="10" points="437.458,928 437.458,926.5 
				438.958,926.5 			"/>
			
				<line fill="none" stroke="#000000" stroke-width="4" stroke-miterlimit="10" stroke-dasharray="3.0811,7.1892" x1="446.148" y1="926.5" x2="473.364" y2="926.5"/>
			<polyline fill="none" stroke="#000000" stroke-width="4" stroke-miterlimit="10" points="476.958,926.5 478.458,926.5 
				478.458,928 			"/>
			
				<line fill="none" stroke="#000000" stroke-width="4" stroke-miterlimit="10" stroke-dasharray="2.6809,6.2553" x1="478.458" y1="934.255" x2="478.458" y2="966.872"/>
		</g>
	</g>
	<g>
		<path fill="#BBBBBB" d="M328.5,1142.5c0,5.5-4.5,10-10,10h-180c-5.5,0-10-4.5-10-10v-124c0-5.5,4.5-10,10-10h180
			c5.5,0,10,4.5,10,10V1142.5z"/>
		<path fill="none" stroke="#000000" stroke-miterlimit="10" d="M328.5,1142.5c0,5.5-4.5,10-10,10h-180c-5.5,0-10-4.5-10-10v-124
			c0-5.5,4.5-10,10-10h180c5.5,0,10,4.5,10,10V1142.5z"/>
	</g>
	<text transform="matrix(1 0 0 1 138.4998 1020.5)" font-family="'CourierNewPSMT'" font-size="12">DATA / FORM</text>
	<polygon stroke="#FFFFFF" stroke-width="4" stroke-miterlimit="10" points="170.897,1074.25 187.23,1093.5 215.814,1090.584 
		237.98,1051.5 	"/>
	<rect x="166.5" y="1082.5" stroke="#FFFFFF" stroke-width="4" stroke-miterlimit="10" width="41" height="45"/>
	<polygon points="229.417,1078.25 245.75,1097.5 274.334,1094.584 296.5,1055.5 	"/>
	<rect x="254.5" y="1083.5" width="41" height="45"/>
	
		<polyline fill="none" stroke="#000000" stroke-width="8" stroke-linecap="round" stroke-linejoin="round" stroke-miterlimit="10" points="
		807.023,197.5 791.023,221.5 807.023,245.5 	"/>
	
		<line fill="none" stroke="#000000" stroke-width="8" stroke-linecap="round" stroke-linejoin="round" stroke-miterlimit="10" x1="341.5" y1="286.5" x2="452.5" y2="286.5"/>
	
		<line fill="none" stroke="#000000" stroke-width="8" stroke-linecap="round" stroke-linejoin="round" stroke-miterlimit="10" x1="314.5" y1="185" x2="314.5" y2="310.5"/>
	
		<rect x="636.5" y="220.978" stroke="#000000" stroke-width="8" stroke-linecap="round" stroke-linejoin="round" stroke-miterlimit="10" width="29.522" height="29.522"/>
	
		<rect x="685.5" y="207.5" fill="none" stroke="#000000" stroke-width="8" stroke-linecap="round" stroke-linejoin="round" stroke-miterlimit="10" width="29.522" height="29.522"/>
	
		<polygon fill="none" stroke="#000000" stroke-width="8" stroke-linecap="round" stroke-linejoin="round" stroke-miterlimit="10" points="
		687.226,286.036 703.124,258.5 719.023,286.036 	"/>
	<polygon stroke="#000000" stroke-width="8" stroke-linecap="round" stroke-linejoin="round" stroke-miterlimit="10" points="
		735.226,295.036 751.124,267.5 767.023,295.036 	"/>
	
		<polygon fill="none" stroke="#000000" stroke-width="8" stroke-linecap="round" stroke-linejoin="round" stroke-miterlimit="10" points="
		866.023,215.5 850.023,279.5 866.023,263.5 882.023,279.5 	"/>
	<g>
		<text transform="matrix(1 0 0 1 515.1907 -47.5)"><tspan x="0" y="0" font-family="'CourierNewPS-BoldMT'" font-size="21">clip_8 </tspan><tspan x="88.214" y="0" font-family="'CourierNewPSMT'" font-size="21">| Tree of Graphics Ele</tspan><tspan x="365.46" y="0" font-family="'CourierNewPSMT'" font-size="21">m</tspan><tspan x="378.901" y="0" font-family="'CourierNewPSMT'" font-size="21">ents </tspan><tspan x="429.31" y="25.2" font-family="'CourierNewPSMT'" font-size="21"> </tspan><tspan x="26.044" y="50.4" font-family="'CourierNewPSMT'" font-size="21">draft for language version 0.1.x </tspan><tspan x="38.646" y="75.6" font-family="'CourierNewPSMT'" font-size="21">Copyright Martin Brösamle, 2017</tspan></text>
	</g>
	<g>
		<g>
			<line fill="none" stroke="#000000" stroke-miterlimit="10" x1="32.5" y1="-23.5" x2="32.5" y2="6.674"/>
			<g>
				<polygon points="29.32,0.763 30.26,0.421 32.5,6.577 34.74,0.421 35.68,0.763 32.5,9.5 				"/>
			</g>
		</g>
	</g>
	<text transform="matrix(1 0 0 1 -5.906 -57.5)"><tspan x="0" y="0" font-family="'CourierNewPS-BoldMT'" font-size="16">graphics </tspan><tspan x="4.801" y="19.2" font-family="'CourierNewPS-BoldMT'" font-size="16">element</tspan></text>
	<g>
		
			<rect x="133.187" y="373.186" transform="matrix(-0.7071 -0.7071 0.7071 -0.7071 -25.2052 758.5597)" fill="#DDDDDD" stroke="#000000" stroke-width="2" stroke-miterlimit="10" width="22.627" height="22.627"/>
		<g>
			<path d="M145.317,385.547c-0.031,0.303-0.119,0.521-0.262,0.66s-0.324,0.207-0.543,0.207c-0.234,0-0.426-0.082-0.574-0.246
				s-0.223-0.439-0.223-0.824v-0.898c1.266-0.484,2.029-0.857,2.289-1.117s0.391-0.525,0.391-0.797c0-0.381-0.152-0.709-0.457-0.984
				s-0.736-0.414-1.293-0.414c-0.588,0-1.156,0.135-1.703,0.406v0.234c0,0.381-0.074,0.652-0.223,0.816s-0.342,0.246-0.582,0.246
				c-0.234,0-0.426-0.08-0.574-0.242s-0.223-0.436-0.223-0.82v-1.289c0.818-0.385,1.453-0.641,1.906-0.766s0.922-0.188,1.406-0.188
				c1.01,0,1.82,0.291,2.43,0.875s0.914,1.314,0.914,2.195c0,0.625-0.184,1.156-0.551,1.594S146.369,385.084,145.317,385.547z
				 M145.653,388.641c0,0.244-0.087,0.443-0.262,0.598s-0.465,0.23-0.871,0.23s-0.697-0.076-0.871-0.23s-0.262-0.354-0.262-0.598
				s0.086-0.443,0.258-0.598s0.463-0.23,0.875-0.23c0.406,0,0.697,0.076,0.871,0.23S145.653,388.396,145.653,388.641z"/>
		</g>
	</g>
	<g>
		
			<rect x="133.187" y="453.186" transform="matrix(-0.7071 -0.7071 0.7071 -0.7071 -81.7737 895.1282)" fill="#DDDDDD" stroke="#000000" stroke-width="2" stroke-miterlimit="10" width="22.627" height="22.627"/>
		<g>
			<path d="M145.317,465.547c-0.031,0.303-0.119,0.521-0.262,0.66s-0.324,0.207-0.543,0.207c-0.234,0-0.426-0.082-0.574-0.246
				s-0.223-0.439-0.223-0.824v-0.898c1.266-0.484,2.029-0.857,2.289-1.117s0.391-0.525,0.391-0.797c0-0.381-0.152-0.709-0.457-0.984
				s-0.736-0.414-1.293-0.414c-0.588,0-1.156,0.135-1.703,0.406v0.234c0,0.381-0.074,0.652-0.223,0.816s-0.342,0.246-0.582,0.246
				c-0.234,0-0.426-0.08-0.574-0.242s-0.223-0.436-0.223-0.82v-1.289c0.818-0.385,1.453-0.641,1.906-0.766s0.922-0.188,1.406-0.188
				c1.01,0,1.82,0.291,2.43,0.875s0.914,1.314,0.914,2.195c0,0.625-0.184,1.156-0.551,1.594S146.369,465.084,145.317,465.547z
				 M145.653,468.641c0,0.244-0.087,0.443-0.262,0.598s-0.465,0.23-0.871,0.23s-0.697-0.076-0.871-0.23s-0.262-0.354-0.262-0.598
				s0.086-0.443,0.258-0.598s0.463-0.23,0.875-0.23c0.406,0,0.697,0.076,0.871,0.23S145.653,468.396,145.653,468.641z"/>
		</g>
	</g>
	<g>
		
			<rect x="133.187" y="541.186" transform="matrix(-0.7071 -0.7071 0.7071 -0.7071 -143.9991 1045.3535)" fill="#DDDDDD" stroke="#000000" stroke-width="2" stroke-miterlimit="10" width="22.627" height="22.627"/>
		<g>
			<path d="M145.317,553.547c-0.031,0.303-0.119,0.521-0.262,0.66s-0.324,0.207-0.543,0.207c-0.234,0-0.426-0.082-0.574-0.246
				s-0.223-0.439-0.223-0.824v-0.898c1.266-0.484,2.029-0.857,2.289-1.117s0.391-0.525,0.391-0.797c0-0.381-0.152-0.709-0.457-0.984
				s-0.736-0.414-1.293-0.414c-0.588,0-1.156,0.135-1.703,0.406v0.234c0,0.381-0.074,0.652-0.223,0.816s-0.342,0.246-0.582,0.246
				c-0.234,0-0.426-0.08-0.574-0.242s-0.223-0.436-0.223-0.82v-1.289c0.818-0.385,1.453-0.641,1.906-0.766s0.922-0.188,1.406-0.188
				c1.01,0,1.82,0.291,2.43,0.875s0.914,1.314,0.914,2.195c0,0.625-0.184,1.156-0.551,1.594S146.369,553.084,145.317,553.547z
				 M145.653,556.641c0,0.244-0.087,0.443-0.262,0.598s-0.465,0.23-0.871,0.23s-0.697-0.076-0.871-0.23s-0.262-0.354-0.262-0.598
				s0.086-0.443,0.258-0.598s0.463-0.23,0.875-0.23c0.406,0,0.697,0.076,0.871,0.23S145.653,556.396,145.653,556.641z"/>
		</g>
	</g>
	<g>
		
			<rect x="245.187" y="541.186" transform="matrix(-0.7071 -0.7071 0.7071 -0.7071 47.1968 1124.5496)" fill="#DDDDDD" stroke="#000000" stroke-width="2" stroke-miterlimit="10" width="22.627" height="22.627"/>
		<g>
			<path d="M257.317,553.547c-0.031,0.303-0.119,0.521-0.262,0.66s-0.324,0.207-0.543,0.207c-0.234,0-0.426-0.082-0.574-0.246
				s-0.223-0.439-0.223-0.824v-0.898c1.266-0.484,2.029-0.857,2.289-1.117s0.391-0.525,0.391-0.797c0-0.381-0.152-0.709-0.457-0.984
				s-0.736-0.414-1.293-0.414c-0.588,0-1.156,0.135-1.703,0.406v0.234c0,0.381-0.074,0.652-0.223,0.816s-0.342,0.246-0.582,0.246
				c-0.234,0-0.426-0.08-0.574-0.242s-0.223-0.436-0.223-0.82v-1.289c0.818-0.385,1.453-0.641,1.906-0.766s0.922-0.188,1.406-0.188
				c1.01,0,1.82,0.291,2.43,0.875s0.914,1.314,0.914,2.195c0,0.625-0.184,1.156-0.551,1.594S258.369,553.084,257.317,553.547z
				 M257.653,556.641c0,0.244-0.088,0.443-0.262,0.598s-0.465,0.23-0.871,0.23s-0.697-0.076-0.871-0.23s-0.262-0.354-0.262-0.598
				s0.086-0.443,0.258-0.598s0.463-0.23,0.875-0.23c0.406,0,0.697,0.076,0.871,0.23S257.653,556.396,257.653,556.641z"/>
		</g>
	</g>
	<g>
		
			<rect x="357.187" y="541.186" transform="matrix(-0.7071 -0.7071 0.7071 -0.7071 238.3928 1203.7455)" fill="#DDDDDD" stroke="#000000" stroke-width="2" stroke-miterlimit="10" width="22.627" height="22.627"/>
		<g>
			<path d="M369.317,553.547c-0.031,0.303-0.119,0.521-0.262,0.66s-0.324,0.207-0.543,0.207c-0.234,0-0.426-0.082-0.574-0.246
				s-0.223-0.439-0.223-0.824v-0.898c1.266-0.484,2.029-0.857,2.289-1.117s0.391-0.525,0.391-0.797c0-0.381-0.152-0.709-0.457-0.984
				s-0.736-0.414-1.293-0.414c-0.588,0-1.156,0.135-1.703,0.406v0.234c0,0.381-0.074,0.652-0.223,0.816s-0.342,0.246-0.582,0.246
				c-0.234,0-0.426-0.08-0.574-0.242s-0.223-0.436-0.223-0.82v-1.289c0.818-0.385,1.453-0.641,1.906-0.766s0.922-0.188,1.406-0.188
				c1.01,0,1.82,0.291,2.43,0.875s0.914,1.314,0.914,2.195c0,0.625-0.184,1.156-0.551,1.594S370.369,553.084,369.317,553.547z
				 M369.653,556.641c0,0.244-0.088,0.443-0.262,0.598s-0.465,0.23-0.871,0.23s-0.697-0.076-0.871-0.23s-0.262-0.354-0.262-0.598
				s0.086-0.443,0.258-0.598s0.463-0.23,0.875-0.23c0.406,0,0.697,0.076,0.871,0.23S369.653,556.396,369.653,556.641z"/>
		</g>
	</g>
	<g>
		
			<rect x="525.187" y="453.186" transform="matrix(-0.7071 -0.7071 0.7071 -0.7071 587.4121 1172.314)" fill="#DDDDDD" stroke="#000000" stroke-width="2" stroke-miterlimit="10" width="22.627" height="22.627"/>
		<g>
			<path d="M537.317,465.547c-0.031,0.303-0.119,0.521-0.262,0.66s-0.324,0.207-0.543,0.207c-0.234,0-0.426-0.082-0.574-0.246
				s-0.223-0.439-0.223-0.824v-0.898c1.266-0.484,2.029-0.857,2.289-1.117s0.391-0.525,0.391-0.797c0-0.381-0.152-0.709-0.457-0.984
				s-0.736-0.414-1.293-0.414c-0.588,0-1.156,0.135-1.703,0.406v0.234c0,0.381-0.074,0.652-0.223,0.816s-0.342,0.246-0.582,0.246
				c-0.234,0-0.426-0.08-0.574-0.242s-0.223-0.436-0.223-0.82v-1.289c0.818-0.385,1.453-0.641,1.906-0.766s0.922-0.188,1.406-0.188
				c1.01,0,1.82,0.291,2.43,0.875s0.914,1.314,0.914,2.195c0,0.625-0.184,1.156-0.551,1.594S538.369,465.084,537.317,465.547z
				 M537.653,468.641c0,0.244-0.088,0.443-0.262,0.598s-0.465,0.23-0.871,0.23s-0.697-0.076-0.871-0.23s-0.262-0.354-0.262-0.598
				s0.086-0.443,0.258-0.598s0.463-0.23,0.875-0.23c0.406,0,0.697,0.076,0.871,0.23S537.653,468.396,537.653,468.641z"/>
		</g>
	</g>
	<g>
		
			<rect x="525.187" y="541.186" transform="matrix(-0.7071 -0.7071 0.7071 -0.7071 525.1867 1322.5394)" fill="#DDDDDD" stroke="#000000" stroke-width="2" stroke-miterlimit="10" width="22.627" height="22.627"/>
		<g>
			<path d="M537.317,553.547c-0.031,0.303-0.119,0.521-0.262,0.66s-0.324,0.207-0.543,0.207c-0.234,0-0.426-0.082-0.574-0.246
				s-0.223-0.439-0.223-0.824v-0.898c1.266-0.484,2.029-0.857,2.289-1.117s0.391-0.525,0.391-0.797c0-0.381-0.152-0.709-0.457-0.984
				s-0.736-0.414-1.293-0.414c-0.588,0-1.156,0.135-1.703,0.406v0.234c0,0.381-0.074,0.652-0.223,0.816s-0.342,0.246-0.582,0.246
				c-0.234,0-0.426-0.08-0.574-0.242s-0.223-0.436-0.223-0.82v-1.289c0.818-0.385,1.453-0.641,1.906-0.766s0.922-0.188,1.406-0.188
				c1.01,0,1.82,0.291,2.43,0.875s0.914,1.314,0.914,2.195c0,0.625-0.184,1.156-0.551,1.594S538.369,553.084,537.317,553.547z
				 M537.653,556.641c0,0.244-0.088,0.443-0.262,0.598s-0.465,0.23-0.871,0.23s-0.697-0.076-0.871-0.23s-0.262-0.354-0.262-0.598
				s0.086-0.443,0.258-0.598s0.463-0.23,0.875-0.23c0.406,0,0.697,0.076,0.871,0.23S537.653,556.396,537.653,556.641z"/>
		</g>
	</g>
	<g>
		
			<rect x="701.187" y="373.186" transform="matrix(-0.7071 -0.7071 0.7071 -0.7071 944.4315 1160.1963)" fill="#DDDDDD" stroke="#000000" stroke-width="2" stroke-miterlimit="10" width="22.627" height="22.627"/>
		<g>
			<path d="M713.317,385.547c-0.031,0.303-0.119,0.521-0.262,0.66s-0.324,0.207-0.543,0.207c-0.234,0-0.426-0.082-0.574-0.246
				s-0.223-0.439-0.223-0.824v-0.898c1.266-0.484,2.029-0.857,2.289-1.117s0.391-0.525,0.391-0.797c0-0.381-0.152-0.709-0.457-0.984
				s-0.736-0.414-1.293-0.414c-0.588,0-1.156,0.135-1.703,0.406v0.234c0,0.381-0.074,0.652-0.223,0.816s-0.342,0.246-0.582,0.246
				c-0.234,0-0.426-0.08-0.574-0.242s-0.223-0.436-0.223-0.82v-1.289c0.818-0.385,1.453-0.641,1.906-0.766s0.922-0.188,1.406-0.188
				c1.01,0,1.82,0.291,2.43,0.875s0.914,1.314,0.914,2.195c0,0.625-0.184,1.156-0.551,1.594S714.369,385.084,713.317,385.547z
				 M713.653,388.641c0,0.244-0.088,0.443-0.262,0.598s-0.465,0.23-0.871,0.23s-0.697-0.076-0.871-0.23s-0.262-0.354-0.262-0.598
				s0.086-0.443,0.258-0.598s0.463-0.23,0.875-0.23c0.406,0,0.697,0.076,0.871,0.23S713.653,388.396,713.653,388.641z"/>
		</g>
	</g>
	<g>
		
			<rect x="133.187" y="629.186" transform="matrix(-0.7071 -0.7071 0.7071 -0.7071 -206.2245 1195.579)" fill="#DDDDDD" stroke="#000000" stroke-width="2" stroke-miterlimit="10" width="22.627" height="22.627"/>
		<g>
			<path d="M145.317,641.547c-0.031,0.303-0.119,0.521-0.262,0.66s-0.324,0.207-0.543,0.207c-0.234,0-0.426-0.082-0.574-0.246
				s-0.223-0.439-0.223-0.824v-0.898c1.266-0.484,2.029-0.857,2.289-1.117s0.391-0.525,0.391-0.797c0-0.381-0.152-0.709-0.457-0.984
				s-0.736-0.414-1.293-0.414c-0.588,0-1.156,0.135-1.703,0.406v0.234c0,0.381-0.074,0.652-0.223,0.816s-0.342,0.246-0.582,0.246
				c-0.234,0-0.426-0.08-0.574-0.242s-0.223-0.436-0.223-0.82v-1.289c0.818-0.385,1.453-0.641,1.906-0.766s0.922-0.188,1.406-0.188
				c1.01,0,1.82,0.291,2.43,0.875s0.914,1.314,0.914,2.195c0,0.625-0.184,1.156-0.551,1.594S146.369,641.084,145.317,641.547z
				 M145.653,644.641c0,0.244-0.088,0.443-0.262,0.598s-0.465,0.23-0.871,0.23s-0.697-0.076-0.871-0.23s-0.262-0.354-0.262-0.598
				s0.086-0.443,0.258-0.598s0.463-0.23,0.875-0.23c0.406,0,0.697,0.076,0.871,0.23S145.653,644.396,145.653,644.641z"/>
		</g>
	</g>
	<g>
		
			<rect x="133.187" y="717.186" transform="matrix(-0.7071 -0.7071 0.7071 -0.7071 -268.4491 1345.8047)" fill="#DDDDDD" stroke="#000000" stroke-width="2" stroke-miterlimit="10" width="22.627" height="22.627"/>
		<g>
			<path d="M145.317,729.547c-0.031,0.303-0.119,0.521-0.262,0.66s-0.324,0.207-0.543,0.207c-0.234,0-0.426-0.082-0.574-0.246
				s-0.223-0.439-0.223-0.824v-0.898c1.266-0.484,2.029-0.857,2.289-1.117s0.391-0.525,0.391-0.797c0-0.381-0.152-0.709-0.457-0.984
				s-0.736-0.414-1.293-0.414c-0.588,0-1.156,0.135-1.703,0.406v0.234c0,0.381-0.074,0.652-0.223,0.816s-0.342,0.246-0.582,0.246
				c-0.234,0-0.426-0.08-0.574-0.242s-0.223-0.436-0.223-0.82v-1.289c0.818-0.385,1.453-0.641,1.906-0.766s0.922-0.188,1.406-0.188
				c1.01,0,1.82,0.291,2.43,0.875s0.914,1.314,0.914,2.195c0,0.625-0.184,1.156-0.551,1.594S146.37,729.084,145.317,729.547z
				 M145.653,732.641c0,0.244-0.088,0.443-0.262,0.598s-0.465,0.23-0.871,0.23s-0.697-0.076-0.871-0.23s-0.262-0.354-0.262-0.598
				s0.086-0.443,0.258-0.598s0.463-0.23,0.875-0.23c0.406,0,0.697,0.076,0.871,0.23S145.653,732.396,145.653,732.641z"/>
		</g>
	</g>
	<g>
		
			<rect x="245.187" y="837.186" transform="matrix(-0.7071 -0.7071 0.7071 -0.7071 -162.1068 1629.8531)" fill="#DDDDDD" stroke="#000000" stroke-width="2" stroke-miterlimit="10" width="22.627" height="22.627"/>
		<g>
			<path d="M257.317,849.547c-0.031,0.303-0.119,0.521-0.262,0.66s-0.324,0.207-0.543,0.207c-0.234,0-0.426-0.082-0.574-0.246
				s-0.223-0.439-0.223-0.824v-0.898c1.266-0.484,2.029-0.857,2.289-1.117s0.391-0.525,0.391-0.797c0-0.381-0.152-0.709-0.457-0.984
				s-0.736-0.414-1.293-0.414c-0.588,0-1.156,0.135-1.703,0.406v0.234c0,0.381-0.074,0.652-0.223,0.816s-0.342,0.246-0.582,0.246
				c-0.234,0-0.426-0.08-0.574-0.242s-0.223-0.436-0.223-0.82v-1.289c0.818-0.385,1.453-0.641,1.906-0.766s0.922-0.188,1.406-0.188
				c1.01,0,1.82,0.291,2.43,0.875s0.914,1.314,0.914,2.195c0,0.625-0.184,1.156-0.551,1.594S258.369,849.084,257.317,849.547z
				 M257.653,852.641c0,0.244-0.088,0.443-0.262,0.598s-0.465,0.23-0.871,0.23s-0.697-0.076-0.871-0.23s-0.262-0.354-0.262-0.598
				s0.086-0.443,0.258-0.598s0.463-0.23,0.875-0.23c0.406,0,0.697,0.076,0.871,0.23S257.653,852.396,257.653,852.641z"/>
		</g>
	</g>
	<g>
		
			<rect x="21.187" y="997.186" transform="matrix(-0.7071 -0.7071 0.7071 -0.7071 -657.6358 1744.5984)" fill="#DDDDDD" stroke="#000000" stroke-width="2" stroke-miterlimit="10" width="22.627" height="22.627"/>
		<g>
			<path d="M33.317,1009.547c-0.031,0.303-0.119,0.521-0.262,0.66s-0.324,0.207-0.543,0.207c-0.234,0-0.426-0.082-0.574-0.246
				s-0.223-0.439-0.223-0.824v-0.898c1.266-0.484,2.029-0.857,2.289-1.117s0.391-0.525,0.391-0.797c0-0.381-0.152-0.709-0.457-0.984
				s-0.736-0.414-1.293-0.414c-0.588,0-1.156,0.135-1.703,0.406v0.234c0,0.381-0.074,0.652-0.223,0.816s-0.342,0.246-0.582,0.246
				c-0.234,0-0.426-0.08-0.574-0.242s-0.223-0.436-0.223-0.82v-1.289c0.818-0.385,1.453-0.641,1.906-0.766s0.922-0.188,1.406-0.188
				c1.01,0,1.82,0.291,2.43,0.875s0.914,1.314,0.914,2.195c0,0.625-0.184,1.156-0.551,1.594S34.369,1009.084,33.317,1009.547z
				 M33.653,1012.641c0,0.244-0.088,0.443-0.262,0.598s-0.465,0.23-0.871,0.23s-0.697-0.076-0.871-0.23s-0.262-0.354-0.262-0.598
				s0.086-0.443,0.258-0.598s0.463-0.23,0.875-0.23c0.406,0,0.697,0.076,0.871,0.23S33.653,1012.396,33.653,1012.641z"/>
		</g>
	</g>
	<g>
		
			<rect x="133.187" y="166.186" transform="matrix(-0.7071 -0.7071 0.7071 -0.7071 121.1659 405.1885)" fill="#DDDDDD" stroke="#000000" stroke-width="2" stroke-miterlimit="10" width="22.627" height="22.627"/>
		<g>
			<path d="M145.317,178.547c-0.031,0.302-0.119,0.522-0.262,0.66s-0.324,0.207-0.543,0.207c-0.234,0-0.426-0.082-0.574-0.246
				s-0.223-0.439-0.223-0.824v-0.898c1.266-0.484,2.029-0.857,2.289-1.117s0.391-0.526,0.391-0.797c0-0.38-0.152-0.708-0.457-0.984
				s-0.736-0.414-1.293-0.414c-0.588,0-1.156,0.135-1.703,0.406v0.234c0,0.38-0.074,0.652-0.223,0.816s-0.342,0.246-0.582,0.246
				c-0.234,0-0.426-0.081-0.574-0.242s-0.223-0.435-0.223-0.82v-1.289c0.818-0.385,1.453-0.641,1.906-0.766s0.922-0.188,1.406-0.188
				c1.01,0,1.82,0.292,2.43,0.875s0.914,1.315,0.914,2.195c0,0.625-0.184,1.156-0.551,1.594S146.369,178.083,145.317,178.547z
				 M145.653,181.641c0,0.245-0.087,0.444-0.262,0.598s-0.465,0.23-0.871,0.23s-0.697-0.077-0.871-0.23s-0.262-0.353-0.262-0.598
				s0.086-0.444,0.258-0.598s0.463-0.23,0.875-0.23c0.406,0,0.697,0.077,0.871,0.23S145.653,181.396,145.653,181.641z"/>
		</g>
	</g>
	<g>
		
			<rect x="21.187" y="166.186" transform="matrix(-0.7071 -0.7071 0.7071 -0.7071 -70.0301 325.9926)" fill="#DDDDDD" stroke="#000000" stroke-width="2" stroke-miterlimit="10" width="22.627" height="22.627"/>
		<g>
			<path d="M33.317,178.547c-0.031,0.302-0.119,0.522-0.262,0.66s-0.324,0.207-0.543,0.207c-0.234,0-0.426-0.082-0.574-0.246
				s-0.223-0.439-0.223-0.824v-0.898c1.266-0.484,2.029-0.857,2.289-1.117s0.391-0.526,0.391-0.797c0-0.38-0.152-0.708-0.457-0.984
				s-0.736-0.414-1.293-0.414c-0.588,0-1.156,0.135-1.703,0.406v0.234c0,0.38-0.074,0.652-0.223,0.816s-0.342,0.246-0.582,0.246
				c-0.234,0-0.426-0.081-0.574-0.242s-0.223-0.435-0.223-0.82v-1.289c0.818-0.385,1.453-0.641,1.906-0.766s0.922-0.188,1.406-0.188
				c1.01,0,1.82,0.292,2.43,0.875s0.914,1.315,0.914,2.195c0,0.625-0.184,1.156-0.551,1.594S34.369,178.083,33.317,178.547z
				 M33.653,181.641c0,0.245-0.087,0.444-0.262,0.598s-0.465,0.23-0.871,0.23s-0.697-0.077-0.871-0.23s-0.262-0.353-0.262-0.598
				s0.086-0.444,0.258-0.598s0.463-0.23,0.875-0.23c0.406,0,0.697,0.077,0.871,0.23S33.653,181.396,33.653,181.641z"/>
		</g>
	</g>
	<g>
		
			<rect x="21.187" y="21.186" transform="matrix(-0.7071 -0.7071 0.7071 -0.7071 32.5004 78.4621)" fill="#DDDDDD" stroke="#000000" stroke-width="2" stroke-miterlimit="10" width="22.627" height="22.627"/>
		<g>
			<path d="M33.317,33.547c-0.031,0.302-0.119,0.522-0.262,0.66s-0.324,0.207-0.543,0.207c-0.234,0-0.426-0.082-0.574-0.246
				s-0.223-0.439-0.223-0.824v-0.898c1.266-0.484,2.029-0.857,2.289-1.117s0.391-0.526,0.391-0.797c0-0.38-0.152-0.708-0.457-0.984
				s-0.736-0.414-1.293-0.414c-0.588,0-1.156,0.135-1.703,0.406v0.234c0,0.38-0.074,0.652-0.223,0.816s-0.342,0.246-0.582,0.246
				c-0.234,0-0.426-0.081-0.574-0.242s-0.223-0.435-0.223-0.82v-1.289c0.818-0.385,1.453-0.641,1.906-0.766s0.922-0.188,1.406-0.188
				c1.01,0,1.82,0.292,2.43,0.875s0.914,1.315,0.914,2.195c0,0.625-0.184,1.156-0.551,1.594S34.369,33.083,33.317,33.547z
				 M33.653,36.641c0,0.245-0.087,0.444-0.262,0.598s-0.465,0.23-0.871,0.23s-0.697-0.077-0.871-0.23s-0.262-0.353-0.262-0.598
				s0.086-0.444,0.258-0.598s0.463-0.23,0.875-0.23c0.406,0,0.697,0.077,0.871,0.23S33.653,36.396,33.653,36.641z"/>
		</g>
	</g>
	
		<path fill="none" stroke="#000000" stroke-width="8" stroke-linecap="round" stroke-linejoin="round" stroke-miterlimit="10" stroke-dasharray="20,12" d="
		M556.5,150.5l-96,57l28.592,34.235c4.445-9.585,14.147-16.235,25.408-16.235c15.464,0,28,12.536,28,28
		c0,13.027-8.897,23.977-20.947,27.103L536.5,298.5l71-18L556.5,150.5z"/>
</g>
<g id="TEST-controlflow-circle">
	<g>
		<path fill="#BBBBBB" d="M280.5,97.5c0,5.5-4.5,10-10,10h-132c-5.5,0-10-4.5-10-10v-71c0-5.5,4.5-10,10-10h132c5.5,0,10,4.5,10,10
			V97.5z"/>
		<path fill="none" stroke="#000000" stroke-miterlimit="10" d="M280.5,97.5c0,5.5-4.5,10-10,10h-132c-5.5,0-10-4.5-10-10v-71
			c0-5.5,4.5-10,10-10h132c5.5,0,10,4.5,10,10V97.5z"/>
	</g>
	<g id="EX_x5F_controlfolw-circle">
		<circle stroke="#000000" stroke-miterlimit="10" cx="182.5" cy="62.5" r="9"/>
		<circle fill="none" stroke="#000000" stroke-miterlimit="10" cx="152.5" cy="74.5" r="9"/>
		<circle stroke="#000000" stroke-miterlimit="10" cx="223.5" cy="80.5" r="9"/>
		<circle fill="#7F7F7F" stroke="#000000" stroke-miterlimit="10" cx="186.5" cy="89.5" r="9"/>
		<circle fill="none" stroke="#000000" stroke-width="4" stroke-miterlimit="10" cx="223.5" cy="80.5" r="18"/>
	</g>
	<text id="CONTROL_FLOW__x28_init_x2F_term_x29_" transform="matrix(1 0 0 1 138.4998 28.5)"><tspan x="0" y="0" font-family="'CourierNewPSMT'" font-size="12">CONTROL FLOW </tspan><tspan x="0" y="14.4" font-family="'CourierNewPSMT'" font-size="12">(initial/terminal)</tspan></text>
	<rect x="285.5" y="16.5" fill="none" width="86" height="64"/>
	<text transform="matrix(1 0 0 1 285.5002 18.9521)" display="none"><tspan x="0" y="0" display="inline" font-family="'CourierNewPSMT'" font-size="4">Inital and terminal symbol both </tspan><tspan x="0" y="4.8" display="inline" font-family="'CourierNewPSMT'" font-size="4">consist of cicle elements. Cicle </tspan><tspan x="0" y="9.6" display="inline" font-family="'CourierNewPSMT'" font-size="4">elements are reserved for that </tspan><tspan x="0" y="14.4" display="inline" font-family="'CourierNewPSMT'" font-size="4">purpose.</tspan><tspan x="0" y="24" display="inline" font-family="'CourierNewPSMT'" font-size="4">METADATA {</tspan><tspan x="0" y="28.8" display="inline" font-family="'CourierNewPSMT'" font-size="4">testtype: element_ISCDdetection;</tspan><tspan x="0" y="33.6" display="inline" font-family="'CourierNewPSMT'" font-size="4">expectedresult: CONTROLFLOW;</tspan><tspan x="0" y="38.399" display="inline" font-family="'CourierNewPSMT'" font-size="4">}</tspan></text>
	
		<rect id="BBox" x="136.5" y="47.5" fill="none" stroke="#E5B7B7" stroke-width="3.559" stroke-linecap="round" stroke-linejoin="round" stroke-miterlimit="10" width="112" height="57"/>
</g>
<g id="unused_graphic_styles" display="none">
	<g display="inline">
		<g>
			<line fill="none" stroke="#000000" stroke-width="4" stroke-miterlimit="10" x1="398.5" y1="715.5" x2="404.718" y2="720.533"/>
			
				<line fill="none" stroke="#000000" stroke-width="4" stroke-miterlimit="10" stroke-dasharray="10.1186,2.5296,5.0593,10.1186" x1="406.685" y1="722.125" x2="424.38" y2="736.451"/>
			
				<line fill="none" stroke="#000000" stroke-width="4" stroke-miterlimit="10" stroke-dasharray="20.2371,2.5296,10.1186,2.5296,5.0593,10.1186" x1="428.312" y1="739.635" x2="463.702" y2="768.283"/>
			
				<line fill="none" stroke="#000000" stroke-width="4" stroke-miterlimit="10" x1="467.635" y1="771.467" x2="473.853" y2="776.5"/>
		</g>
	</g>
</g>
<g id="SECTIONINFO" display="none">
	<rect x="608.5" y="966.25" display="inline" fill="none" width="331" height="141.25"/>
	<text transform="matrix(1 0 0 1 608.5002 973.6055)"><tspan x="0" y="0" display="inline" font-family="'CourierNewPSMT'" font-size="12">+ Graphics elements by type</tspan><tspan x="0" y="28.801" display="inline" font-family="'CourierNewPSMT'" font-size="12">+ How they are interpreted as language ele</tspan><tspan x="302.449" y="28.801" display="inline" font-family="'CourierNewPSMT'" font-size="12">-</tspan><tspan x="0" y="43.2" display="inline" font-family="'CourierNewPSMT'" font-size="12">ments in clip_8.</tspan></text>
	<g id="I">
		<path display="inline" fill="none" stroke="#000000" stroke-width="13.2647" stroke-miterlimit="10" d="M76.5,550.044
			c0,0,59.691-89.536,135.963-99.485c76.271-9.948,198.97,76.272,198.97,76.272"/>
		<polyline display="inline" fill="none" stroke="#000000" stroke-width="26.5294" stroke-miterlimit="10" points="670.395,526.387 
			617.335,605.975 670.395,685.563 		"/>
		<g display="inline">
			<g>
				
					<line fill="none" stroke="#000000" stroke-width="13.2647" stroke-miterlimit="10" x1="499.5" y1="854.375" x2="514.965" y2="866.895"/>
				
					<line fill="none" stroke="#000000" stroke-width="13.2647" stroke-miterlimit="10" stroke-dasharray="40.4119,13.4706" x1="525.435" y1="875.37" x2="687.72" y2="1006.743"/>
				
					<line fill="none" stroke="#000000" stroke-width="13.2647" stroke-miterlimit="10" x1="692.955" y1="1010.98" x2="708.42" y2="1023.5"/>
			</g>
		</g>
		<g display="inline">
			<g>
				
					<line fill="none" stroke="#000000" stroke-width="26.5294" stroke-linecap="round" stroke-linejoin="round" x1="674.264" y1="141.714" x2="692.28" y2="169.556"/>
				
					<line fill="none" stroke="#000000" stroke-width="26.5294" stroke-linecap="round" stroke-linejoin="round" stroke-dasharray="62.3261,37.3956" x1="712.594" y1="200.952" x2="864.959" y2="436.423"/>
				
					<line fill="none" stroke="#000000" stroke-width="26.5294" stroke-linecap="round" stroke-linejoin="round" x1="875.116" y1="452.121" x2="893.132" y2="479.963"/>
			</g>
		</g>
		
			<polygon display="inline" fill="none" stroke="#000000" stroke-width="26.5294" stroke-linecap="round" stroke-linejoin="round" stroke-miterlimit="10" points="
			417.336,118.5 364.277,330.734 417.336,277.676 470.394,330.734 		"/>
		<circle display="inline" stroke="#000000" stroke-width="3.3162" stroke-miterlimit="10" cx="150.809" cy="144.191" r="29.846"/>
		
			<circle display="inline" fill="none" stroke="#000000" stroke-width="13.2647" stroke-miterlimit="10" cx="150.809" cy="144.191" r="59.691"/>
		
			<polygon display="inline" fill="none" stroke="#000000" stroke-width="13.2647" stroke-miterlimit="10" stroke-dasharray="39.7941,13.2647" points="
			118.5,1056.5 52.5,884.5 188.5,774.5 340.5,782.5 210.5,896.5 302.5,1070.5 		"/>
	</g>
</g>
</svg>
