<?xml version="1.0" encoding="utf-8"?>
<!-- Generator: Adobe Illustrator 15.0.0, SVG Export Plug-In . SVG Version: 6.00 Build 0)  -->
<!DOCTYPE svg PUBLIC "-//W3C//DTD SVG 1.1//EN" "http://www.w3.org/Graphics/SVG/1.1/DTD/svg11.dtd">
<svg version="1.1" id="QM" xmlns="http://www.w3.org/2000/svg" xmlns:xlink="http://www.w3.org/1999/xlink" x="0px" y="0px"
	 width="64px" height="64px" viewBox="0 0 64 64" enable-background="new 0 0 64 64" xml:space="preserve">
<path fill="#FF00A8" d="M33.057,35.523V39.8c0,1.007-0.201,1.729-0.604,2.163c-0.403,0.438-0.906,0.656-1.51,0.656
	c-0.638,0-1.157-0.219-1.56-0.656c-0.403-0.434-0.604-1.156-0.604-2.163v-7.095c7.348-2.718,12.364-5.436,15.047-8.153
	c1.51-1.51,2.266-3.405,2.266-5.687c0-3.757-1.367-6.97-4.102-9.638c-2.736-2.667-6.282-4.001-10.644-4.001
	c-2.215,0-4.304,0.252-6.267,0.755c-1.963,0.504-4.354,1.442-7.171,2.819v4.328c0,1.006-0.193,1.729-0.58,2.164
	c-0.385,0.437-0.897,0.654-1.534,0.654c-0.604,0-1.106-0.217-1.51-0.654c-0.403-0.436-0.604-1.158-0.604-2.164V6.033
	c5.234-2.315,8.622-3.674,10.166-4.077C26.464,1.319,29.081,1,31.698,1C37.3,1,41.807,2.678,45.21,6.033
	c3.405,3.355,5.108,7.599,5.108,12.732c0,3.154-1.016,5.947-3.045,8.38C45.243,29.578,40.504,32.37,33.057,35.523z M28.729,52.434
	h4.228c1.477,0,2.727,0.512,3.749,1.534c1.021,1.023,1.535,2.255,1.535,3.699c0,1.476-0.528,2.718-1.587,3.724
	c-1.055,1.006-2.288,1.512-3.697,1.512h-4.228c-1.442,0-2.676-0.514-3.698-1.536c-1.023-1.022-1.535-2.239-1.535-3.648
	c0-1.509,0.52-2.768,1.561-3.774C26.095,52.936,27.32,52.434,28.729,52.434z"/>
</svg>
