<?xml version="1.0" encoding="utf-8"?>
<!-- Generator: Adobe Illustrator 15.0.0, SVG Export Plug-In . SVG Version: 6.00 Build 0)  -->
<!DOCTYPE svg PUBLIC "-//W3C//DTD SVG 1.1//EN" "http://www.w3.org/Graphics/SVG/1.1/DTD/svg11.dtd">
<svg version="1.1" xmlns="http://www.w3.org/2000/svg" xmlns:xlink="http://www.w3.org/1999/xlink" x="0px" y="0px" width="150.5px"
	 height="654.99px" viewBox="0 0 150.5 654.99" enable-background="new 0 0 150.5 654.99" xml:space="preserve">
<g id="Background">
	<rect fill="#606060" width="150.5" height="654.99"/>
</g>
<g id="clip8">
	<g id="D">
		<rect x="76.333" y="80.5" width="4" height="4"/>
		<rect x="71.333" y="76.5" width="4" height="8"/>
		<rect x="66.333" y="72.5" width="4" height="12"/>
		<rect x="61.333" y="68.5" width="4" height="16"/>
		<rect x="61.333" y="68.5" width="4" height="16"/>
		<rect x="56.333" y="64.5" width="4" height="20"/>
		<rect x="51.333" y="60.5" width="4" height="24"/>
		<rect x="46.333" y="56.5" width="4" height="28"/>
		<rect x="41.333" y="52.5" width="4" height="32"/>
		<rect x="36.333" y="48.5" width="4" height="36"/>
		<rect x="31.333" y="52.5" width="4" height="32"/>
		<rect x="31.333" y="44.5" width="4" height="40"/>
		<rect x="26.333" y="40.5" width="4" height="44"/>
		<rect x="21.333" y="36.5" width="4" height="48"/>
		<rect x="16.333" y="32.5" width="4" height="52"/>
		<rect x="11.333" y="28.5" width="4" height="56"/>
		<rect x="6.333" y="24.5" width="4" height="60"/>
	</g>
	<g id="I">
		<path fill="none" stroke="#677D82" stroke-width="0.3" stroke-linecap="square" stroke-miterlimit="10" d="M74.333,83
			c-3.689,9.195-70.791,6.875-71.5,0"/>
		<path fill="none" stroke="#677D82" stroke-width="0.3" stroke-linecap="square" stroke-miterlimit="10" d="M61.438,18.75
			C59,101,18.833,58.5,2.833,83"/>
		<path fill="none" stroke="#677D82" stroke-width="0.3" stroke-linecap="square" stroke-miterlimit="10" d="M74.333,87
			c-4.583,0.75-2.958,11.75-3.208,15.5"/>
		<path fill="none" stroke="#677D82" stroke-width="0.3" stroke-linecap="square" stroke-miterlimit="10" d="M147.5,49.833
			C141.5,52,147,97.167,136,81.5"/>
		<path fill="none" stroke="#677D82" stroke-width="0.3" stroke-linecap="square" stroke-miterlimit="10" d="M136,53.5
			c-7.833,2.416-43.667,3.25-44.584-1"/>
		<path fill="none" stroke="#677D82" stroke-width="0.3" stroke-linecap="square" stroke-miterlimit="10" d="M136,69.5
			c-7.833,2.416-43.667,3.25-44.584-1"/>
		<path fill="none" stroke="#677D82" stroke-width="0.3" stroke-linecap="square" stroke-miterlimit="10" d="M136,77.5
			c-7.833,2.416-43.667,3.25-44.584-1"/>
		<path fill="none" stroke="#677D82" stroke-width="0.3" stroke-linecap="square" stroke-miterlimit="10" d="M136,81.5
			c-7.833,2.416-43.667,3.25-44.584-1"/>
		<path fill="none" stroke="#677D82" stroke-width="0.3" stroke-linecap="square" stroke-miterlimit="10" d="M136,53.5
			c-5.125,9.75-18.75,47.375-37.479,31"/>
		<path fill="none" stroke="#677D82" stroke-width="0.3" stroke-linecap="square" stroke-miterlimit="10" d="M136,69.5
			c-5.125,9.75-14.75,31.375-33.479,15"/>
		<path fill="none" stroke="#677D82" stroke-width="0.3" stroke-linecap="square" stroke-miterlimit="10" d="M136,77.5
			c-5.125,9.75-12.75,23.375-31.479,7"/>
		<path fill="none" stroke="#677D82" stroke-width="0.3" stroke-linecap="square" stroke-miterlimit="10" d="M98.521,84.5
			c-3.271,5.5-6.396-9.125-7.106-16"/>
		<path fill="none" stroke="#677D82" stroke-width="0.3" stroke-linecap="square" stroke-miterlimit="10" d="M102.521,84.5
			c-3.689,9.195-10.396-1.125-11.106-8"/>
		<path fill="none" stroke="#677D82" stroke-width="0.3" stroke-linecap="square" stroke-miterlimit="10" d="M104.521,84.5
			c-3.689,9.195-12.396,2.875-13.106-4"/>
		<path fill="none" stroke="#677D82" stroke-width="0.3" stroke-linecap="square" stroke-miterlimit="10" d="M78,16.833
			C88.125,21.583,81.332,52.5,91.416,52.5"/>
		<path fill="none" stroke="#677D82" stroke-width="0.3" stroke-linecap="square" stroke-miterlimit="10" d="M147.5,49.833
			C163.875,128.25,91.708,90.5,76.333,85"/>
		<path fill="none" stroke="#677D82" stroke-width="0.3" stroke-linecap="square" stroke-miterlimit="10" d="M61.438,14.75
			c-3.125-0.083-4.375-0.479-4.375-7.479"/>
		<path fill="none" stroke="#677D82" stroke-width="0.3" stroke-linecap="square" stroke-miterlimit="10" d="M78,16.833
			C74.875,16.75,69,22,63.438,16.75"/>
		
			<circle fill="none" stroke="#9ACDCD" stroke-width="0.2" stroke-linecap="square" stroke-miterlimit="10" cx="71.125" cy="102.5" r="1.542"/>
		<g>
			
				<circle fill="none" stroke="#E5B7B7" stroke-width="0.4" stroke-linecap="round" stroke-linejoin="round" stroke-miterlimit="10" cx="7.833" cy="83" r="0.667"/>
			
				<line fill="none" stroke="#E5B7B7" stroke-width="0.5" stroke-linecap="round" stroke-linejoin="round" stroke-miterlimit="10" x1="2.833" y1="83" x2="7.833" y2="83"/>
		</g>
		
			<rect x="112.667" y="49.833" fill="none" stroke="#E5B7B7" stroke-width="0.3" stroke-miterlimit="10" stroke-dasharray="1,0.5" width="34.833" height="602"/>
		<g id="aligner">
			
				<rect x="98.521" y="51.5" fill="none" stroke="#E5B7B7" stroke-width="0.3" stroke-miterlimit="10" stroke-dasharray="1,0.5" width="10.957" height="33"/>
			
				<rect x="102.521" y="67.5" fill="none" stroke="#E5B7B7" stroke-width="0.3" stroke-miterlimit="10" stroke-dasharray="1,0.5" width="6.957" height="17"/>
			
				<rect x="104.521" y="75.5" fill="none" stroke="#E5B7B7" stroke-width="0.3" stroke-miterlimit="10" stroke-dasharray="1,0.5" width="4.957" height="9"/>
			
				<line fill="none" stroke="#E5B7B7" stroke-width="0.4" stroke-linecap="round" stroke-linejoin="round" stroke-miterlimit="10" x1="98.521" y1="84.5" x2="96.451" y2="84.5"/>
			
				<polyline fill="none" stroke="#E5B7B7" stroke-width="0.4" stroke-linecap="round" stroke-linejoin="round" stroke-miterlimit="10" points="
				98.093,83.856 98.521,84.5 98.95,83.856 			"/>
			
				<line fill="none" stroke="#E5B7B7" stroke-width="0.4" stroke-linecap="round" stroke-linejoin="round" stroke-miterlimit="10" x1="104.521" y1="84.5" x2="106.054" y2="84.5"/>
			
				<polyline fill="none" stroke="#E5B7B7" stroke-width="0.4" stroke-linecap="round" stroke-linejoin="round" stroke-miterlimit="10" points="
				104.093,83.856 104.521,84.5 104.95,83.856 			"/>
			
				<line fill="none" stroke="#E5B7B7" stroke-width="0.4" stroke-linecap="round" stroke-linejoin="round" stroke-miterlimit="10" x1="102.521" y1="84.5" x2="100.451" y2="84.5"/>
			
				<polyline fill="none" stroke="#E5B7B7" stroke-width="0.4" stroke-linecap="round" stroke-linejoin="round" stroke-miterlimit="10" points="
				102.093,83.856 102.521,84.5 102.95,83.856 			"/>
			
				<rect x="96.451" y="83.897" fill="#E5B7B7" stroke="#E5B7B7" stroke-width="0.4" stroke-linecap="round" stroke-linejoin="round" stroke-miterlimit="10" width="0.603" height="0.603"/>
			
				<rect x="105.451" y="83.897" fill="#E5B7B7" stroke="#E5B7B7" stroke-width="0.4" stroke-linecap="round" stroke-linejoin="round" stroke-miterlimit="10" width="0.603" height="0.603"/>
			
				<rect x="100.451" y="83.897" fill="#E5B7B7" stroke="#E5B7B7" stroke-width="0.4" stroke-linecap="round" stroke-linejoin="round" stroke-miterlimit="10" width="0.603" height="0.603"/>
		</g>
		<g id="post-mover">
			
				<line fill="none" stroke="#E5B7B7" stroke-width="0.4" stroke-linecap="round" stroke-linejoin="round" stroke-miterlimit="10" x1="136" y1="53.5" x2="140.033" y2="53.5"/>
			
				<circle fill="none" stroke="#E5B7B7" stroke-width="0.4" stroke-linecap="round" stroke-linejoin="round" stroke-miterlimit="10" cx="140.032" cy="53.5" r="0.667"/>
			
				<line fill="none" stroke="#E5B7B7" stroke-width="0.4" stroke-linecap="round" stroke-linejoin="round" stroke-miterlimit="10" x1="136" y1="69.5" x2="140.033" y2="69.5"/>
			
				<circle fill="none" stroke="#E5B7B7" stroke-width="0.4" stroke-linecap="round" stroke-linejoin="round" stroke-miterlimit="10" cx="140.032" cy="69.5" r="0.667"/>
			
				<line fill="none" stroke="#E5B7B7" stroke-width="0.4" stroke-linecap="round" stroke-linejoin="round" stroke-miterlimit="10" x1="136" y1="77.5" x2="140.033" y2="77.5"/>
			
				<circle fill="none" stroke="#E5B7B7" stroke-width="0.4" stroke-linecap="round" stroke-linejoin="round" stroke-miterlimit="10" cx="140.032" cy="77.5" r="0.667"/>
			
				<line fill="none" stroke="#E5B7B7" stroke-width="0.4" stroke-linecap="round" stroke-linejoin="round" stroke-miterlimit="10" x1="136" y1="81.5" x2="140.033" y2="81.5"/>
			
				<circle fill="none" stroke="#E5B7B7" stroke-width="0.4" stroke-linecap="round" stroke-linejoin="round" stroke-miterlimit="10" cx="140.032" cy="81.5" r="0.667"/>
			
				<rect x="110.521" y="53" fill="none" stroke="#E5B7B7" stroke-width="0.3" stroke-miterlimit="10" stroke-dasharray="1,0.5" width="25.479" height="0.5"/>
			
				<rect x="110.521" y="69" fill="none" stroke="#E5B7B7" stroke-width="0.3" stroke-miterlimit="10" stroke-dasharray="1,0.5" width="25.479" height="0.5"/>
			
				<rect x="110.521" y="77" fill="none" stroke="#E5B7B7" stroke-width="0.3" stroke-miterlimit="10" stroke-dasharray="1,0.5" width="25.479" height="0.5"/>
			
				<rect x="110.521" y="81" fill="none" stroke="#E5B7B7" stroke-width="0.3" stroke-miterlimit="10" stroke-dasharray="1,0.5" width="25.479" height="0.5"/>
		</g>
		<g id="cutter">
			
				<line fill="none" stroke="#E5B7B7" stroke-width="0.4" stroke-linecap="round" stroke-linejoin="round" stroke-miterlimit="10" stroke-dasharray="2,1" x1="91.416" y1="52.5" x2="114.25" y2="52.5"/>
			
				<line fill="none" stroke="#E5B7B7" stroke-width="0.4" stroke-linecap="round" stroke-linejoin="round" stroke-miterlimit="10" stroke-dasharray="2,1" x1="91.416" y1="68.5" x2="114.25" y2="68.5"/>
			
				<line fill="none" stroke="#E5B7B7" stroke-width="0.4" stroke-linecap="round" stroke-linejoin="round" stroke-miterlimit="10" stroke-dasharray="2,1" x1="91.416" y1="76.5" x2="114.25" y2="76.5"/>
			
				<line fill="none" stroke="#E5B7B7" stroke-width="0.4" stroke-linecap="round" stroke-linejoin="round" stroke-miterlimit="10" stroke-dasharray="2,1" x1="91.416" y1="80.5" x2="114.25" y2="80.5"/>
		</g>
		<g id="pre-mover">
			
				<circle fill="none" stroke="#E5B7B7" stroke-width="0.4" stroke-linecap="round" stroke-linejoin="round" stroke-miterlimit="10" cx="110.417" cy="16.833" r="0.667"/>
			
				<circle fill="none" stroke="#E5B7B7" stroke-width="0.4" stroke-linecap="round" stroke-linejoin="round" stroke-miterlimit="10" cx="147.5" cy="83.25" r="0.667"/>
			
				<line fill="none" stroke="#E5B7B7" stroke-width="0.5" stroke-linecap="round" stroke-linejoin="round" stroke-miterlimit="10" x1="147.5" y1="49.833" x2="147.5" y2="83.25"/>
			
				<line fill="none" stroke="#E5B7B7" stroke-width="0.5" stroke-linecap="round" stroke-linejoin="round" stroke-miterlimit="10" x1="78" y1="16.833" x2="110.417" y2="16.833"/>
			
				<rect x="78" y="16.833" fill="none" stroke="#E5B7B7" stroke-width="0.3" stroke-miterlimit="10" stroke-dasharray="1,0.5" width="67" height="66.167"/>
			
				<rect x="2.833" y="78.167" fill="none" stroke="#E5B7B7" stroke-width="0.3" stroke-miterlimit="10" stroke-dasharray="1,0.5" width="71.5" height="4.833"/>
		</g>
		
			<circle fill="#9ACDCD" stroke="#9ACDCD" stroke-width="0.2" stroke-linecap="square" stroke-miterlimit="10" cx="71.125" cy="102.5" r="1"/>
		
			<circle fill="#9ACDCD" stroke="#9ACDCD" stroke-width="0.2" stroke-linecap="square" stroke-miterlimit="10" cx="57.063" cy="7.271" r="1"/>
		<polyline fill="none" stroke="#9ACDCD" stroke-width="0.5" stroke-linecap="square" stroke-miterlimit="10" points="74.333,87 
			76.333,85 74.333,83 		"/>
		<polyline fill="none" stroke="#9ACDCD" stroke-width="0.5" stroke-linecap="square" stroke-miterlimit="10" points="61.438,18.75 
			63.438,16.75 61.438,14.75 		"/>
	</g>
</g>
</svg>
