<?xml version="1.0" encoding="utf-8"?>
<!-- Generator: Adobe Illustrator 15.0.0, SVG Export Plug-In . SVG Version: 6.00 Build 0)  -->
<!DOCTYPE svg PUBLIC "-//W3C//DTD SVG 1.1//EN" "http://www.w3.org/Graphics/SVG/1.1/DTD/svg11.dtd">
<svg version="1.1" xmlns="http://www.w3.org/2000/svg" xmlns:xlink="http://www.w3.org/1999/xlink" x="0px" y="0px" width="256px"
	 height="206px" viewBox="0 0 256 206" enable-background="new 0 0 256 206" xml:space="preserve">
<g id="Background">
	<rect fill="#606060" width="256" height="206"/>
</g>
<g id="Ebene_5">
	<polyline fill="none" stroke="#998675" stroke-miterlimit="10" points="72,12 8,156 72,156 	"/>
	<polyline fill="none" stroke="#998675" stroke-miterlimit="10" points="71.872,12 136.128,155.886 72.128,156 	"/>
	<rect x="28.047" y="112" fill="none" stroke="#998675" stroke-miterlimit="10" width="87.875" height="44"/>
	<rect x="41.449" y="81.497" fill="none" stroke="#998675" stroke-miterlimit="10" width="61.071" height="30.579"/>
	<rect x="50.791" y="60.238" fill="none" stroke="#998675" stroke-miterlimit="10" width="42.389" height="21.225"/>
	<rect x="57.297" y="45.43" fill="none" stroke="#998675" stroke-miterlimit="10" width="29.376" height="14.709"/>
	<rect x="62.483" y="32.875" fill="none" stroke="#998675" stroke-miterlimit="10" width="19.003" height="12.647"/>
	<rect x="67.235" y="22.75" fill="none" stroke="#998675" stroke-miterlimit="10" width="9.5" height="10.337"/>
</g>
<g id="clip8">
	<g id="D">
		<rect x="116.243" y="114.088" fill="#FBB03B" width="1.836" height="12.358"/>
		<rect x="113.488" y="118.68" fill="#990000" width="7.347" height="7.767"/>
		
			<line fill="none" stroke="#572509" stroke-width="0.4564" stroke-linecap="round" stroke-linejoin="round" stroke-miterlimit="10" stroke-dasharray="0.9128,0.6085" x1="116.243" y1="122.773" x2="118.079" y2="126.446"/>
		
			<line fill="none" stroke="#572509" stroke-width="0.4564" stroke-linecap="round" stroke-linejoin="round" stroke-miterlimit="10" stroke-dasharray="0.9128,0.6085" x1="118.079" y1="122.773" x2="116.243" y2="126.446"/>
		<rect x="30.669" y="100.255" fill="#FBB03B" width="1.836" height="12.358"/>
		<rect x="27.914" y="104.847" fill="#990000" width="7.347" height="7.767"/>
		
			<line fill="none" stroke="#572509" stroke-width="0.4564" stroke-linecap="round" stroke-linejoin="round" stroke-miterlimit="10" stroke-dasharray="0.9128,0.6085" x1="30.669" y1="108.94" x2="32.505" y2="112.613"/>
		
			<line fill="none" stroke="#572509" stroke-width="0.4564" stroke-linecap="round" stroke-linejoin="round" stroke-miterlimit="10" stroke-dasharray="0.9128,0.6085" x1="32.505" y1="108.94" x2="30.669" y2="112.613"/>
	</g>
	<g id="I">
		
			<circle fill="#E3C291" stroke="#E3C291" stroke-width="0.3043" stroke-linecap="square" stroke-miterlimit="10" cx="72.243" cy="12.783" r="0.608"/>
		
			<circle fill="none" stroke="#E3C291" stroke-width="0.3043" stroke-linecap="square" stroke-miterlimit="10" cx="72.243" cy="12.783" r="1.217"/>
		
			<circle fill="#E3C291" stroke="#E3C291" stroke-width="0.3043" stroke-linecap="square" stroke-miterlimit="10" cx="74.104" cy="174.145" r="0.608"/>
		
			<rect x="118.998" y="122.773" fill="none" stroke="#572509" stroke-width="0.3043" stroke-miterlimit="10" stroke-dasharray="2.7551,0.9183" width="4.592" height="0.918"/>
		<path fill="none" stroke="#E3C291" stroke-width="0.4592" stroke-linecap="square" stroke-miterlimit="10" d="M123.59,123.691
			c2.755,0,2.755-1.836,0-1.836"/>
		<path fill="none" stroke="#E3C291" stroke-width="0.4592" stroke-linecap="square" stroke-miterlimit="10" d="M123.59,121.855
			c14.66,27.77-104.09,16.197-92.002-6.487"/>
		<path fill="none" stroke="#E3C291" stroke-width="0.4592" stroke-linecap="square" stroke-miterlimit="10" d="M116.243,126.446
			c2.755,0,3.674,7.348,0.919,7.348"/>
		<path fill="none" stroke="#E3C291" stroke-width="0.4592" stroke-linecap="square" stroke-miterlimit="10" d="M74.104,174.145
			c0-5.131,2.358-2.7,2.593-6.062"/>
		
			<line fill="none" stroke="#572509" stroke-width="0.4041" stroke-linecap="round" stroke-linejoin="round" stroke-miterlimit="10" x1="123.59" y1="120.433" x2="123.59" y2="121.855"/>
		
			<polyline fill="none" stroke="#572509" stroke-width="0.4592" stroke-linecap="round" stroke-linejoin="round" stroke-miterlimit="10" points="
			122.671,120.937 123.59,121.855 124.508,120.937 		"/>
		<polyline fill="none" stroke="#572509" stroke-width="1.3775" stroke-miterlimit="10" points="123.59,123.691 117.162,129.201 
			117.162,133.794 		"/>
		<polyline fill="none" stroke="#572509" stroke-width="1.3775" stroke-miterlimit="10" points="67.79,168.083 72.243,165.206 
			76.697,168.083 		"/>
		<polyline fill="none" stroke="#572509" stroke-width="1.3775" stroke-miterlimit="10" points="68.308,65.5 72.761,62.623 
			77.215,65.5 		"/>
		
			<rect x="110.732" y="121.855" fill="none" stroke="#572509" stroke-width="0.3043" stroke-miterlimit="10" stroke-dasharray="2.7551,0.9183" width="12.857" height="2.755"/>
		
			<line fill="none" stroke="#E3C291" stroke-width="0.4592" stroke-linecap="square" stroke-miterlimit="10" x1="72.243" y1="165.206" x2="117.162" y2="129.201"/>
		<path fill="none" stroke="#E3C291" stroke-width="0.4592" stroke-linecap="square" stroke-miterlimit="10" d="M77.215,65.5
			c0.833,2.503,34.771,80.5,39.028,60.946"/>
		
			<rect x="33.424" y="108.94" fill="none" stroke="#572509" stroke-width="0.3043" stroke-miterlimit="10" stroke-dasharray="2.7551,0.9183" width="4.592" height="0.918"/>
		<path fill="none" stroke="#E3C291" stroke-width="0.4592" stroke-linecap="square" stroke-miterlimit="10" d="M38.016,109.858
			c2.755,0,2.755-1.836,0-1.836"/>
		<path fill="none" stroke="#E3C291" stroke-width="0.4592" stroke-linecap="square" stroke-miterlimit="10" d="M38.016,108.022
			c14.66,27.77,14.941,48.561,29.774,60.061"/>
		<path fill="none" stroke="#E3C291" stroke-width="0.4592" stroke-linecap="square" stroke-miterlimit="10" d="M30.669,112.613
			c2.755,0,3.674,7.348,0.919,7.348"/>
		
			<line fill="none" stroke="#572509" stroke-width="0.4041" stroke-linecap="round" stroke-linejoin="round" stroke-miterlimit="10" x1="38.016" y1="106.6" x2="38.016" y2="108.022"/>
		
			<polyline fill="none" stroke="#572509" stroke-width="0.4592" stroke-linecap="round" stroke-linejoin="round" stroke-miterlimit="10" points="
			37.097,107.104 38.016,108.022 38.934,107.104 		"/>
		<polyline fill="none" stroke="#572509" stroke-width="1.3775" stroke-miterlimit="10" points="38.016,109.858 31.588,115.368 
			31.588,119.961 		"/>
		
			<rect x="25.158" y="108.022" fill="none" stroke="#572509" stroke-width="0.3043" stroke-miterlimit="10" stroke-dasharray="2.7551,0.9183" width="12.857" height="2.755"/>
		<path fill="none" stroke="#E3C291" stroke-width="0.4592" stroke-linecap="square" stroke-miterlimit="10" d="M68.308,65.5
			c4.454,11.833-41.974,96.667-37.639,47.113"/>
		
			<line fill="none" stroke="#E3C291" stroke-width="0.4592" stroke-linecap="square" stroke-miterlimit="10" x1="72.761" y1="62.623" x2="72.243" y2="12.783"/>
	</g>
</g>
</svg>
