<?xml version="1.0" encoding="utf-8"?>
<!-- Generator: Adobe Illustrator 15.0.0, SVG Export Plug-In . SVG Version: 6.00 Build 0)  -->
<!DOCTYPE svg PUBLIC "-//W3C//DTD SVG 1.1//EN" "http://www.w3.org/Graphics/SVG/1.1/DTD/svg11.dtd">
<svg version="1.1" xmlns="http://www.w3.org/2000/svg" xmlns:xlink="http://www.w3.org/1999/xlink" x="0px" y="0px" width="256px"
	 height="206px" viewBox="0 0 256 206" enable-background="new 0 0 256 206" xml:space="preserve">
<g id="Background">
	<rect fill="#606060" width="256" height="206"/>
</g>
<g id="clip8">
	<g id="D" opacity="0.5">
		<rect x="45" y="63" width="10" height="10"/>
		<rect x="45" y="79" width="10" height="10"/>
		<rect x="45" y="95" width="10" height="10"/>
		<rect x="45" y="111" width="10" height="10"/>
		<rect x="45" y="127" width="10" height="10"/>
		<rect x="45" y="143" width="10" height="10"/>
		<rect x="45" y="159" width="10" height="10"/>
		<rect x="45" y="175" width="10" height="10"/>
		<rect x="45" y="191" width="10" height="10"/>
	</g>
	<g id="I">
		<rect x="44" y="44" fill="none" stroke="#E5B7B7" stroke-miterlimit="10" stroke-dasharray="1,2" width="12" height="16"/>
		<rect x="19" y="60" fill="none" stroke="#E5B7B7" stroke-miterlimit="10" stroke-dasharray="1,2" width="37" height="143"/>
		<rect x="39" y="44" fill="none" stroke="#E5B7B7" stroke-miterlimit="10" stroke-dasharray="1,2" width="162" height="16"/>
		<rect x="60" y="44" fill="none" stroke="#E5B7B7" stroke-miterlimit="10" stroke-dasharray="1,2" width="12" height="16"/>
		
			<line fill="none" stroke="#E5B7B7" stroke-width="1.5" stroke-linecap="round" stroke-linejoin="round" stroke-miterlimit="10" x1="44" y1="44" x2="60" y2="44"/>
		<polyline fill="none" stroke="#9ACDCD" stroke-width="1.5" stroke-linecap="square" stroke-miterlimit="10" points="61,31 59,34 
			61,37 		"/>
		<rect x="61" y="17" fill="none" stroke="#E5B7B7" stroke-miterlimit="10" stroke-dasharray="1,2" width="14" height="14"/>
		<rect x="77" y="17" fill="none" stroke="#E5B7B7" stroke-miterlimit="10" stroke-dasharray="1,2" width="14" height="14"/>
		<rect x="74" y="15" fill="none" stroke="#E5B7B7" stroke-miterlimit="10" stroke-dasharray="1,2" width="118" height="16"/>
		<path fill="none" stroke="#9ACDCD" stroke-width="0.5" stroke-linecap="square" stroke-miterlimit="10" d="M61,37c0,6-17-2-17,7"
			/>
		<polyline fill="none" stroke="#9ACDCD" stroke-width="1.5" stroke-linecap="square" stroke-miterlimit="10" points="77,31 75,34 
			77,37 		"/>
		<path fill="none" stroke="#9ACDCD" stroke-width="0.5" stroke-linecap="square" stroke-miterlimit="10" d="M77,37c0,7-17-2-17,23"
			/>
		<path fill="none" stroke="#9ACDCD" stroke-width="0.5" stroke-linecap="square" stroke-miterlimit="10" d="M75,34
			c-7,0-12,10-31,10"/>
		<path fill="none" stroke="#9ACDCD" stroke-width="0.5" stroke-linecap="square" stroke-miterlimit="10" d="M91,34
			c-17,0-24,26-31,26"/>
		
			<circle fill="none" stroke="#E5B7B7" stroke-width="1.5" stroke-linecap="round" stroke-linejoin="round" stroke-miterlimit="10" cx="60" cy="44" r="2"/>
		
			<line fill="none" stroke="#E5B7B7" stroke-width="1.5" stroke-linecap="round" stroke-linejoin="round" stroke-miterlimit="10" x1="60" y1="60" x2="76" y2="60"/>
		
			<circle fill="none" stroke="#E5B7B7" stroke-width="1.5" stroke-linecap="round" stroke-linejoin="round" stroke-miterlimit="10" cx="76" cy="60" r="2"/>
		
			<line fill="none" stroke="#E5B7B7" stroke-width="1.5" stroke-linecap="round" stroke-linejoin="round" stroke-miterlimit="10" x1="61" y1="17" x2="107" y2="100"/>
		
			<circle fill="none" stroke="#E5B7B7" stroke-width="1.5" stroke-linecap="round" stroke-linejoin="round" stroke-miterlimit="10" cx="107" cy="100" r="2"/>
		
			<line fill="none" stroke="#E5B7B7" stroke-width="1.5" stroke-linecap="round" stroke-linejoin="round" stroke-miterlimit="10" x1="74" y1="15" x2="74" y2="191"/>
		
			<circle fill="none" stroke="#E5B7B7" stroke-width="1.5" stroke-linecap="round" stroke-linejoin="round" stroke-miterlimit="10" cx="74" cy="191" r="2"/>
		<rect x="76" y="44" fill="none" stroke="#E5B7B7" stroke-miterlimit="10" stroke-dasharray="1,2" width="12" height="16"/>
		<rect x="92" y="44" fill="none" stroke="#E5B7B7" stroke-miterlimit="10" stroke-dasharray="1,2" width="12" height="16"/>
		
			<line fill="none" stroke="#E5B7B7" stroke-width="1.5" stroke-linecap="round" stroke-linejoin="round" stroke-miterlimit="10" x1="76" y1="44" x2="92" y2="44"/>
		<polyline fill="none" stroke="#9ACDCD" stroke-width="1.5" stroke-linecap="square" stroke-miterlimit="10" points="93,31 91,34 
			93,37 		"/>
		<rect x="93" y="17" fill="none" stroke="#E5B7B7" stroke-miterlimit="10" stroke-dasharray="1,2" width="14" height="14"/>
		<rect x="109" y="17" fill="none" stroke="#E5B7B7" stroke-miterlimit="10" stroke-dasharray="1,2" width="14" height="14"/>
		<path fill="none" stroke="#9ACDCD" stroke-width="0.5" stroke-linecap="square" stroke-miterlimit="10" d="M93,37c0,6-17-2-17,7"
			/>
		<polyline fill="none" stroke="#9ACDCD" stroke-width="1.5" stroke-linecap="square" stroke-miterlimit="10" points="109,31 
			107,34 109,37 		"/>
		<path fill="none" stroke="#9ACDCD" stroke-width="0.5" stroke-linecap="square" stroke-miterlimit="10" d="M109,37c0,7-17-2-17,23
			"/>
		<path fill="none" stroke="#9ACDCD" stroke-width="0.5" stroke-linecap="square" stroke-miterlimit="10" d="M107,34
			c-7,0-12,10-31,10"/>
		<path fill="none" stroke="#9ACDCD" stroke-width="0.5" stroke-linecap="square" stroke-miterlimit="10" d="M123,34
			c-17,0-24,26-31,26"/>
		
			<circle fill="none" stroke="#E5B7B7" stroke-width="1.5" stroke-linecap="round" stroke-linejoin="round" stroke-miterlimit="10" cx="92" cy="44" r="2"/>
		
			<line fill="none" stroke="#E5B7B7" stroke-width="1.5" stroke-linecap="round" stroke-linejoin="round" stroke-miterlimit="10" x1="92" y1="60" x2="108" y2="60"/>
		
			<circle fill="none" stroke="#E5B7B7" stroke-width="1.5" stroke-linecap="round" stroke-linejoin="round" stroke-miterlimit="10" cx="108" cy="60" r="2"/>
		<rect x="108" y="44" fill="none" stroke="#E5B7B7" stroke-miterlimit="10" stroke-dasharray="1,2" width="12" height="16"/>
		<rect x="124" y="44" fill="none" stroke="#E5B7B7" stroke-miterlimit="10" stroke-dasharray="1,2" width="12" height="16"/>
		
			<line fill="none" stroke="#E5B7B7" stroke-width="1.5" stroke-linecap="round" stroke-linejoin="round" stroke-miterlimit="10" x1="108" y1="44" x2="124" y2="44"/>
		<polyline fill="none" stroke="#9ACDCD" stroke-width="1.5" stroke-linecap="square" stroke-miterlimit="10" points="125,31 
			123,34 125,37 		"/>
		<rect x="125" y="17" fill="none" stroke="#E5B7B7" stroke-miterlimit="10" stroke-dasharray="1,2" width="14" height="14"/>
		<rect x="141" y="17" fill="none" stroke="#E5B7B7" stroke-miterlimit="10" stroke-dasharray="1,2" width="14" height="14"/>
		<path fill="none" stroke="#9ACDCD" stroke-width="0.5" stroke-linecap="square" stroke-miterlimit="10" d="M125,37c0,6-17-2-17,7"
			/>
		<polyline fill="none" stroke="#9ACDCD" stroke-width="1.5" stroke-linecap="square" stroke-miterlimit="10" points="141,31 
			139,34 141,37 		"/>
		<path fill="none" stroke="#9ACDCD" stroke-width="0.5" stroke-linecap="square" stroke-miterlimit="10" d="M141,37c0,7-17-2-17,23
			"/>
		<path fill="none" stroke="#9ACDCD" stroke-width="0.5" stroke-linecap="square" stroke-miterlimit="10" d="M139,34
			c-7,0-12,10-31,10"/>
		<path fill="none" stroke="#9ACDCD" stroke-width="0.5" stroke-linecap="square" stroke-miterlimit="10" d="M155,34
			c-17,0-24,26-31,26"/>
		
			<circle fill="none" stroke="#E5B7B7" stroke-width="1.5" stroke-linecap="round" stroke-linejoin="round" stroke-miterlimit="10" cx="124" cy="44" r="2"/>
		
			<line fill="none" stroke="#E5B7B7" stroke-width="1.5" stroke-linecap="round" stroke-linejoin="round" stroke-miterlimit="10" x1="124" y1="60" x2="140" y2="60"/>
		
			<circle fill="none" stroke="#E5B7B7" stroke-width="1.5" stroke-linecap="round" stroke-linejoin="round" stroke-miterlimit="10" cx="140" cy="60" r="2"/>
		<rect x="140" y="44" fill="none" stroke="#E5B7B7" stroke-miterlimit="10" stroke-dasharray="1,2" width="12" height="16"/>
		<rect x="156" y="44" fill="none" stroke="#E5B7B7" stroke-miterlimit="10" stroke-dasharray="1,2" width="12" height="16"/>
		
			<line fill="none" stroke="#E5B7B7" stroke-width="1.5" stroke-linecap="round" stroke-linejoin="round" stroke-miterlimit="10" x1="140" y1="44" x2="156" y2="44"/>
		<polyline fill="none" stroke="#9ACDCD" stroke-width="1.5" stroke-linecap="square" stroke-miterlimit="10" points="157,31 
			155,34 157,37 		"/>
		<rect x="157" y="17" fill="none" stroke="#E5B7B7" stroke-miterlimit="10" stroke-dasharray="1,2" width="14" height="14"/>
		<rect x="173" y="17" fill="none" stroke="#E5B7B7" stroke-miterlimit="10" stroke-dasharray="1,2" width="14" height="14"/>
		<path fill="none" stroke="#9ACDCD" stroke-width="0.5" stroke-linecap="square" stroke-miterlimit="10" d="M157,37c0,6-17-2-17,7"
			/>
		<polyline fill="none" stroke="#9ACDCD" stroke-width="1.5" stroke-linecap="square" stroke-miterlimit="10" points="173,31 
			171,34 173,37 		"/>
		<polyline fill="none" stroke="#9ACDCD" stroke-width="1.5" stroke-linecap="square" stroke-miterlimit="10" points="174,5 172,8 
			174,11 		"/>
		<polyline fill="none" stroke="#9ACDCD" stroke-width="1.5" stroke-linecap="square" stroke-miterlimit="10" points="158,5 156,8 
			158,11 		"/>
		<path fill="none" stroke="#9ACDCD" stroke-width="0.5" stroke-linecap="square" stroke-miterlimit="10" d="M173,37c0,7-17-2-17,23
			"/>
		<path fill="none" stroke="#9ACDCD" stroke-width="0.5" stroke-linecap="square" stroke-miterlimit="10" d="M171,34
			c-7,0-12,10-31,10"/>
		<path fill="none" stroke="#9ACDCD" stroke-width="0.5" stroke-linecap="square" stroke-miterlimit="10" d="M174,5
			c46,0,30,55-18,55"/>
		<path fill="none" stroke="#9ACDCD" stroke-width="0.5" stroke-linecap="square" stroke-miterlimit="10" d="M174,11c9,0,6,20-1,20"
			/>
		<path fill="none" stroke="#9ACDCD" stroke-width="0.5" stroke-linecap="square" stroke-miterlimit="10" d="M158,11c9,0,6,20-1,20"
			/>
		
			<circle fill="none" stroke="#E5B7B7" stroke-width="1.5" stroke-linecap="round" stroke-linejoin="round" stroke-miterlimit="10" cx="156" cy="44" r="2"/>
		
			<line fill="none" stroke="#E5B7B7" stroke-width="1.5" stroke-linecap="round" stroke-linejoin="round" stroke-miterlimit="10" x1="156" y1="60" x2="172" y2="60"/>
		
			<circle fill="none" stroke="#E5B7B7" stroke-width="1.5" stroke-linecap="round" stroke-linejoin="round" stroke-miterlimit="10" cx="172" cy="60" r="2"/>
		
			<line fill="none" stroke="#9ACDCD" stroke-width="0.5" stroke-linecap="square" stroke-miterlimit="10" x1="172" y1="8" x2="158" y2="5"/>
		<polyline fill="none" stroke="#9ACDCD" stroke-width="1.5" stroke-linecap="square" stroke-miterlimit="10" points="142,5 140,8 
			142,11 		"/>
		<path fill="none" stroke="#9ACDCD" stroke-width="0.5" stroke-linecap="square" stroke-miterlimit="10" d="M142,11c9,0,6,20-1,20"
			/>
		
			<line fill="none" stroke="#9ACDCD" stroke-width="0.5" stroke-linecap="square" stroke-miterlimit="10" x1="156" y1="8" x2="142" y2="5"/>
		<polyline fill="none" stroke="#9ACDCD" stroke-width="1.5" stroke-linecap="square" stroke-miterlimit="10" points="126,5 124,8 
			126,11 		"/>
		<path fill="none" stroke="#9ACDCD" stroke-width="0.5" stroke-linecap="square" stroke-miterlimit="10" d="M126,11c9,0,6,20-1,20"
			/>
		
			<line fill="none" stroke="#9ACDCD" stroke-width="0.5" stroke-linecap="square" stroke-miterlimit="10" x1="140" y1="8" x2="126" y2="5"/>
		
			<line fill="none" stroke="#9ACDCD" stroke-width="0.5" stroke-linecap="square" stroke-miterlimit="10" x1="124" y1="8" x2="110" y2="5"/>
		<polyline fill="none" stroke="#9ACDCD" stroke-width="1.5" stroke-linecap="square" stroke-miterlimit="10" points="110,5 108,8 
			110,11 		"/>
		<polyline fill="none" stroke="#9ACDCD" stroke-width="1.5" stroke-linecap="square" stroke-miterlimit="10" points="94,5 92,8 
			94,11 		"/>
		<path fill="none" stroke="#9ACDCD" stroke-width="0.5" stroke-linecap="square" stroke-miterlimit="10" d="M110,11c9,0,6,20-1,20"
			/>
		<path fill="none" stroke="#9ACDCD" stroke-width="0.5" stroke-linecap="square" stroke-miterlimit="10" d="M94,11c9,0,6,20-1,20"
			/>
		
			<line fill="none" stroke="#9ACDCD" stroke-width="0.5" stroke-linecap="square" stroke-miterlimit="10" x1="108" y1="8" x2="94" y2="5"/>
		<polyline fill="none" stroke="#9ACDCD" stroke-width="1.5" stroke-linecap="square" stroke-miterlimit="10" points="78,5 76,8 
			78,11 		"/>
		<path fill="none" stroke="#9ACDCD" stroke-width="0.5" stroke-linecap="square" stroke-miterlimit="10" d="M78,11c9,0,6,20-1,20"
			/>
		
			<line fill="none" stroke="#9ACDCD" stroke-width="0.5" stroke-linecap="square" stroke-miterlimit="10" x1="92" y1="8" x2="78" y2="5"/>
		<path fill="none" stroke="#9ACDCD" stroke-width="0.5" stroke-linecap="square" stroke-miterlimit="10" d="M61,31c4-1-10-15,0-14"
			/>
		
			<circle fill="#9ACDCD" stroke="#9ACDCD" stroke-width="0.5" stroke-linecap="square" stroke-miterlimit="10" cx="47" cy="7" r="1"/>
		<circle fill="none" stroke="#9ACDCD" stroke-width="0.5" stroke-linecap="square" stroke-miterlimit="10" cx="47" cy="7" r="2"/>
		
			<line fill="none" stroke="#E5B7B7" stroke-width="1.5" stroke-linecap="round" stroke-linejoin="round" stroke-miterlimit="10" x1="19" y1="60" x2="19" y2="44"/>
		
			<circle fill="none" stroke="#E5B7B7" stroke-width="1.5" stroke-linecap="round" stroke-linejoin="round" stroke-miterlimit="10" cx="19" cy="44" r="2"/>
		
			<line fill="none" stroke="#E5B7B7" stroke-width="1.5" stroke-linecap="round" stroke-linejoin="round" stroke-miterlimit="10" x1="39" y1="60" x2="39" y2="31"/>
		
			<circle fill="none" stroke="#E5B7B7" stroke-width="1.5" stroke-linecap="round" stroke-linejoin="round" stroke-miterlimit="10" cx="39" cy="31" r="2"/>
		<polyline fill="none" stroke="#9ACDCD" stroke-width="1.5" stroke-linecap="square" stroke-miterlimit="10" points="13,57 15,60 
			13,63 		"/>
		<path fill="none" stroke="#9ACDCD" stroke-width="0.5" stroke-linecap="square" stroke-miterlimit="10" d="M19,60
			c9,0,12.959-26,40-26"/>
		<path fill="none" stroke="#9ACDCD" stroke-width="0.5" stroke-linecap="square" stroke-miterlimit="10" d="M13,57c-7,1-9,0-9-7"/>
		<path fill="none" stroke="#9ACDCD" stroke-width="0.5" stroke-linecap="square" stroke-miterlimit="10" d="M39,60c0,6-26,10-26,3"
			/>
		<path fill="none" stroke="#9ACDCD" stroke-width="0.5" stroke-linecap="square" stroke-miterlimit="10" d="M39,60C18,11,58,8,76,8
			"/>
		
			<circle fill="#9ACDCD" stroke="#9ACDCD" stroke-width="0.5" stroke-linecap="square" stroke-miterlimit="10" cx="4" cy="50" r="1"/>
		<path fill="none" stroke="#9ACDCD" stroke-width="0.5" stroke-linecap="square" stroke-miterlimit="10" d="M15,60c2,1,2-1,4,0"/>
		<path fill="none" stroke="#9ACDCD" stroke-width="0.5" stroke-linecap="square" stroke-miterlimit="10" d="M61.26,17
			C61,14,64,14,74,15"/>
		<path fill="none" stroke="#9ACDCD" stroke-width="0.5" stroke-linecap="square" stroke-miterlimit="10" d="M74,15c-2-9-16-8-27-8"
			/>
	</g>
</g>
</svg>
