<?xml version="1.0" encoding="utf-8"?>
<!-- Generator: Adobe Illustrator 15.0.0, SVG Export Plug-In . SVG Version: 6.00 Build 0)  -->
<!DOCTYPE svg PUBLIC "-//W3C//DTD SVG 1.1//EN" "http://www.w3.org/Graphics/SVG/1.1/DTD/svg11.dtd">
<svg version="1.1" xmlns="http://www.w3.org/2000/svg" xmlns:xlink="http://www.w3.org/1999/xlink" x="0px" y="0px" width="292px"
	 height="206px" viewBox="0 0 292 206" enable-background="new 0 0 292 206" xml:space="preserve">
<g id="Background">
	<rect fill="#606060" width="292" height="206"/>
</g>
<g id="clip8">
	<g id="D" opacity="0.5">
		<rect x="33" y="65" width="10" height="10"/>
		<rect x="33" y="97" width="10" height="10"/>
		<rect x="33" y="33" width="10" height="10"/>
		<rect x="33" y="129" width="10" height="10"/>
		<rect x="33" y="161" width="10" height="10"/>
	</g>
	<g id="I">
		
			<rect x="31" y="60" fill="none" stroke="#E5B7B7" stroke-width="0.8889" stroke-miterlimit="10" stroke-dasharray="0.8889,1.7779" width="13" height="113"/>
		<polyline fill="none" stroke="#9ACDCD" stroke-width="1.5" stroke-linecap="square" stroke-miterlimit="10" points="
			79.697,44.333 77.697,47.333 79.697,50.333 		"/>
		<path fill="none" stroke="#9ACDCD" stroke-width="0.5" stroke-linecap="square" stroke-miterlimit="10" d="M79.697,50.333
			c8-4.875-4.125,25,2,13"/>
		<polyline fill="none" stroke="#9ACDCD" stroke-width="1.5" stroke-linecap="square" stroke-miterlimit="10" points="
			95.697,44.333 93.697,47.333 95.697,50.333 		"/>
		<path fill="none" stroke="#9ACDCD" stroke-width="0.5" stroke-linecap="square" stroke-miterlimit="10" d="M93.697,47.333
			c-9.807,0,4.278,16-12,16"/>
		<polyline fill="none" stroke="#9ACDCD" stroke-width="1.5" stroke-linecap="square" stroke-miterlimit="10" points="
			99.697,23.333 97.697,20.333 99.697,17.333 		"/>
		<polyline fill="none" stroke="#9ACDCD" stroke-width="1.5" stroke-linecap="square" stroke-miterlimit="10" points="
			83.697,17.333 81.697,20.333 83.697,23.333 		"/>
		<path fill="none" stroke="#9ACDCD" stroke-width="0.5" stroke-linecap="square" stroke-miterlimit="10" d="M83.697,23.333
			c6.58,0,0.606,21-4,21"/>
		<path fill="none" stroke="#9ACDCD" stroke-width="0.5" stroke-linecap="square" stroke-miterlimit="10" d="M99.697,23.333
			c5.377,0-0.594,21-4,21"/>
		<polyline fill="none" stroke="#9ACDCD" stroke-width="1.5" stroke-linecap="square" stroke-miterlimit="10" points="
			47.697,44.333 45.697,47.333 47.697,50.333 		"/>
		<path fill="none" stroke="#9ACDCD" stroke-width="0.5" stroke-linecap="square" stroke-miterlimit="10" d="M47.697,50.333
			c6.917-5.375-4.125,25,2,13"/>
		<polyline fill="none" stroke="#9ACDCD" stroke-width="1.5" stroke-linecap="square" stroke-miterlimit="10" points="
			63.697,44.333 61.697,47.333 63.697,50.333 		"/>
		<path fill="none" stroke="#9ACDCD" stroke-width="0.6177" stroke-linecap="square" stroke-miterlimit="10" d="M63.697,50.333
			c6.592-1.018-6,10.325-2,6"/>
		<path fill="none" stroke="#9ACDCD" stroke-width="0.5" stroke-linecap="square" stroke-miterlimit="10" d="M61.697,47.333
			c-9.807,0,4.278,16-12,16"/>
		<path fill="none" stroke="#9ACDCD" stroke-width="0.5" stroke-linecap="square" stroke-miterlimit="10" d="M77.697,47.333
			c-14.828-0.208,0,12.542-16,9"/>
		<polyline fill="none" stroke="#9ACDCD" stroke-width="1.5" stroke-linecap="square" stroke-miterlimit="10" points="
			67.697,23.333 65.697,20.333 67.697,17.333 		"/>
		<polyline fill="none" stroke="#9ACDCD" stroke-width="1.5" stroke-linecap="square" stroke-miterlimit="10" points="
			51.697,23.333 49.697,20.333 51.697,17.333 		"/>
		<path fill="none" stroke="#9ACDCD" stroke-width="0.5" stroke-linecap="square" stroke-miterlimit="10" d="M51.91,23.277
			c6.556-0.567,0.173,20.966-4.416,21.364"/>
		<path fill="none" stroke="#9ACDCD" stroke-width="0.5" stroke-linecap="square" stroke-miterlimit="10" d="M67.697,23.333
			c5.377,0-0.594,21-4,21"/>
		<polyline fill="none" stroke="#9ACDCD" stroke-width="1.5" stroke-linecap="square" stroke-miterlimit="10" points="20.75,44.333 
			22.75,47.333 20.75,50.333 		"/>
		<path fill="none" stroke="#9ACDCD" stroke-width="0.5" stroke-linecap="square" stroke-miterlimit="10" d="M20.75,44.333
			c-7,1-10.094-4-10.094-11"/>
		<path fill="none" stroke="#9ACDCD" stroke-width="0.5" stroke-linecap="square" stroke-miterlimit="10" d="M20.75,50.333
			C5,50.333,27.252,53.667,31,60"/>
		
			<circle fill="#9ACDCD" stroke="#9ACDCD" stroke-width="0.5" stroke-linecap="square" stroke-miterlimit="10" cx="10.656" cy="33.333" r="1"/>
		
			<line fill="none" stroke="#9ACDCD" stroke-width="0.5" stroke-linecap="square" stroke-miterlimit="10" x1="97.697" y1="20.333" x2="83.697" y2="17.333"/>
		
			<line fill="none" stroke="#9ACDCD" stroke-width="0.5" stroke-linecap="square" stroke-miterlimit="10" x1="81.697" y1="20.333" x2="67.697" y2="17.333"/>
		
			<line fill="none" stroke="#9ACDCD" stroke-width="0.5" stroke-linecap="square" stroke-miterlimit="10" x1="65.697" y1="20.333" x2="51.697" y2="17.333"/>
		<path fill="none" stroke="#9ACDCD" stroke-width="0.5" stroke-linecap="square" stroke-miterlimit="10" d="M49.697,20.333
			C30.842,19.969,31,60,31,60"/>
		
			<rect x="63.697" y="31.333" fill="none" stroke="#E5B7B7" stroke-width="0.9014" stroke-miterlimit="10" stroke-dasharray="0.9014,1.8028" width="12" height="13"/>
		
			<rect x="95.697" y="31.333" fill="none" stroke="#E5B7B7" stroke-width="0.9014" stroke-miterlimit="10" stroke-dasharray="0.9014,1.8028" width="12" height="13"/>
		
			<rect x="79.697" y="31.333" fill="none" stroke="#E5B7B7" stroke-width="0.9014" stroke-miterlimit="10" stroke-dasharray="0.9014,1.8028" width="12" height="13"/>
		
			<line fill="none" stroke="#E5B7B7" stroke-width="1.5" stroke-linecap="round" stroke-linejoin="round" stroke-miterlimit="10" x1="81.697" y1="63.334" x2="97.697" y2="63.334"/>
		
			<circle fill="none" stroke="#E5B7B7" stroke-width="1.5" stroke-linecap="round" stroke-linejoin="round" stroke-miterlimit="10" cx="97.697" cy="63.334" r="2"/>
		
			<rect x="47.697" y="31.333" fill="none" stroke="#E5B7B7" stroke-width="0.9014" stroke-miterlimit="10" stroke-dasharray="0.9014,1.8028" width="12" height="13"/>
		
			<rect x="31.697" y="31.333" fill="none" stroke="#E5B7B7" stroke-width="0.9014" stroke-miterlimit="10" stroke-dasharray="0.9014,1.8028" width="12" height="13"/>
		
			<line fill="none" stroke="#E5B7B7" stroke-width="1.5" stroke-linecap="round" stroke-linejoin="round" stroke-miterlimit="10" x1="49.697" y1="63.334" x2="65.697" y2="63.334"/>
		
			<circle fill="none" stroke="#E5B7B7" stroke-width="1.5" stroke-linecap="round" stroke-linejoin="round" stroke-miterlimit="10" cx="65.697" cy="63.334" r="2"/>
		
			<line fill="none" stroke="#E5B7B7" stroke-width="1.5" stroke-linecap="round" stroke-linejoin="round" stroke-miterlimit="10" x1="31" y1="60" x2="31" y2="28"/>
		
			<circle fill="none" stroke="#E5B7B7" stroke-width="1.5" stroke-linecap="round" stroke-linejoin="round" stroke-miterlimit="10" cx="31" cy="28" r="2"/>
		
			<line fill="none" stroke="#E5B7B7" stroke-width="1.5" stroke-linecap="round" stroke-linejoin="round" stroke-miterlimit="10" x1="61.697" y1="56.334" x2="77.697" y2="56.334"/>
		
			<circle fill="none" stroke="#E5B7B7" stroke-width="1.5" stroke-linecap="round" stroke-linejoin="round" stroke-miterlimit="10" cx="77.697" cy="56.334" r="2"/>
		
			<line fill="none" stroke="#9ACDCD" stroke-width="0.5" stroke-linecap="square" stroke-miterlimit="10" x1="22.75" y1="47.333" x2="45.697" y2="47.333"/>
		<path fill="none" stroke="#9ACDCD" stroke-width="0.6177" stroke-linecap="square" stroke-miterlimit="10" d="M95.697,50.333
			c6.592-1.018-6,10.325-2,6"/>
		<path fill="none" stroke="#9ACDCD" stroke-width="0.5" stroke-linecap="square" stroke-miterlimit="10" d="M109.697,47.333
			c-14.829-0.208,0,12.542-16,9"/>
		
			<line fill="none" stroke="#E5B7B7" stroke-width="1.5" stroke-linecap="round" stroke-linejoin="round" stroke-miterlimit="10" x1="93.697" y1="56.334" x2="109.697" y2="56.334"/>
		
			<circle fill="none" stroke="#E5B7B7" stroke-width="1.5" stroke-linecap="round" stroke-linejoin="round" stroke-miterlimit="10" cx="109.697" cy="56.334" r="2"/>
		<polyline fill="none" stroke="#9ACDCD" stroke-width="1.5" stroke-linecap="square" stroke-miterlimit="10" points="-91.689,-12 
			-93.689,-9 -91.689,-6 		"/>
		<path fill="none" stroke="#9ACDCD" stroke-width="0.5" stroke-linecap="square" stroke-miterlimit="10" d="M-91.689-6
			c8-4.875-22.125-10-16-22"/>
		<polyline fill="none" stroke="#9ACDCD" stroke-width="1.5" stroke-linecap="square" stroke-miterlimit="10" points="-75.689,-12 
			-77.689,-9 -75.689,-6 		"/>
		<path fill="none" stroke="#9ACDCD" stroke-width="0.5" stroke-linecap="square" stroke-miterlimit="10" d="M-77.689-9
			c-9.807,0-13.722-19-30-19"/>
		<polyline fill="none" stroke="#9ACDCD" stroke-width="1.5" stroke-linecap="square" stroke-miterlimit="10" points="-71.689,-7 
			-73.689,-4 -71.689,-1 		"/>
		<polyline fill="none" stroke="#9ACDCD" stroke-width="1.5" stroke-linecap="square" stroke-miterlimit="10" points="-87.689,-1 
			-89.689,-4 -87.689,-7 		"/>
		<path fill="none" stroke="#9ACDCD" stroke-width="0.5" stroke-linecap="square" stroke-miterlimit="10" d="M-87.689-7
			c6.58,0,0.606-5-4-5"/>
		<path fill="none" stroke="#9ACDCD" stroke-width="0.5" stroke-linecap="square" stroke-miterlimit="10" d="M-71.689-7
			c5.377,0-0.594-5-4-5"/>
		
			<line fill="none" stroke="#9ACDCD" stroke-width="0.5" stroke-linecap="square" stroke-miterlimit="10" x1="-73.689" y1="-4" x2="-87.689" y2="-1"/>
		
			<line fill="none" stroke="#9ACDCD" stroke-width="0.5" stroke-linecap="square" stroke-miterlimit="10" x1="-89.689" y1="-4" x2="-103.689" y2="-1"/>
		<rect x="-75.689" y="-28" fill="none" stroke="#E5B7B7" stroke-miterlimit="10" stroke-dasharray="1,2" width="12" height="16"/>
		
			<rect x="-91.689" y="-25" fill="none" stroke="#E5B7B7" stroke-width="0.9014" stroke-miterlimit="10" stroke-dasharray="0.9014,1.8028" width="12" height="13"/>
		
			<line fill="none" stroke="#E5B7B7" stroke-width="1.5" stroke-linecap="round" stroke-linejoin="round" stroke-miterlimit="10" x1="-107.689" y1="-28" x2="-91.689" y2="-28"/>
		
			<circle fill="none" stroke="#E5B7B7" stroke-width="1.5" stroke-linecap="round" stroke-linejoin="round" stroke-miterlimit="10" cx="-91.689" cy="-28" r="2"/>
		<path fill="none" stroke="#9ACDCD" stroke-width="0.6177" stroke-linecap="square" stroke-miterlimit="10" d="M-75.689-6
			c6.592-1.018-20-24.676-16-29"/>
		<path fill="none" stroke="#9ACDCD" stroke-width="0.5" stroke-linecap="square" stroke-miterlimit="10" d="M-61.689-9
			c-14.829-0.208-14-22.458-30-26"/>
		
			<line fill="none" stroke="#E5B7B7" stroke-width="1.5" stroke-linecap="round" stroke-linejoin="round" stroke-miterlimit="10" x1="-91.689" y1="-35" x2="-75.689" y2="-35"/>
		
			<circle fill="none" stroke="#E5B7B7" stroke-width="1.5" stroke-linecap="round" stroke-linejoin="round" stroke-miterlimit="10" cx="-75.689" cy="-35" r="2"/>
		
			<line fill="none" stroke="#E5B7B7" stroke-width="0.9014" stroke-miterlimit="10" stroke-dasharray="0.5,0.5" x1="-91.689" y1="-35" x2="-79.689" y2="-25"/>
		<polyline fill="none" stroke="#9ACDCD" stroke-width="1.5" stroke-linecap="square" stroke-miterlimit="10" points="
			175.697,44.333 173.697,47.333 175.697,50.333 		"/>
		<path fill="none" stroke="#9ACDCD" stroke-width="0.5" stroke-linecap="square" stroke-miterlimit="10" d="M175.697,50.333
			c8-4.875-4.125,25,2,13"/>
		<polyline fill="none" stroke="#9ACDCD" stroke-width="1.5" stroke-linecap="square" stroke-miterlimit="10" points="
			191.697,44.333 189.697,47.333 191.697,50.333 		"/>
		<polyline fill="none" stroke="#9ACDCD" stroke-width="1.5" stroke-linecap="square" stroke-miterlimit="10" points="
			195.697,23.333 193.697,20.333 195.697,17.333 		"/>
		<polyline fill="none" stroke="#9ACDCD" stroke-width="1.5" stroke-linecap="square" stroke-miterlimit="10" points="
			179.697,17.333 177.697,20.333 179.697,23.333 		"/>
		<path fill="none" stroke="#9ACDCD" stroke-width="0.5" stroke-linecap="square" stroke-miterlimit="10" d="M179.697,23.333
			c6.58,0,0.605,21-4,21"/>
		<path fill="none" stroke="#9ACDCD" stroke-width="0.5" stroke-linecap="square" stroke-miterlimit="10" d="M195.697,23.333
			c5.377,0-0.595,21-4,21"/>
		
			<line fill="none" stroke="#9ACDCD" stroke-width="0.5" stroke-linecap="square" stroke-miterlimit="10" x1="193.697" y1="20.333" x2="179.697" y2="17.333"/>
		
			<line fill="none" stroke="#9ACDCD" stroke-width="0.5" stroke-linecap="square" stroke-miterlimit="10" x1="177.697" y1="20.333" x2="163.697" y2="17.333"/>
		
			<rect x="191.697" y="31.333" fill="none" stroke="#E5B7B7" stroke-width="0.9014" stroke-miterlimit="10" stroke-dasharray="0.9014,1.8028" width="12" height="13"/>
		
			<rect x="175.697" y="31.333" fill="none" stroke="#E5B7B7" stroke-width="0.9014" stroke-miterlimit="10" stroke-dasharray="0.9014,1.8028" width="12" height="13"/>
		
			<line fill="none" stroke="#E5B7B7" stroke-width="1.5" stroke-linecap="round" stroke-linejoin="round" stroke-miterlimit="10" x1="177.697" y1="63.334" x2="193.697" y2="63.334"/>
		
			<circle fill="none" stroke="#E5B7B7" stroke-width="1.5" stroke-linecap="round" stroke-linejoin="round" stroke-miterlimit="10" cx="193.697" cy="63.334" r="2"/>
		<path fill="none" stroke="#9ACDCD" stroke-width="0.6177" stroke-linecap="square" stroke-miterlimit="10" d="M191.697,50.333
			c6.592-1.018-6,10.325-2,6"/>
		<polyline fill="none" stroke="#9ACDCD" stroke-width="1.5" stroke-linecap="square" stroke-miterlimit="10" points="
			143.697,44.333 141.697,47.333 143.697,50.333 		"/>
		<path fill="none" stroke="#9ACDCD" stroke-width="0.5" stroke-linecap="square" stroke-miterlimit="10" d="M143.697,50.333
			c8-4.875-4.125,25,2,13"/>
		<polyline fill="none" stroke="#9ACDCD" stroke-width="1.5" stroke-linecap="square" stroke-miterlimit="10" points="
			159.697,44.333 157.697,47.333 159.697,50.333 		"/>
		<path fill="none" stroke="#9ACDCD" stroke-width="0.5" stroke-linecap="square" stroke-miterlimit="10" d="M157.697,47.333
			c-9.809,0,4.277,16-12,16"/>
		<path fill="none" stroke="#9ACDCD" stroke-width="0.5" stroke-linecap="square" stroke-miterlimit="10" d="M189.697,47.333
			c-9.809,0,4.277,16-12,16"/>
		<polyline fill="none" stroke="#9ACDCD" stroke-width="1.5" stroke-linecap="square" stroke-miterlimit="10" points="
			163.697,23.333 161.697,20.333 163.697,17.333 		"/>
		<polyline fill="none" stroke="#9ACDCD" stroke-width="1.5" stroke-linecap="square" stroke-miterlimit="10" points="
			147.697,17.333 145.697,20.333 147.697,23.333 		"/>
		<path fill="none" stroke="#9ACDCD" stroke-width="0.5" stroke-linecap="square" stroke-miterlimit="10" d="M147.697,23.333
			c6.58,0,0.605,21-4,21"/>
		<path fill="none" stroke="#9ACDCD" stroke-width="0.5" stroke-linecap="square" stroke-miterlimit="10" d="M163.697,23.333
			c5.377,0-0.596,21-4,21"/>
		
			<line fill="none" stroke="#9ACDCD" stroke-width="0.5" stroke-linecap="square" stroke-miterlimit="10" x1="161.697" y1="20.333" x2="147.697" y2="17.333"/>
		
			<line fill="none" stroke="#9ACDCD" stroke-width="0.5" stroke-linecap="square" stroke-miterlimit="10" x1="145.697" y1="20.333" x2="131.697" y2="17.333"/>
		
			<rect x="159.697" y="31.333" fill="none" stroke="#E5B7B7" stroke-width="0.9014" stroke-miterlimit="10" stroke-dasharray="0.9014,1.8028" width="12" height="13"/>
		
			<rect x="143.697" y="31.333" fill="none" stroke="#E5B7B7" stroke-width="0.9014" stroke-miterlimit="10" stroke-dasharray="0.9014,1.8028" width="12" height="13"/>
		
			<line fill="none" stroke="#E5B7B7" stroke-width="1.5" stroke-linecap="round" stroke-linejoin="round" stroke-miterlimit="10" x1="145.697" y1="63.334" x2="161.697" y2="63.334"/>
		
			<circle fill="none" stroke="#E5B7B7" stroke-width="1.5" stroke-linecap="round" stroke-linejoin="round" stroke-miterlimit="10" cx="161.697" cy="63.334" r="2"/>
		<path fill="none" stroke="#9ACDCD" stroke-width="0.6177" stroke-linecap="square" stroke-miterlimit="10" d="M159.697,50.333
			c6.592-1.018-6,10.325-2,6"/>
		<path fill="none" stroke="#9ACDCD" stroke-width="0.5" stroke-linecap="square" stroke-miterlimit="10" d="M173.697,47.333
			c-14.828-0.208,0,12.542-16,9"/>
		
			<line fill="none" stroke="#E5B7B7" stroke-width="1.5" stroke-linecap="round" stroke-linejoin="round" stroke-miterlimit="10" x1="157.697" y1="56.334" x2="173.697" y2="56.334"/>
		
			<circle fill="none" stroke="#E5B7B7" stroke-width="1.5" stroke-linecap="round" stroke-linejoin="round" stroke-miterlimit="10" cx="173.697" cy="56.334" r="2"/>
		<polyline fill="none" stroke="#9ACDCD" stroke-width="1.5" stroke-linecap="square" stroke-miterlimit="10" points="
			111.697,44.333 109.697,47.333 111.697,50.333 		"/>
		<path fill="none" stroke="#9ACDCD" stroke-width="0.5" stroke-linecap="square" stroke-miterlimit="10" d="M111.697,50.333
			c8-4.875-4.125,25,2,13"/>
		<polyline fill="none" stroke="#9ACDCD" stroke-width="1.5" stroke-linecap="square" stroke-miterlimit="10" points="
			127.697,44.333 125.697,47.333 127.697,50.333 		"/>
		<path fill="none" stroke="#9ACDCD" stroke-width="0.5" stroke-linecap="square" stroke-miterlimit="10" d="M125.697,47.333
			c-9.807,0,4.278,16-12,16"/>
		<polyline fill="none" stroke="#9ACDCD" stroke-width="1.5" stroke-linecap="square" stroke-miterlimit="10" points="
			131.697,23.333 129.697,20.333 131.697,17.333 		"/>
		<polyline fill="none" stroke="#9ACDCD" stroke-width="1.5" stroke-linecap="square" stroke-miterlimit="10" points="
			115.697,17.333 113.697,20.333 115.697,23.333 		"/>
		<path fill="none" stroke="#9ACDCD" stroke-width="0.5" stroke-linecap="square" stroke-miterlimit="10" d="M115.697,23.333
			c6.58,0,0.606,21-4,21"/>
		<path fill="none" stroke="#9ACDCD" stroke-width="0.5" stroke-linecap="square" stroke-miterlimit="10" d="M131.697,23.333
			c5.377,0-0.594,21-4,21"/>
		
			<line fill="none" stroke="#9ACDCD" stroke-width="0.5" stroke-linecap="square" stroke-miterlimit="10" x1="129.697" y1="20.333" x2="115.697" y2="17.333"/>
		
			<line fill="none" stroke="#9ACDCD" stroke-width="0.5" stroke-linecap="square" stroke-miterlimit="10" x1="113.697" y1="20.333" x2="99.697" y2="17.333"/>
		
			<rect x="127.697" y="31.333" fill="none" stroke="#E5B7B7" stroke-width="0.9014" stroke-miterlimit="10" stroke-dasharray="0.9014,1.8028" width="12" height="13"/>
		
			<rect x="111.697" y="31.333" fill="none" stroke="#E5B7B7" stroke-width="0.9014" stroke-miterlimit="10" stroke-dasharray="0.9014,1.8028" width="12" height="13"/>
		
			<line fill="none" stroke="#E5B7B7" stroke-width="1.5" stroke-linecap="round" stroke-linejoin="round" stroke-miterlimit="10" x1="113.697" y1="63.334" x2="129.697" y2="63.334"/>
		
			<circle fill="none" stroke="#E5B7B7" stroke-width="1.5" stroke-linecap="round" stroke-linejoin="round" stroke-miterlimit="10" cx="129.697" cy="63.334" r="2"/>
		<path fill="none" stroke="#9ACDCD" stroke-width="0.6177" stroke-linecap="square" stroke-miterlimit="10" d="M127.697,50.333
			c6.592-1.018-6,10.325-2,6"/>
		<path fill="none" stroke="#9ACDCD" stroke-width="0.5" stroke-linecap="square" stroke-miterlimit="10" d="M141.697,47.333
			c-14.829-0.208,0,12.542-16,9"/>
		
			<line fill="none" stroke="#E5B7B7" stroke-width="1.5" stroke-linecap="round" stroke-linejoin="round" stroke-miterlimit="10" x1="125.697" y1="56.334" x2="141.697" y2="56.334"/>
		
			<circle fill="none" stroke="#E5B7B7" stroke-width="1.5" stroke-linecap="round" stroke-linejoin="round" stroke-miterlimit="10" cx="141.697" cy="56.334" r="2"/>
		
			<line fill="none" stroke="#E5B7B7" stroke-width="0.9014" stroke-miterlimit="10" stroke-dasharray="0.5,0.5" x1="43.697" y1="44.333" x2="49.697" y2="63.334"/>
		
			<line fill="none" stroke="#E5B7B7" stroke-width="0.9014" stroke-miterlimit="10" stroke-dasharray="0.5,0.5" x1="59.697" y1="44.333" x2="61.697" y2="56.334"/>
		
			<line fill="none" stroke="#E5B7B7" stroke-width="0.9014" stroke-miterlimit="10" stroke-dasharray="0.5,0.5" x1="75.697" y1="44.333" x2="81.697" y2="63.334"/>
		
			<line fill="none" stroke="#E5B7B7" stroke-width="0.9014" stroke-miterlimit="10" stroke-dasharray="0.5,0.5" x1="91.697" y1="44.333" x2="93.697" y2="56.334"/>
		
			<line fill="none" stroke="#E5B7B7" stroke-width="0.9014" stroke-miterlimit="10" stroke-dasharray="0.5,0.5" x1="107.697" y1="44.333" x2="113.697" y2="63.334"/>
		
			<line fill="none" stroke="#E5B7B7" stroke-width="0.9014" stroke-miterlimit="10" stroke-dasharray="0.5,0.5" x1="123.697" y1="44.333" x2="125.697" y2="56.334"/>
		
			<line fill="none" stroke="#E5B7B7" stroke-width="0.9014" stroke-miterlimit="10" stroke-dasharray="0.5,0.5" x1="139.697" y1="44.333" x2="145.697" y2="63.334"/>
		
			<line fill="none" stroke="#E5B7B7" stroke-width="0.9014" stroke-miterlimit="10" stroke-dasharray="0.5,0.5" x1="155.697" y1="44.333" x2="157.697" y2="56.334"/>
		
			<line fill="none" stroke="#E5B7B7" stroke-width="0.9014" stroke-miterlimit="10" stroke-dasharray="0.5,0.5" x1="171.697" y1="44.333" x2="177.697" y2="63.334"/>
		
			<line fill="none" stroke="#E5B7B7" stroke-width="0.9014" stroke-miterlimit="10" stroke-dasharray="0.5,0.5" x1="187.697" y1="44.333" x2="189.697" y2="56.334"/>
		<polyline fill="none" stroke="#9ACDCD" stroke-width="1.5" stroke-linecap="square" stroke-miterlimit="10" points="
			207.697,44.333 205.697,47.333 207.697,50.333 		"/>
		<path fill="none" stroke="#9ACDCD" stroke-width="0.5" stroke-linecap="square" stroke-miterlimit="10" d="M207.697,50.333
			c8-4.875-4.125,25,2,13"/>
		<polyline fill="none" stroke="#9ACDCD" stroke-width="1.5" stroke-linecap="square" stroke-miterlimit="10" points="
			223.697,44.333 221.697,47.333 223.697,50.333 		"/>
		<polyline fill="none" stroke="#9ACDCD" stroke-width="1.5" stroke-linecap="square" stroke-miterlimit="10" points="
			227.697,23.333 225.697,20.333 227.697,17.333 		"/>
		<polyline fill="none" stroke="#9ACDCD" stroke-width="1.5" stroke-linecap="square" stroke-miterlimit="10" points="
			211.697,17.333 209.697,20.333 211.697,23.333 		"/>
		<path fill="none" stroke="#9ACDCD" stroke-width="0.5" stroke-linecap="square" stroke-miterlimit="10" d="M211.697,23.333
			c6.58,0,0.605,21-4,21"/>
		<path fill="none" stroke="#9ACDCD" stroke-width="0.5" stroke-linecap="square" stroke-miterlimit="10" d="M227.697,23.333
			c5.377,0-0.595,21-4,21"/>
		
			<line fill="none" stroke="#9ACDCD" stroke-width="0.5" stroke-linecap="square" stroke-miterlimit="10" x1="225.697" y1="20.333" x2="211.697" y2="17.333"/>
		
			<line fill="none" stroke="#9ACDCD" stroke-width="0.5" stroke-linecap="square" stroke-miterlimit="10" x1="209.697" y1="20.333" x2="195.697" y2="17.333"/>
		
			<rect x="223.697" y="31.333" fill="none" stroke="#E5B7B7" stroke-width="0.9014" stroke-miterlimit="10" stroke-dasharray="0.9014,1.8028" width="12" height="13"/>
		
			<rect x="207.697" y="31.333" fill="none" stroke="#E5B7B7" stroke-width="0.9014" stroke-miterlimit="10" stroke-dasharray="0.9014,1.8028" width="12" height="13"/>
		
			<line fill="none" stroke="#E5B7B7" stroke-width="1.5" stroke-linecap="round" stroke-linejoin="round" stroke-miterlimit="10" x1="209.697" y1="63.334" x2="225.697" y2="63.334"/>
		
			<circle fill="none" stroke="#E5B7B7" stroke-width="1.5" stroke-linecap="round" stroke-linejoin="round" stroke-miterlimit="10" cx="225.697" cy="63.334" r="2"/>
		<path fill="none" stroke="#9ACDCD" stroke-width="0.6177" stroke-linecap="square" stroke-miterlimit="10" d="M223.697,50.333
			c6.592-1.018-6,10.325-2,6"/>
		<path fill="none" stroke="#9ACDCD" stroke-width="0.5" stroke-linecap="square" stroke-miterlimit="10" d="M221.697,47.333
			c-9.809,0,4.277,16-12,16"/>
		<path fill="none" stroke="#9ACDCD" stroke-width="0.5" stroke-linecap="square" stroke-miterlimit="10" d="M205.697,47.333
			c-14.828-0.208,0,12.542-16,9"/>
		
			<line fill="none" stroke="#E5B7B7" stroke-width="1.5" stroke-linecap="round" stroke-linejoin="round" stroke-miterlimit="10" x1="189.697" y1="56.334" x2="205.697" y2="56.334"/>
		
			<circle fill="none" stroke="#E5B7B7" stroke-width="1.5" stroke-linecap="round" stroke-linejoin="round" stroke-miterlimit="10" cx="205.697" cy="56.334" r="2"/>
		
			<line fill="none" stroke="#E5B7B7" stroke-width="0.9014" stroke-miterlimit="10" stroke-dasharray="0.5,0.5" x1="203.697" y1="44.333" x2="209.697" y2="63.334"/>
		
			<line fill="none" stroke="#E5B7B7" stroke-width="0.9014" stroke-miterlimit="10" stroke-dasharray="0.5,0.5" x1="219.697" y1="44.333" x2="221.697" y2="56.334"/>
		<polyline fill="none" stroke="#9ACDCD" stroke-width="1.5" stroke-linecap="square" stroke-miterlimit="10" points="
			255.5,-33.136 253.5,-30.136 255.5,-27.136 		"/>
		<path fill="none" stroke="#9ACDCD" stroke-width="0.5" stroke-linecap="square" stroke-miterlimit="10" d="M255.5-27.136
			c8-4.875-4.125,25,2,13"/>
		<polyline fill="none" stroke="#9ACDCD" stroke-width="1.5" stroke-linecap="square" stroke-miterlimit="10" points="
			271.5,-33.136 269.5,-30.136 271.5,-27.136 		"/>
		<polyline fill="none" stroke="#9ACDCD" stroke-width="1.5" stroke-linecap="square" stroke-miterlimit="10" points="
			275.5,-54.136 273.5,-57.136 275.5,-60.136 		"/>
		<polyline fill="none" stroke="#9ACDCD" stroke-width="1.5" stroke-linecap="square" stroke-miterlimit="10" points="
			259.5,-60.136 257.5,-57.136 259.5,-54.136 		"/>
		<path fill="none" stroke="#9ACDCD" stroke-width="0.5" stroke-linecap="square" stroke-miterlimit="10" d="M259.5-54.136
			c6.58,0,0.605,21-4,21"/>
		<path fill="none" stroke="#9ACDCD" stroke-width="0.5" stroke-linecap="square" stroke-miterlimit="10" d="M275.5-54.136
			c5.377,0-0.595,21-4,21"/>
		
			<line fill="none" stroke="#9ACDCD" stroke-width="0.5" stroke-linecap="square" stroke-miterlimit="10" x1="273.5" y1="-57.136" x2="259.5" y2="-60.136"/>
		
			<line fill="none" stroke="#9ACDCD" stroke-width="0.5" stroke-linecap="square" stroke-miterlimit="10" x1="257.5" y1="-57.136" x2="243.5" y2="-60.136"/>
		
			<rect x="271.5" y="-46.136" fill="none" stroke="#E5B7B7" stroke-width="0.9014" stroke-miterlimit="10" stroke-dasharray="0.9014,1.8028" width="12" height="13"/>
		
			<rect x="255.5" y="-46.136" fill="none" stroke="#E5B7B7" stroke-width="0.9014" stroke-miterlimit="10" stroke-dasharray="0.9014,1.8028" width="12" height="13"/>
		
			<line fill="none" stroke="#E5B7B7" stroke-width="1.5" stroke-linecap="round" stroke-linejoin="round" stroke-miterlimit="10" x1="257.5" y1="-14.136" x2="273.5" y2="-14.136"/>
		
			<circle fill="none" stroke="#E5B7B7" stroke-width="1.5" stroke-linecap="round" stroke-linejoin="round" stroke-miterlimit="10" cx="273.5" cy="-14.136" r="2"/>
		<path fill="none" stroke="#9ACDCD" stroke-width="0.6177" stroke-linecap="square" stroke-miterlimit="10" d="M271.5-27.136
			c6.592-1.018-6,10.325-2,6"/>
		<path fill="none" stroke="#9ACDCD" stroke-width="0.5" stroke-linecap="square" stroke-miterlimit="10" d="M269.5-30.136
			c-9.809,0,4.277,16-12,16"/>
		<path fill="none" stroke="#9ACDCD" stroke-width="0.5" stroke-linecap="square" stroke-miterlimit="10" d="M253.5-30.136
			c-14.828-0.208,0,12.542-16,9"/>
		
			<line fill="none" stroke="#E5B7B7" stroke-width="1.5" stroke-linecap="round" stroke-linejoin="round" stroke-miterlimit="10" x1="237.5" y1="-21.136" x2="253.5" y2="-21.136"/>
		
			<circle fill="none" stroke="#E5B7B7" stroke-width="1.5" stroke-linecap="round" stroke-linejoin="round" stroke-miterlimit="10" cx="253.5" cy="-21.136" r="2"/>
		
			<line fill="none" stroke="#E5B7B7" stroke-width="0.9014" stroke-miterlimit="10" stroke-dasharray="0.5,0.5" x1="251.5" y1="-33.136" x2="257.5" y2="-14.136"/>
		
			<line fill="none" stroke="#E5B7B7" stroke-width="0.9014" stroke-miterlimit="10" stroke-dasharray="0.5,0.5" x1="267.5" y1="-33.136" x2="269.5" y2="-21.136"/>
	</g>
</g>
</svg>
