<?xml version="1.0" encoding="utf-8"?>
<!-- Generator: Adobe Illustrator 15.0.0, SVG Export Plug-In . SVG Version: 6.00 Build 0)  -->
<!DOCTYPE svg PUBLIC "-//W3C//DTD SVG 1.1//EN" "http://www.w3.org/Graphics/SVG/1.1/DTD/svg11.dtd">
<svg version="1.1" id="Ebene_1" xmlns="http://www.w3.org/2000/svg" xmlns:xlink="http://www.w3.org/1999/xlink" x="0px" y="0px"
	 width="3873.006px" height="2533.977px" viewBox="0 0 3873.006 2533.977" enable-background="new 0 0 3873.006 2533.977"
	 xml:space="preserve">
<g id="clip8">
	<rect id="rect6890-0_3_" x="2096.398" y="26.597" width="22.146" height="23.652"/>
	<rect id="rect6890-0_4_" x="2136.398" y="26.597" width="22.146" height="23.652"/>
	<rect id="rect6890-0_5_" x="2176.398" y="26.597" width="22.146" height="23.652"/>
	<rect id="rect6890-0_6_" x="2216.398" y="26.597" width="22.146" height="23.652"/>
	<rect id="rect6890-0_7_" x="2256.398" y="26.597" width="22.146" height="23.652"/>
	<rect id="rect6890-0_8_" x="2296.398" y="26.597" width="22.146" height="23.652"/>
	<rect id="rect6890-0_9_" x="2336.398" y="26.597" width="22.146" height="23.652"/>
	<rect id="rect6890-0_10_" x="2376.398" y="26.597" width="22.146" height="23.652"/>
	<rect id="rect6890-0_11_" x="2416.398" y="26.597" width="22.146" height="23.652"/>
	<rect id="rect6890-0_12_" x="2456.398" y="26.597" width="22.146" height="23.652"/>
	<rect id="rect6890-0_13_" x="2496.398" y="26.597" width="22.146" height="23.652"/>
	<rect id="rect6890-0_14_" x="2536.398" y="26.597" width="22.146" height="23.652"/>
	<rect id="rect6890-0_15_" x="2576.398" y="26.597" width="22.146" height="23.652"/>
	<rect id="rect6890-0_16_" x="2616.398" y="26.597" width="22.146" height="23.652"/>
	<rect id="rect6890-0_17_" x="2656.398" y="26.597" width="22.146" height="23.652"/>
	<rect id="rect6890-0_18_" x="2696.398" y="26.597" width="22.146" height="23.652"/>
	<rect id="rect6890-0_19_" x="2736.398" y="26.597" width="22.146" height="23.652"/>
	<rect id="rect6890-0_20_" x="2776.398" y="26.597" width="22.146" height="23.652"/>
	<rect id="rect6890-0_21_" x="2816.398" y="26.597" width="22.146" height="23.652"/>
	<rect id="rect6890-0_22_" x="2856.398" y="26.597" width="22.146" height="23.652"/>
	<rect id="rect6890-0_23_" x="2896.398" y="26.597" width="22.146" height="23.652"/>
	<rect id="rect6890-0_24_" x="2936.398" y="26.597" width="22.146" height="23.652"/>
	<rect id="rect6890-0_25_" x="2976.398" y="26.597" width="22.146" height="23.652"/>
	<rect id="rect6890-0_26_" x="3016.398" y="26.597" width="22.146" height="23.652"/>
	<rect id="rect6890-0_27_" x="3056.398" y="26.597" width="22.146" height="23.652"/>
	<rect id="rect6890-0_28_" x="3096.398" y="26.597" width="22.146" height="23.652"/>
	<rect id="rect6890-0_30_" x="3136.398" y="26.597" width="22.146" height="23.652"/>
	<rect id="rect6890-0_32_" x="3176.398" y="26.597" width="22.146" height="23.652"/>
	<rect id="rect6890-0_34_" x="3216.398" y="26.597" width="22.146" height="23.652"/>
	<rect id="rect6890-0_36_" x="3256.398" y="26.597" width="22.146" height="23.652"/>
	<rect id="rect6890-0_43_" x="3296.398" y="26.597" width="22.146" height="23.652"/>
	<rect id="rect6890-0_44_" x="3336.398" y="26.597" width="22.146" height="23.652"/>
	<rect id="rect6890-0_67_" x="3376.398" y="26.597" width="22.146" height="23.652"/>
	<rect id="rect6890-0_68_" x="3416.398" y="26.597" width="22.146" height="23.652"/>
	<rect id="rect6890-0_69_" x="3456.398" y="26.597" width="22.146" height="23.652"/>
	<rect id="rect6890-0_70_" x="3496.398" y="26.597" width="22.146" height="23.652"/>
	<rect id="rect6890-0_71_" x="3536.398" y="26.597" width="22.146" height="23.652"/>
	<rect id="rect6890-0_72_" x="3576.398" y="26.597" width="22.146" height="23.652"/>
	<rect id="rect6890-0_73_" x="3616.398" y="26.597" width="22.146" height="23.652"/>
	<rect id="rect6890-0_74_" x="3656.398" y="26.597" width="22.146" height="23.652"/>
	<rect id="rect6890-0_75_" x="3696.398" y="26.597" width="22.146" height="23.652"/>
	
		<line fill="none" stroke="#36683C" stroke-width="11.3386" stroke-linecap="round" stroke-linejoin="round" stroke-miterlimit="10" x1="53.758" y1="2214.67" x2="107.764" y2="2214.67"/>
	<text transform="matrix(1 0 0 1 53.7588 2186.3228)" fill="#36683C" font-family="'MyriadPro-Regular'" font-size="48">la_G.mp3</text>
	
		<line fill="none" stroke="#5868A0" stroke-width="11.3386" stroke-linecap="round" stroke-linejoin="round" stroke-miterlimit="10" x1="53.758" y1="1959.678" x2="107.764" y2="1959.678"/>
	<text transform="matrix(1 0 0 1 53.7588 1931.3335)" fill="#5868A0" font-family="'MyriadPro-Regular'" font-size="48">la_A.mp3</text>
	
		<line fill="none" stroke="#CE417A" stroke-width="11.3386" stroke-linecap="round" stroke-linejoin="round" stroke-miterlimit="10" x1="53.758" y1="1704.688" x2="107.764" y2="1704.688"/>
	<text transform="matrix(1 0 0 1 53.7588 1676.3442)" fill="#CE417A" font-family="'MyriadPro-Regular'" font-size="48">la_B.mp3</text>
	
		<line fill="none" stroke="#DBDB2A" stroke-width="11.3386" stroke-linecap="round" stroke-linejoin="round" stroke-miterlimit="10" x1="53.758" y1="1449.698" x2="107.764" y2="1449.698"/>
	<text transform="matrix(1 0 0 1 53.7588 1421.354)" fill="#DBDB2A" font-family="'MyriadPro-Regular'" font-size="48">la_C.mp3</text>
	
		<line fill="none" stroke="#00FFCC" stroke-width="11.3386" stroke-linecap="round" stroke-linejoin="round" stroke-miterlimit="10" x1="53.758" y1="1194.709" x2="107.764" y2="1194.709"/>
	<text transform="matrix(1 0 0 1 53.7588 1166.3628)" fill="#00FFCC" font-family="'MyriadPro-Regular'" font-size="48">la_D.mp3</text>
	
		<line fill="none" stroke="#1FDAFF" stroke-width="11.3386" stroke-linecap="round" stroke-linejoin="round" stroke-miterlimit="10" x1="53.758" y1="939.718" x2="107.764" y2="939.718"/>
	<text transform="matrix(1 0 0 1 53.7588 911.3726)" fill="#1FDAFF" font-family="'MyriadPro-Regular'" font-size="48">la_E.mp3</text>
	
		<line fill="none" stroke="#A2F246" stroke-width="11.3386" stroke-linecap="round" stroke-linejoin="round" stroke-miterlimit="10" x1="53.758" y1="684.728" x2="107.764" y2="684.728"/>
	<text transform="matrix(1 0 0 1 53.7588 656.3843)" fill="#A2F246" font-family="'MyriadPro-Regular'" font-size="48">la_F.mp3</text>
	
		<line fill="none" stroke="#EDA94F" stroke-width="11.3386" stroke-linecap="round" stroke-linejoin="round" stroke-miterlimit="10" x1="53.758" y1="429.736" x2="107.764" y2="429.736"/>
	<text transform="matrix(1 0 0 1 53.7588 401.3931)" fill="#EDA94F" font-family="'MyriadPro-Regular'" font-size="48">la_G2.mp3</text>
	
		<path id="path4145-6_1_" fill="none" stroke="#B2B2B2" stroke-width="5" d="
		M176.697,2414.354c-5.216-43.104,46.933-29.332,122.758-13.332"/>
	
		<circle id="circle6876-4" fill="#28434C" stroke="#28434C" stroke-width="6" stroke-miterlimit="10" cx="176.697" cy="2414.354" r="12"/>
	
		<rect id="rect6874" x="2086.081" y="295.468" fill="none" stroke="#000000" stroke-width="9.03" stroke-miterlimit="10" stroke-dasharray="9.03,18.06" width="42.783" height="134.277"/>
	
		<rect id="rect6874_4_" x="299.457" y="81.632" fill="none" stroke="#000000" stroke-width="9.03" stroke-miterlimit="10" stroke-dasharray="17.0079,8.5039" width="31.713" height="2319.39"/>
	
		<rect id="rect6874_1_" x="1982.148" y="391.373" fill="none" stroke="#000000" stroke-width="2.8346" stroke-miterlimit="10" stroke-dasharray="2.8346,4.252" width="24.25" height="24.199"/>
	
		<path id="path4145_1_" fill="none" stroke="#B2B2B2" stroke-width="5" d="
		M1859.316,113.193c6.939,33.02,72.231,16.347,72.231,122.819"/>
	<path id="path5326" fill="none" stroke="#B2B2B2" stroke-width="5" d="
		M1913.648,257.632c-6,100,146.765-89,146.765,6.836"/>
	
		<path id="path5326_1_" fill="none" stroke="#B2B2B2" stroke-width="5" d="
		M2086.081,295.468c21.567,32.164-41.433,134.277,0,134.277"/>
	
		<path id="path5326_2_" fill="none" stroke="#B2B2B2" stroke-width="5" d="
		M2006.398,415.573c41.433,0,6.777-87.94,28.349-120.104"/>
	
		<path id="path5326_6_" fill="none" stroke="#B2B2B2" stroke-width="5" d="
		M2078.313,453.328c-1.664-17.723,2.855-17.39,7.769-23.583"/>
	
		<path id="path5326_5_" fill="none" stroke="#B2B2B2" stroke-width="5" d="
		M2060.413,519.458c17.899-25.087-9.765-23.674,0-44.51"/>
	
		<path id="path5326_7_" fill="none" stroke="#B2B2B2" stroke-width="5" d="
		M2042.514,453.328c0.936-12.723-27.421-26.688-36.113-37.755"/>
	
		<rect id="rect6874-1_1_" x="351.134" y="81.632" fill="none" stroke="#000000" stroke-width="9.03" stroke-miterlimit="10" stroke-dasharray="9.03,18.06" width="3383.032" height="2319.39"/>
	
		<path id="line6886_5_" fill="none" stroke="#429DDB" stroke-width="18" stroke-linecap="round" stroke-linejoin="round" stroke-miterlimit="10" d="
		M1945.98,429.745"/>
	
		<path id="line6886_4_" fill="none" stroke="#429DDB" stroke-width="18" stroke-linecap="round" stroke-linejoin="round" stroke-miterlimit="10" d="
		M2086.081,429.745"/>
	
		<line id="line6886_1_" fill="none" stroke="#28434C" stroke-width="11.3386" stroke-linecap="round" stroke-linejoin="round" stroke-miterlimit="10" x1="1982.175" y1="391.348" x2="2006.398" y2="415.573"/>
	
		<circle id="circle6876" fill="#28434C" stroke="#28434C" stroke-width="11.3386" stroke-linecap="round" stroke-linejoin="round" stroke-miterlimit="10" cx="1859.316" cy="113.193" r="12"/>
	
		<circle id="circle6876-3-2" fill="none" stroke="#28434C" stroke-width="6" stroke-miterlimit="10" cx="176.697" cy="2414.354" r="24"/>
	<polyline fill="none" stroke="#28434C" stroke-width="8.5039" stroke-miterlimit="10" points="2034.747,295.468 2060.413,264.468 
		2086.081,295.468 	"/>
	<polyline fill="none" stroke="#28434C" stroke-width="8.5039" stroke-miterlimit="10" points="1931.548,236.012 1913.648,257.632 
		1895.749,236.012 	"/>
	<polyline fill="none" stroke="#28434C" stroke-width="8.5039" stroke-miterlimit="10" points="2078.313,453.328 2060.413,474.948 
		2042.514,453.328 	"/>
	
		<line id="line6886" fill="none" stroke="#EDA94F" stroke-width="11.3386" stroke-linecap="round" stroke-linejoin="round" stroke-miterlimit="10" x1="2086.081" y1="429.745" x2="1945.98" y2="429.745"/>
	
		<rect id="rect6874_3_" x="2086.081" y="550.458" fill="none" stroke="#000000" stroke-width="9.03" stroke-miterlimit="10" stroke-dasharray="9.03,18.06" width="42.783" height="134.277"/>
	
		<rect id="rect6874_2_" x="1982.148" y="646.362" fill="none" stroke="#000000" stroke-width="2.8346" stroke-miterlimit="10" stroke-dasharray="2.8346,4.252" width="24.25" height="24.198"/>
	
		<path id="path5326_10_" fill="none" stroke="#B2B2B2" stroke-width="5" d="
		M2086.081,550.458c21.567,32.164-41.433,134.277,0,134.277"/>
	
		<path id="path5326_9_" fill="none" stroke="#B2B2B2" stroke-width="5" d="
		M2006.398,670.563c41.433,0,6.777-87.94,28.349-120.104"/>
	
		<path id="path5326_8_" fill="none" stroke="#B2B2B2" stroke-width="5" d="
		M2078.313,708.317c-1.664-17.724,2.855-17.39,7.769-23.583"/>
	
		<path id="path5326_4_" fill="none" stroke="#B2B2B2" stroke-width="5" d="
		M2060.413,774.447c17.899-25.088-9.765-23.677,0-44.511"/>
	
		<path id="path5326_3_" fill="none" stroke="#B2B2B2" stroke-width="5" d="
		M2042.514,708.317c0.936-12.724-27.421-26.687-36.113-37.754"/>
	
		<path id="line6886_6_" fill="none" stroke="#429DDB" stroke-width="18" stroke-linecap="round" stroke-linejoin="round" stroke-miterlimit="10" d="
		M2086.081,684.735"/>
	
		<line id="line6886_3_" fill="none" stroke="#28434C" stroke-width="11.3386" stroke-linecap="round" stroke-linejoin="round" stroke-miterlimit="10" x1="1982.175" y1="646.337" x2="2006.398" y2="670.563"/>
	<polyline fill="none" stroke="#28434C" stroke-width="8.5039" stroke-miterlimit="10" points="2034.747,550.458 2060.413,519.458 
		2086.081,550.458 	"/>
	<polyline fill="none" stroke="#28434C" stroke-width="8.5039" stroke-miterlimit="10" points="2078.313,708.317 2060.413,729.938 
		2042.514,708.317 	"/>
	
		<line id="line6886_2_" fill="none" stroke="#A2F246" stroke-width="11.3386" stroke-linecap="round" stroke-linejoin="round" stroke-miterlimit="10" x1="2086.081" y1="684.735" x2="1945.98" y2="684.735"/>
	
		<rect id="rect6874_6_" x="2086.081" y="805.447" fill="none" stroke="#000000" stroke-width="9.03" stroke-miterlimit="10" stroke-dasharray="9.03,18.06" width="42.783" height="134.274"/>
	
		<rect id="rect6874_5_" x="1982.148" y="901.353" fill="none" stroke="#000000" stroke-width="2.8346" stroke-miterlimit="10" stroke-dasharray="2.8346,4.252" width="24.25" height="24.199"/>
	
		<path id="path5326_15_" fill="none" stroke="#B2B2B2" stroke-width="5" d="
		M2086.081,805.447c21.567,32.164-41.433,134.274,0,134.274"/>
	
		<path id="path5326_14_" fill="none" stroke="#B2B2B2" stroke-width="5" d="
		M2006.398,925.552c41.433,0,6.777-87.938,28.349-120.104"/>
	
		<path id="path5326_13_" fill="none" stroke="#B2B2B2" stroke-width="5" d="
		M2078.313,963.308c-1.664-17.723,2.855-17.389,7.769-23.584"/>
	
		<path id="path5326_12_" fill="none" stroke="#B2B2B2" stroke-width="5" d="
		M2060.413,1029.437c17.899-25.086-9.765-23.674,0-44.51"/>
	
		<path id="path5326_11_" fill="none" stroke="#B2B2B2" stroke-width="5" d="
		M2042.514,963.308c0.936-12.723-27.421-26.686-36.113-37.756"/>
	
		<path id="line6886_9_" fill="none" stroke="#429DDB" stroke-width="18" stroke-linecap="round" stroke-linejoin="round" stroke-miterlimit="10" d="
		M2086.081,939.724"/>
	
		<line id="line6886_8_" fill="none" stroke="#28434C" stroke-width="11.3386" stroke-linecap="round" stroke-linejoin="round" stroke-miterlimit="10" x1="1982.175" y1="901.327" x2="2006.398" y2="925.552"/>
	<polyline fill="none" stroke="#28434C" stroke-width="8.5039" stroke-miterlimit="10" points="2034.747,805.448 2060.413,774.447 
		2086.081,805.447 	"/>
	<polyline fill="none" stroke="#28434C" stroke-width="8.5039" stroke-miterlimit="10" points="2078.313,963.308 2060.413,984.927 
		2042.514,963.308 	"/>
	
		<line id="line6886_7_" fill="none" stroke="#1FDAFF" stroke-width="11.3386" stroke-linecap="round" stroke-linejoin="round" stroke-miterlimit="10" x1="2086.081" y1="939.724" x2="1945.98" y2="939.724"/>
	
		<rect id="rect6874_8_" x="2086.081" y="1060.437" fill="none" stroke="#000000" stroke-width="9.03" stroke-miterlimit="10" stroke-dasharray="9.03,18.06" width="42.783" height="134.277"/>
	
		<rect id="rect6874_7_" x="1982.148" y="1156.343" fill="none" stroke="#000000" stroke-width="2.8346" stroke-miterlimit="10" stroke-dasharray="2.8346,4.252" width="24.25" height="24.199"/>
	
		<path id="path5326_20_" fill="none" stroke="#B2B2B2" stroke-width="5" d="
		M2086.081,1060.437c21.567,32.164-41.433,134.277,0,134.277"/>
	
		<path id="path5326_19_" fill="none" stroke="#B2B2B2" stroke-width="5" d="
		M2006.398,1180.542c41.433,0,6.777-87.939,28.349-120.104"/>
	
		<path id="path5326_18_" fill="none" stroke="#B2B2B2" stroke-width="5" d="
		M2078.313,1218.298c-1.664-17.723,2.855-17.389,7.769-23.584"/>
	
		<path id="path5326_17_" fill="none" stroke="#B2B2B2" stroke-width="5" d="
		M2060.413,1284.422c17.899-25.083-9.765-23.671,0-44.505"/>
	
		<path id="path5326_16_" fill="none" stroke="#B2B2B2" stroke-width="5" d="
		M2042.514,1218.298c0.936-12.723-27.421-26.686-36.113-37.756"/>
	
		<path id="line6886_12_" fill="none" stroke="#429DDB" stroke-width="18" stroke-linecap="round" stroke-linejoin="round" stroke-miterlimit="10" d="
		M2086.081,1194.714"/>
	
		<line id="line6886_11_" fill="none" stroke="#28434C" stroke-width="11.3386" stroke-linecap="round" stroke-linejoin="round" stroke-miterlimit="10" x1="1982.175" y1="1156.317" x2="2006.398" y2="1180.542"/>
	<polyline fill="none" stroke="#28434C" stroke-width="8.5039" stroke-miterlimit="10" points="2034.747,1060.438 
		2060.413,1029.437 2086.081,1060.437 	"/>
	<polyline fill="none" stroke="#28434C" stroke-width="8.5039" stroke-miterlimit="10" points="2078.313,1218.298 
		2060.413,1239.917 2042.514,1218.298 	"/>
	
		<line id="line6886_10_" fill="none" stroke="#00FFCC" stroke-width="11.3386" stroke-linecap="round" stroke-linejoin="round" stroke-miterlimit="10" x1="2086.081" y1="1194.714" x2="1945.98" y2="1194.714"/>
	
		<rect id="rect6874_10_" x="2086.081" y="1315.422" fill="none" stroke="#000000" stroke-width="9.03" stroke-miterlimit="10" stroke-dasharray="9.03,18.06" width="42.783" height="134.277"/>
	
		<rect id="rect6874_9_" x="1982.148" y="1411.331" fill="none" stroke="#000000" stroke-width="2.8346" stroke-miterlimit="10" stroke-dasharray="2.8346,4.252" width="24.25" height="24.199"/>
	
		<path id="path5326_25_" fill="none" stroke="#B2B2B2" stroke-width="5" d="
		M2086.081,1315.422c21.567,32.164-41.433,134.277,0,134.277"/>
	
		<path id="path5326_24_" fill="none" stroke="#B2B2B2" stroke-width="5" d="
		M2006.398,1435.53c41.433,0,6.777-87.939,28.349-120.105"/>
	
		<path id="path5326_23_" fill="none" stroke="#B2B2B2" stroke-width="5" d="
		M2078.313,1473.286c-1.664-17.725,2.855-17.391,7.769-23.584"/>
	
		<path id="path5326_22_" fill="none" stroke="#B2B2B2" stroke-width="5" d="
		M2060.413,1539.415c17.899-25.086-9.765-23.674,0-44.51"/>
	
		<path id="path5326_21_" fill="none" stroke="#B2B2B2" stroke-width="5" d="
		M2042.514,1473.286c0.936-12.725-27.421-26.688-36.113-37.756"/>
	
		<path id="line6886_15_" fill="none" stroke="#429DDB" stroke-width="18" stroke-linecap="round" stroke-linejoin="round" stroke-miterlimit="10" d="
		M2086.081,1449.702"/>
	
		<line id="line6886_14_" fill="none" stroke="#28434C" stroke-width="11.3386" stroke-linecap="round" stroke-linejoin="round" stroke-miterlimit="10" x1="1982.175" y1="1411.303" x2="2006.398" y2="1435.53"/>
	<polyline fill="none" stroke="#28434C" stroke-width="8.5039" stroke-miterlimit="10" points="2034.747,1315.424 
		2060.413,1284.422 2086.081,1315.422 	"/>
	<polyline fill="none" stroke="#28434C" stroke-width="8.5039" stroke-miterlimit="10" points="2078.313,1473.286 
		2060.413,1494.905 2042.514,1473.286 	"/>
	
		<line id="line6886_13_" fill="none" stroke="#DBDB2A" stroke-width="11.3386" stroke-linecap="round" stroke-linejoin="round" stroke-miterlimit="10" x1="2086.081" y1="1449.702" x2="1945.98" y2="1449.702"/>
	
		<rect id="rect6874_12_" x="2086.081" y="1570.415" fill="none" stroke="#000000" stroke-width="9.03" stroke-miterlimit="10" stroke-dasharray="9.03,18.06" width="42.783" height="134.275"/>
	
		<rect id="rect6874_11_" x="1982.148" y="1666.321" fill="none" stroke="#000000" stroke-width="2.8346" stroke-miterlimit="10" stroke-dasharray="2.8346,4.252" width="24.25" height="24.197"/>
	
		<path id="path5326_30_" fill="none" stroke="#B2B2B2" stroke-width="5" d="
		M2086.081,1570.415c21.567,32.164-41.433,134.275,0,134.275"/>
	
		<path id="path5326_29_" fill="none" stroke="#B2B2B2" stroke-width="5" d="
		M2006.398,1690.52c41.433,0,6.777-87.939,28.349-120.104"/>
	
		<path id="path5326_28_" fill="none" stroke="#B2B2B2" stroke-width="5" d="
		M2078.313,1728.274c-1.664-17.723,2.855-17.389,7.769-23.584"/>
	
		<path id="path5326_27_" fill="none" stroke="#B2B2B2" stroke-width="5" d="
		M2060.413,1794.405c17.899-25.088-9.765-23.676,0-44.512"/>
	
		<path id="path5326_26_" fill="none" stroke="#B2B2B2" stroke-width="5" d="
		M2042.514,1728.274c0.936-12.723-27.421-26.686-36.113-37.756"/>
	
		<path id="line6886_18_" fill="none" stroke="#429DDB" stroke-width="18" stroke-linecap="round" stroke-linejoin="round" stroke-miterlimit="10" d="
		M2086.081,1704.692"/>
	
		<line id="line6886_17_" fill="none" stroke="#28434C" stroke-width="11.3386" stroke-linecap="round" stroke-linejoin="round" stroke-miterlimit="10" x1="1982.175" y1="1666.295" x2="2006.398" y2="1690.52"/>
	<polyline fill="none" stroke="#28434C" stroke-width="8.5039" stroke-miterlimit="10" points="2034.747,1570.417 
		2060.413,1539.415 2086.081,1570.415 	"/>
	<polyline fill="none" stroke="#28434C" stroke-width="8.5039" stroke-miterlimit="10" points="2078.313,1728.274 
		2060.413,1749.895 2042.514,1728.274 	"/>
	
		<line id="line6886_16_" fill="none" stroke="#CE417A" stroke-width="11.3386" stroke-linecap="round" stroke-linejoin="round" stroke-miterlimit="10" x1="2086.081" y1="1704.692" x2="1945.98" y2="1704.692"/>
	
		<rect id="rect6874_14_" x="2086.081" y="1825.405" fill="none" stroke="#000000" stroke-width="9.03" stroke-miterlimit="10" stroke-dasharray="9.03,18.06" width="42.783" height="134.275"/>
	
		<rect id="rect6874_13_" x="1982.148" y="1921.311" fill="none" stroke="#000000" stroke-width="2.8346" stroke-miterlimit="10" stroke-dasharray="2.8346,4.252" width="24.25" height="24.199"/>
	
		<path id="path5326_35_" fill="none" stroke="#B2B2B2" stroke-width="5" d="
		M2086.081,1825.405c21.567,32.162-41.433,134.275,0,134.275"/>
	
		<path id="path5326_34_" fill="none" stroke="#B2B2B2" stroke-width="5" d="
		M2006.398,1945.51c41.433,0,6.777-87.939,28.349-120.104"/>
	
		<path id="path5326_33_" fill="none" stroke="#B2B2B2" stroke-width="5" d="
		M2078.313,1983.266c-1.664-17.723,2.855-17.389,7.769-23.584"/>
	
		<path id="path5326_32_" fill="none" stroke="#B2B2B2" stroke-width="5" d="
		M2060.413,2049.395c17.899-25.086-9.765-23.674,0-44.51"/>
	
		<path id="path5326_31_" fill="none" stroke="#B2B2B2" stroke-width="5" d="
		M2042.514,1983.266c0.936-12.723-27.421-26.686-36.113-37.756"/>
	
		<path id="line6886_21_" fill="none" stroke="#429DDB" stroke-width="18" stroke-linecap="round" stroke-linejoin="round" stroke-miterlimit="10" d="
		M2086.081,1959.682"/>
	
		<line id="line6886_20_" fill="none" stroke="#28434C" stroke-width="11.3386" stroke-linecap="round" stroke-linejoin="round" stroke-miterlimit="10" x1="1982.175" y1="1921.286" x2="2006.398" y2="1945.51"/>
	<polyline fill="none" stroke="#28434C" stroke-width="8.5039" stroke-miterlimit="10" points="2034.747,1825.407 
		2060.413,1794.405 2086.081,1825.405 	"/>
	<polyline fill="none" stroke="#28434C" stroke-width="8.5039" stroke-miterlimit="10" points="2078.313,1983.266 
		2060.413,2004.885 2042.514,1983.266 	"/>
	
		<line id="line6886_19_" fill="none" stroke="#5868A0" stroke-width="11.3386" stroke-linecap="round" stroke-linejoin="round" stroke-miterlimit="10" x1="2086.081" y1="1959.682" x2="1945.98" y2="1959.682"/>
	
		<rect id="rect6874_16_" x="2086.081" y="2080.395" fill="none" stroke="#000000" stroke-width="9.03" stroke-miterlimit="10" stroke-dasharray="9.03,18.06" width="42.783" height="134.277"/>
	
		<rect id="rect6874_15_" x="1982.148" y="2176.301" fill="none" stroke="#000000" stroke-width="2.8346" stroke-miterlimit="10" stroke-dasharray="2.8346,4.252" width="24.25" height="24.199"/>
	<g>
		<rect id="rect6890-0_2_" x="3696.398" y="319.14" width="22.146" height="52.918"/>
		<rect id="rect6890-0_1_" x="3696.398" y="574.129" width="22.146" height="52.919"/>
		<rect id="rect6890-0_29_" x="3696.398" y="829.118" width="22.146" height="52.92"/>
		<rect id="rect6890-0_31_" x="3696.398" y="1084.108" width="22.146" height="52.921"/>
		<rect id="rect6890-0_33_" x="3696.398" y="1339.094" width="22.146" height="52.92"/>
		<rect id="rect6890-0_35_" x="3696.398" y="1594.086" width="22.146" height="52.92"/>
		<rect id="rect6890-0_37_" x="3696.398" y="1849.077" width="22.146" height="52.92"/>
		<rect id="rect6890-0_39_" x="3696.398" y="2104.067" width="22.146" height="52.92"/>
	</g>
	<g>
		<rect id="rect6890-0_64_" x="3416.398" y="574.129" width="22.146" height="52.918"/>
		<rect id="rect6890-0_40_" x="3376.398" y="574.132" width="22.146" height="52.918"/>
		<rect id="rect6890-0_65_" x="3456.398" y="829.119" width="22.146" height="52.918"/>
		<rect id="rect6890-0_66_" x="3496.398" y="1339.088" width="22.146" height="52.918"/>
		<rect id="rect6890-0_41_" x="3536.398" y="1084.109" width="22.146" height="52.918"/>
		<rect id="rect6890-0_42_" x="3576.398" y="1339.088" width="22.146" height="52.918"/>
		<g>
			<rect id="rect6890-0_58_" x="3096.398" y="319.14" width="22.146" height="52.918"/>
			<rect id="rect6890-0_59_" x="3136.398" y="829.118" width="22.146" height="52.918"/>
			<rect id="rect6890-0_60_" x="3176.398" y="1339.092" width="22.146" height="52.918"/>
			<rect id="rect6890-0_61_" x="3216.398" y="1339.092" width="22.146" height="52.918"/>
			<rect id="rect6890-0_62_" x="3256.398" y="1594.086" width="22.146" height="52.918"/>
			<rect id="rect6890-0_63_" x="3296.398" y="1849.075" width="22.146" height="52.918"/>
		</g>
		<g>
			<rect id="rect6890-0_38_" x="2496.398" y="2104.067" width="22.146" height="52.918"/>
			<rect id="rect6890-0_46_" x="2536.398" y="2104.067" width="22.146" height="52.918"/>
			<rect id="rect6890-0_47_" x="2576.398" y="1849.077" width="22.146" height="52.918"/>
			<rect id="rect6890-0_48_" x="2616.398" y="2104.067" width="22.146" height="52.918"/>
			<rect id="rect6890-0_49_" x="2656.398" y="1339.094" width="22.146" height="52.918"/>
			<rect id="rect6890-0_50_" x="2696.398" y="1594.086" width="22.146" height="52.918"/>
			<rect id="rect6890-0_45_" x="2736.398" y="2104.057" width="22.146" height="52.918"/>
			<rect id="rect6890-0_51_" x="2776.398" y="2104.057" width="22.146" height="52.918"/>
			<rect id="rect6890-0_52_" x="2816.398" y="1849.075" width="22.146" height="52.918"/>
			<rect id="rect6890-0_53_" x="2856.398" y="2104.057" width="22.146" height="52.918"/>
			<rect id="rect6890-0_54_" x="2896.398" y="1084.106" width="22.146" height="52.918"/>
			<rect id="rect6890-0_55_" x="2936.398" y="1339.092" width="22.146" height="52.918"/>
			<rect id="rect6890-0_56_" x="2976.398" y="2104.057" width="22.146" height="52.918"/>
			<rect id="rect6890-0_57_" x="3016.398" y="2104.057" width="22.146" height="52.918"/>
			<rect id="rect6890-0_83_" x="2376.398" y="319.14" width="22.146" height="52.918"/>
			<rect id="rect6890-0_76_" x="2376.398" y="2104.067" width="22.146" height="52.92"/>
		</g>
	</g>
	
		<path id="path5326_40_" fill="none" stroke="#B2B2B2" stroke-width="5" d="
		M2086.081,2080.395c21.567,32.164-41.433,134.277,0,134.277"/>
	
		<path id="path5326_39_" fill="none" stroke="#B2B2B2" stroke-width="5" d="
		M2006.398,2200.5c41.433,0,6.777-87.939,28.349-120.105"/>
	
		<path id="path5326_38_" fill="none" stroke="#B2B2B2" stroke-width="5" d="
		M2078.313,2238.256c-1.664-17.723,2.855-17.389,7.769-23.584"/>
	
		<path id="path5326_36_" fill="none" stroke="#B2B2B2" stroke-width="5" d="
		M2042.514,2238.256c0.936-12.723-27.421-26.688-36.113-37.756"/>
	
		<path id="line6886_24_" fill="none" stroke="#429DDB" stroke-width="18" stroke-linecap="round" stroke-linejoin="round" stroke-miterlimit="10" d="
		M2086.081,2214.672"/>
	
		<line id="line6886_23_" fill="none" stroke="#28434C" stroke-width="11.3386" stroke-linecap="round" stroke-linejoin="round" stroke-miterlimit="10" x1="1982.175" y1="2176.274" x2="2006.398" y2="2200.5"/>
	<polyline fill="none" stroke="#28434C" stroke-width="8.5039" stroke-miterlimit="10" points="2034.747,2080.397 
		2060.413,2049.395 2086.081,2080.395 	"/>
	<polyline fill="none" stroke="#28434C" stroke-width="8.5039" stroke-miterlimit="10" points="2078.313,2238.256 
		2060.413,2259.875 2042.514,2238.256 	"/>
	
		<line id="line6886_22_" fill="none" stroke="#36683C" stroke-width="11.3386" stroke-linecap="round" stroke-linejoin="round" stroke-miterlimit="10" x1="2086.081" y1="2214.672" x2="1945.98" y2="2214.672"/>
	<path fill="none" stroke="#B2B2B2" stroke-width="5" d="M2060.413,2259.875c-39.841,91.721,1541.339,75.221,1673.753,141.145"/>
	<path fill="none" stroke="#B2B2B2" stroke-width="5" d="M1895.749,236.012C1678.395-131.624,590.25,3000.686,299.466,2452.352"/>
	<path fill="none" stroke="#B2B2B2" stroke-width="5" d="M3734.166,2401.022c14,51.334-3443.441,25.666-3403.7,25.666"/>
	
		<line fill="none" stroke="#28434C" stroke-width="11.3386" stroke-linecap="round" stroke-linejoin="round" stroke-miterlimit="10" x1="3734.166" y1="2401.022" x2="3694.166" y2="2401.022"/>
	<polyline fill="none" stroke="#28434C" stroke-width="8.5039" stroke-miterlimit="10" points="299.464,2401.02 330.465,2426.688 
		299.465,2452.354 	"/>
</g>
</svg>
