<?xml version="1.0" encoding="utf-8"?>
<!-- Generator: Adobe Illustrator 15.0.0, SVG Export Plug-In . SVG Version: 6.00 Build 0)  -->
<svg version="1.2" baseProfile="tiny" id="Ebene_1" xmlns="http://www.w3.org/2000/svg" xmlns:xlink="http://www.w3.org/1999/xlink"
	 x="0px" y="0px" width="2908.023px" height="5782.907px" viewBox="0 0 2908.023 5782.907" xml:space="preserve">
<rect x="234.694" y="469.909" fill="none" stroke="#DBDBDB" stroke-width="9.03" stroke-miterlimit="10" stroke-dasharray="17.0079,8.5039" width="2417.024" height="5211.917"/>
<rect x="194.894" y="5699.762" fill="none" stroke="#DBDBDB" stroke-width="9.03" stroke-miterlimit="10" stroke-dasharray="17.0079,8.5039" width="2456.822" height="24.064"/>
<rect x="2530.529" y="246.868" fill="none" stroke="#DBDBDB" stroke-width="5.6693" stroke-miterlimit="10" stroke-dasharray="17.0079,8.5039" width="98.011" height="80.993"/>
<rect x="300.27" y="117.068" fill="none" stroke="#DBDBDB" stroke-width="5.6693" stroke-miterlimit="10" stroke-dasharray="17.0079,8.5039" width="2275.47" height="160.032"/>
<rect x="215.231" y="297.069" fill="none" stroke="#DBDBDB" stroke-width="5.6693" stroke-miterlimit="10" stroke-dasharray="17.0079,8.5039" width="2436.486" height="144.032"/>
<path fill="none" stroke="#9DD329" stroke-width="17.0079" stroke-linecap="round" stroke-linejoin="round" stroke-miterlimit="10" d="
	M1680.054,372.815"/>
<path fill="none" stroke="#9DD329" stroke-width="17.0079" stroke-linecap="round" stroke-linejoin="round" stroke-miterlimit="10" d="
	M2870.543,501.234"/>
<g id="Ebene_4">
</g>
<path id="path4145_3_" fill="none" stroke="#B2B2B2" stroke-width="5" d="M73.024,5671.827c31.5-55.5,155,97,121.87,27.938"/>
<rect id="rect6890-0_2_" x="2560.718" y="265.711" width="43.309" height="43.307"/>
<path id="path5326_1_" fill="none" stroke="#B2B2B2" stroke-width="2.8346" d="M2628.54,327.861
	c-28.986,14.953-1636.32,191.953-1640.637,25.668"/>
<path id="path5326_81_" fill="none" stroke="#B2B2B2" stroke-width="2.8346" d="M318.172,67.104
	c278.505,8.507,1869.854,529.71,2310.368,312.091"/>
<rect x="2672.934" y="133.075" fill="none" stroke="#DBDBDB" stroke-width="9.03" stroke-miterlimit="10" stroke-dasharray="17.0079,8.5039" width="63.271" height="194.786"/>
<rect x="126.884" y="614.474" fill="none" stroke="#28434C" stroke-width="8.5039" stroke-linecap="round" stroke-linejoin="round" stroke-miterlimit="10" width="88.347" height="23"/>
<path id="path5326_10_" fill="none" stroke="#B2B2B2" stroke-width="5" d="M234.694,469.909"/>
<path id="path4145_4_" fill="none" stroke="#B2B2B2" stroke-width="5" d="M169.201,5674.094
	C71.169,5588.415,335.196,801.6,234.694,469.909"/>
<path id="path4145_6_" fill="none" stroke="#B2B2B2" stroke-width="5" d="M80.674,367.287c39.5-11,23,50.5,57.88,5.527"/>
<circle id="circle6876_1_" fill="#28434C" stroke="#28434C" stroke-width="8.5039" stroke-linecap="round" stroke-linejoin="round" stroke-miterlimit="10" cx="80.674" cy="367.287" r="12"/>
<path id="path4145_2_" fill="none" stroke="#B2B2B2" stroke-width="5" d="M215.23,441.101
	c-6.938-33.021-30.057-65.313-55.057-86.187"/>
<polyline fill="none" stroke="#28434C" stroke-width="8.5039" points="138.554,337.011 160.174,354.914 138.554,372.814 "/>
<polyline fill="none" stroke="#28434C" stroke-width="8.5039" points="194.894,5648.428 169.201,5674.094 194.894,5699.762 "/>
<path id="path5326_9_" fill="none" stroke="#B2B2B2" stroke-width="5" d="M1680.054,372.815"/>
<path id="path5326_5_" fill="none" stroke="#B2B2B2" stroke-width="5" d="M2659.903,353.529
	c444.12,189.287-2479.607,5275.194-2465.009,5294.899"/>
<circle fill="#28434C" stroke="#28434C" stroke-width="8.5039" stroke-linecap="round" stroke-linejoin="round" stroke-miterlimit="10" cx="73.024" cy="5671.827" r="10.5"/>
<circle fill="none" stroke="#28434C" stroke-width="8.5039" stroke-linecap="round" stroke-linejoin="round" stroke-miterlimit="10" cx="73.024" cy="5671.827" r="25.5"/>
<rect id="rect6890-0_1_" x="2408.718" y="265.711" width="43.309" height="43.307"/>
<rect id="rect6890-0_3_" x="2256.718" y="265.711" width="43.309" height="43.307"/>
<rect id="rect6890-0_4_" x="2104.718" y="265.711" width="43.309" height="43.307"/>
<rect id="rect6890-0_5_" x="1952.718" y="265.711" width="43.308" height="43.307"/>
<rect id="rect6890-0_6_" x="1800.718" y="265.711" width="43.308" height="43.307"/>
<rect id="rect6890-0_7_" x="1648.718" y="265.711" width="43.309" height="43.307"/>
<rect id="rect6890-0_8_" x="1496.718" y="265.711" width="43.309" height="43.307"/>
<rect id="rect6890-0_9_" x="1344.718" y="265.711" width="43.309" height="43.307"/>
<rect id="rect6890-0_10_" x="1192.718" y="265.711" width="43.309" height="43.307"/>
<rect id="rect6890-0_11_" x="1040.718" y="265.711" width="43.309" height="43.307"/>
<rect x="858.529" y="246.868" fill="none" stroke="#DBDBDB" stroke-width="5.6693" stroke-miterlimit="10" stroke-dasharray="17.0079,8.5039" width="98.011" height="80.993"/>
<rect x="872.704" y="150.082" fill="none" stroke="#DBDBDB" stroke-width="5.6693" stroke-miterlimit="10" stroke-dasharray="17.0079,8.5039" width="98.011" height="80.992"/>
<rect id="rect6890-0_12_" x="888.718" y="265.711" width="43.309" height="43.307"/>
<path id="path5326_65_" fill="none" stroke="#B2B2B2" stroke-width="2.8346" d="M956.54,327.861
	c-28.986,14.953-39.486,30.453-98.011,0"/>
<path id="path5326_63_" fill="none" stroke="#B2B2B2" stroke-width="2.8346" d="M970.715,150.082
	c66.839,161.426-82.161,243.039-14.175,229.113"/>
<path id="path5326_62_" fill="none" stroke="#B2B2B2" stroke-width="2.8346" d="M867.791,341.298
	c24.586,2.959,39.263-40.984-9.262-13.437"/>
<path id="path5326_61_" fill="none" stroke="#B2B2B2" stroke-width="2.8346" d="M970.715,150.082
	c-58.161-6.574-42.838,211.425-102.924,215.68"/>
<line fill="none" stroke="#28434C" stroke-width="7.0866" stroke-linecap="round" stroke-linejoin="round" stroke-miterlimit="10" x1="858.529" y1="327.861" x2="858.529" y2="231.074"/>
<line fill="none" stroke="#28434C" stroke-width="7.0866" stroke-linecap="round" stroke-linejoin="round" stroke-miterlimit="10" x1="970.715" y1="246.868" x2="970.715" y2="150.082"/>
<rect id="rect6890-0_13_" x="736.718" y="265.711" width="43.309" height="43.307"/>
<path id="path5326_69_" fill="none" stroke="#B2B2B2" stroke-width="2.8346" d="M851.84,353.529
	c-21.952,43.952-147.286,108.621-167.937,0"/>
<rect x="554.529" y="246.868" fill="none" stroke="#DBDBDB" stroke-width="5.6693" stroke-miterlimit="10" stroke-dasharray="17.0079,8.5039" width="98.011" height="80.993"/>
<rect x="568.704" y="150.082" fill="none" stroke="#DBDBDB" stroke-width="5.6693" stroke-miterlimit="10" stroke-dasharray="17.0079,8.5039" width="98.011" height="80.992"/>
<rect id="rect6890-0_14_" x="584.718" y="265.711" width="43.309" height="43.307"/>
<path id="path5326_75_" fill="none" stroke="#B2B2B2" stroke-width="2.8346" d="M652.54,327.861
	c-28.986,14.953-39.486,30.453-98.011,0"/>
<path id="path5326_73_" fill="none" stroke="#B2B2B2" stroke-width="2.8346" d="M666.715,150.082
	c66.839,161.426-82.161,243.039-14.175,229.113"/>
<path id="path5326_72_" fill="none" stroke="#B2B2B2" stroke-width="2.8346" d="M563.791,341.298
	c24.586,2.959,39.263-40.984-9.262-13.437"/>
<path id="path5326_71_" fill="none" stroke="#B2B2B2" stroke-width="2.8346" d="M666.715,150.082
	c-58.161-6.574-42.838,211.425-102.924,215.68"/>
<line fill="none" stroke="#28434C" stroke-width="7.0866" stroke-linecap="round" stroke-linejoin="round" stroke-miterlimit="10" x1="554.529" y1="327.861" x2="554.529" y2="231.074"/>
<line fill="none" stroke="#28434C" stroke-width="7.0866" stroke-linecap="round" stroke-linejoin="round" stroke-miterlimit="10" x1="666.715" y1="246.868" x2="666.715" y2="150.082"/>
<polyline fill="none" stroke="#2B8ED8" stroke-width="4.252" points="563.791,365.762 547.84,353.529 563.791,341.298 "/>
<rect x="402.529" y="246.868" fill="none" stroke="#DBDBDB" stroke-width="5.6693" stroke-miterlimit="10" stroke-dasharray="17.0079,8.5039" width="98.011" height="80.993"/>
<rect x="416.704" y="150.082" fill="none" stroke="#DBDBDB" stroke-width="5.6693" stroke-miterlimit="10" stroke-dasharray="17.0079,8.5039" width="98.011" height="80.992"/>
<rect id="rect6890-0_15_" x="432.718" y="265.711" width="43.309" height="43.307"/>
<path id="path5326_80_" fill="none" stroke="#B2B2B2" stroke-width="2.8346" d="M500.54,327.861
	c-28.986,14.953-39.486,30.453-98.011,0"/>
<path id="path5326_78_" fill="none" stroke="#B2B2B2" stroke-width="2.8346" d="M514.715,150.082
	c66.839,161.426-82.161,243.039-14.175,229.113"/>
<path id="path5326_77_" fill="none" stroke="#B2B2B2" stroke-width="2.8346" d="M411.791,341.298
	c24.586,2.959,39.263-40.984-9.262-13.437"/>
<path id="path5326_76_" fill="none" stroke="#B2B2B2" stroke-width="2.8346" d="M514.715,150.082
	c-58.161-6.574-42.838,211.425-102.924,215.68"/>
<line fill="none" stroke="#28434C" stroke-width="7.0866" stroke-linecap="round" stroke-linejoin="round" stroke-miterlimit="10" x1="402.529" y1="327.861" x2="402.529" y2="231.074"/>
<line fill="none" stroke="#28434C" stroke-width="7.0866" stroke-linecap="round" stroke-linejoin="round" stroke-miterlimit="10" x1="514.715" y1="246.868" x2="514.715" y2="150.082"/>
<rect id="rect6890-0_16_" x="280.718" y="265.711" width="43.309" height="43.307"/>
<rect id="rect6890-0_17_" x="128.718" y="265.711" fill="#8E6E6E" width="43.307" height="43.307"/>
<path id="path5326_85_" fill="none" stroke="#B2B2B2" stroke-width="2.8346" d="M300.27,88.724c-28.565,4.518-10.541,40.09,0,28.345
	"/>
<line fill="none" stroke="#28434C" stroke-width="7.0866" stroke-linecap="round" stroke-linejoin="round" stroke-miterlimit="10" x1="452.27" y1="117.067" x2="300.27" y2="117.067"/>
<line fill="none" stroke="#28434C" stroke-width="7.0866" stroke-linecap="round" stroke-linejoin="round" stroke-miterlimit="10" x1="2604.025" y1="39.575" x2="172.024" y2="39.575"/>
<line fill="none" stroke="#28434C" stroke-width="7.0866" stroke-linecap="round" stroke-linejoin="round" stroke-miterlimit="10" x1="2672.934" y1="133.075" x2="240.933" y2="133.075"/>
<path id="path5326_87_" fill="none" stroke="#B2B2B2" stroke-width="2.8346" d="M2672.934,133.075
	c-10.379-77.268-2133.342,55.739-2372.664-16.006"/>
<path id="path4145_1_" fill="none" stroke="#B2B2B2" stroke-width="5" d="M215.23,441.101
	c32.323-40.787,11.323,10.215,19.463,28.811"/>
<line fill="none" stroke="#28434C" stroke-width="8.5039" stroke-linecap="round" stroke-linejoin="round" stroke-miterlimit="10" x1="234.694" y1="518.814" x2="234.694" y2="469.909"/>
<rect x="126.884" y="441.101" fill="none" stroke="#28434C" stroke-width="8.5039" stroke-linecap="round" stroke-linejoin="round" stroke-miterlimit="10" width="88.347" height="23"/>
<line fill="none" stroke="#28434C" stroke-width="8.5039" stroke-linecap="round" stroke-linejoin="round" stroke-miterlimit="10" x1="215.23" y1="614.474" x2="215.23" y2="441.101"/>
<path id="path5326_4_" fill="none" stroke="#B2B2B2" stroke-width="2.8346" d="M2672.934,133.075
	C2958.025,280.814-255.255-368.516,138.554,337.012"/>
<path id="path5326_6_" fill="none" stroke="#B2B2B2" stroke-width="2.8346" d="M395.84,353.529
	c3.416,232.146-428.491-105.006-113.471-286.425"/>
<g id="alt_x2B_join">
	<polyline fill="none" stroke="#0782A8" stroke-width="8.5039" points="318.172,67.104 300.27,88.724 282.369,67.104 	"/>
	<polyline fill="none" stroke="#0782A8" stroke-width="11.3386" points="2628.54,379.195 2659.903,353.529 2628.54,327.861 	"/>
	<polyline fill="none" stroke="#2B8ED8" stroke-width="7.0866" points="956.54,379.195 987.903,353.529 956.54,327.861 	"/>
	<polyline fill="none" stroke="#2B8ED8" stroke-width="4.252" points="867.791,365.762 851.84,353.529 867.791,341.298 	"/>
	<polyline fill="none" stroke="#2B8ED8" stroke-width="7.0866" points="652.54,379.195 683.903,353.529 652.54,327.861 	"/>
	<path id="path5326_79_" fill="none" stroke="#B2B2B2" stroke-width="2.8346" d="M547.84,353.529
		c-1.286,9.785-13.286,15.285-15.937,0"/>
	<polyline fill="none" stroke="#2B8ED8" stroke-width="7.0866" points="500.54,379.195 531.903,353.529 500.54,327.861 	"/>
	<polyline fill="none" stroke="#2B8ED8" stroke-width="4.252" points="411.791,365.762 395.84,353.529 411.791,341.298 	"/>
</g>
</svg>
