<?xml version="1.0" encoding="utf-8"?>
<!-- Generator: Adobe Illustrator 15.0.0, SVG Export Plug-In . SVG Version: 6.00 Build 0)  -->
<svg version="1.2" baseProfile="tiny" id="Ebene_1" xmlns="http://www.w3.org/2000/svg" xmlns:xlink="http://www.w3.org/1999/xlink"
	 x="0px" y="0px" width="2908.023px" height="5782.907px" viewBox="0 0 2908.023 5782.907" xml:space="preserve">
<rect x="234.694" y="469.909" fill="none" stroke="#DBDBDB" stroke-width="9.03" stroke-miterlimit="10" stroke-dasharray="17.0079,8.5039" width="2417.024" height="5211.917"/>
<rect x="194.894" y="5699.763" fill="none" stroke="#DBDBDB" stroke-width="9.03" stroke-miterlimit="10" stroke-dasharray="17.0079,8.5039" width="2456.822" height="24.064"/>
<rect x="2530.529" y="246.868" fill="none" stroke="#DBDBDB" stroke-width="5.6693" stroke-miterlimit="10" stroke-dasharray="17.0079,8.5039" width="98.011" height="80.993"/>
<rect x="2544.704" y="150.082" fill="none" stroke="#DBDBDB" stroke-width="5.6693" stroke-miterlimit="10" stroke-dasharray="17.0079,8.5039" width="98.011" height="80.992"/>
<rect x="300.27" y="117.068" fill="none" stroke="#DBDBDB" stroke-width="5.6693" stroke-miterlimit="10" stroke-dasharray="17.0079,8.5039" width="2275.469" height="160.032"/>
<rect x="215.231" y="297.069" fill="none" stroke="#DBDBDB" stroke-width="5.6693" stroke-miterlimit="10" stroke-dasharray="17.0079,8.5039" width="2436.486" height="144.032"/>
<path fill="none" stroke="#9DD329" stroke-width="17.0079" stroke-linecap="round" stroke-linejoin="round" stroke-miterlimit="10" d="
	M1680.054,372.815"/>
<path fill="none" stroke="#9DD329" stroke-width="17.0079" stroke-linecap="round" stroke-linejoin="round" stroke-miterlimit="10" d="
	M2870.543,501.234"/>
<g id="Ebene_4">
</g>
<path id="path4145_3_" fill="none" stroke="#B2B2B2" stroke-width="5" d="M73.024,5671.826c31.5-55.5,155,97,121.87,27.939"/>
<rect id="rect6890-0_2_" x="2560.718" y="265.711" width="43.308" height="43.307"/>
<path id="path5326_1_" fill="none" stroke="#B2B2B2" stroke-width="2.8346" d="M2628.54,327.861
	c-28.986,14.953-1636.32,191.953-1640.637,25.668"/>
<path id="path5326_81_" fill="none" stroke="#B2B2B2" stroke-width="2.8346" d="M318.172,67.104
	c278.505,8.507,1869.854,529.71,2310.368,312.091"/>
<rect x="2672.934" y="133.075" fill="none" stroke="#DBDBDB" stroke-width="9.03" stroke-miterlimit="10" stroke-dasharray="17.0079,8.5039" width="63.271" height="194.786"/>
<rect x="126.884" y="614.474" fill="none" stroke="#28434C" stroke-width="8.5039" stroke-linecap="round" stroke-linejoin="round" stroke-miterlimit="10" width="88.347" height="23"/>
<path id="path5326_2_" fill="none" stroke="#B2B2B2" stroke-width="2.8346" d="M2539.791,341.298
	c24.586,2.959,39.263-40.984-9.262-13.437"/>
<path id="path5326_3_" fill="none" stroke="#B2B2B2" stroke-width="2.8346" d="M2642.715,150.082
	c-58.16-6.574-42.838,211.425-102.924,215.68"/>
<line fill="none" stroke="#28434C" stroke-width="7.0866" stroke-linecap="round" stroke-linejoin="round" stroke-miterlimit="10" x1="2530.529" y1="327.861" x2="2530.529" y2="231.074"/>
<line fill="none" stroke="#28434C" stroke-width="7.0866" stroke-linecap="round" stroke-linejoin="round" stroke-miterlimit="10" x1="2642.715" y1="246.868" x2="2642.715" y2="150.082"/>
<path id="path5326_10_" fill="none" stroke="#B2B2B2" stroke-width="5" d="M234.694,469.909"/>
<path id="path4145_4_" fill="none" stroke="#B2B2B2" stroke-width="5" d="M169.201,5674.095
	C71.169,5588.414,335.196,801.6,234.694,469.909"/>
<path id="path4145_6_" fill="none" stroke="#B2B2B2" stroke-width="5" d="M80.674,367.287c39.5-11,23,50.5,57.88,5.527"/>
<circle id="circle6876_1_" fill="#28434C" stroke="#28434C" stroke-width="8.5039" stroke-linecap="round" stroke-linejoin="round" stroke-miterlimit="10" cx="80.674" cy="367.287" r="12"/>
<path id="path4145_2_" fill="none" stroke="#B2B2B2" stroke-width="5" d="M215.23,441.101
	c-6.938-33.021-30.057-65.313-55.057-86.187"/>
<polyline fill="none" stroke="#28434C" stroke-width="8.5039" points="138.554,337.011 160.174,354.914 138.554,372.814 "/>
<polyline fill="none" stroke="#28434C" stroke-width="8.5039" points="318.172,67.104 300.27,88.724 282.369,67.104 "/>
<polyline fill="none" stroke="#28434C" stroke-width="8.5039" points="194.894,5648.429 169.201,5674.095 194.894,5699.763 "/>
<path id="path5326_9_" fill="none" stroke="#B2B2B2" stroke-width="5" d="M1680.054,372.815"/>
<path id="path5326_5_" fill="none" stroke="#B2B2B2" stroke-width="5" d="M2659.903,353.529
	c444.12,189.286-2479.607,5275.195-2465.009,5294.9"/>
<circle fill="#28434C" stroke="#28434C" stroke-width="8.5039" stroke-linecap="round" stroke-linejoin="round" stroke-miterlimit="10" cx="73.024" cy="5671.826" r="10.5"/>
<circle fill="none" stroke="#28434C" stroke-width="8.5039" stroke-linecap="round" stroke-linejoin="round" stroke-miterlimit="10" cx="73.024" cy="5671.826" r="25.5"/>
<polyline fill="none" stroke="#2B8ED8" stroke-width="7.0866" points="2628.54,379.195 2659.903,353.529 2628.54,327.861 "/>
<rect x="2378.529" y="246.868" fill="none" stroke="#DBDBDB" stroke-width="5.6693" stroke-miterlimit="10" stroke-dasharray="17.0079,8.5039" width="98.011" height="80.993"/>
<rect x="2392.704" y="150.082" fill="none" stroke="#DBDBDB" stroke-width="5.6693" stroke-miterlimit="10" stroke-dasharray="17.0079,8.5039" width="98.011" height="80.992"/>
<rect id="rect6890-0_1_" x="2408.718" y="265.711" width="43.308" height="43.307"/>
<path id="path5326_13_" fill="none" stroke="#B2B2B2" stroke-width="2.8346" d="M2476.54,327.861
	c-28.986,14.953-39.486,30.453-98.011,0"/>
<path id="path5326_14_" fill="none" stroke="#B2B2B2" stroke-width="2.8346" d="M2523.84,353.529
	c-1.285,9.785-13.285,15.285-15.937,0"/>
<path id="path5326_12_" fill="none" stroke="#B2B2B2" stroke-width="2.8346" d="M2490.715,150.082
	c66.84,161.426-82.16,243.039-14.175,229.113"/>
<path id="path5326_11_" fill="none" stroke="#B2B2B2" stroke-width="2.8346" d="M2387.791,341.298
	c24.586,2.959,39.263-40.984-9.262-13.437"/>
<path id="path5326_7_" fill="none" stroke="#B2B2B2" stroke-width="2.8346" d="M2490.715,150.082
	c-58.16-6.574-42.838,211.425-102.924,215.68"/>
<line fill="none" stroke="#28434C" stroke-width="7.0866" stroke-linecap="round" stroke-linejoin="round" stroke-miterlimit="10" x1="2378.529" y1="327.861" x2="2378.529" y2="231.074"/>
<line fill="none" stroke="#28434C" stroke-width="7.0866" stroke-linecap="round" stroke-linejoin="round" stroke-miterlimit="10" x1="2490.715" y1="246.868" x2="2490.715" y2="150.082"/>
<polyline fill="none" stroke="#2B8ED8" stroke-width="7.0866" points="2476.54,379.195 2507.903,353.529 2476.54,327.861 "/>
<polyline fill="none" stroke="#2B8ED8" stroke-width="4.252" points="2387.791,365.762 2371.84,353.529 2387.791,341.298 "/>
<rect x="2226.529" y="246.868" fill="none" stroke="#DBDBDB" stroke-width="5.6693" stroke-miterlimit="10" stroke-dasharray="17.0079,8.5039" width="98.011" height="80.993"/>
<rect x="2240.704" y="150.082" fill="none" stroke="#DBDBDB" stroke-width="5.6693" stroke-miterlimit="10" stroke-dasharray="17.0079,8.5039" width="98.011" height="80.992"/>
<rect id="rect6890-0_3_" x="2256.718" y="265.711" width="43.308" height="43.307"/>
<path id="path5326_19_" fill="none" stroke="#B2B2B2" stroke-width="2.8346" d="M2324.54,327.861
	c-28.986,14.953-39.486,30.453-98.011,0"/>
<path id="path5326_18_" fill="none" stroke="#B2B2B2" stroke-width="2.8346" d="M2371.84,353.529
	c-1.285,9.785-13.285,15.285-15.937,0"/>
<path id="path5326_17_" fill="none" stroke="#B2B2B2" stroke-width="2.8346" d="M2338.715,150.082
	c66.84,161.426-82.16,243.039-14.175,229.113"/>
<path id="path5326_16_" fill="none" stroke="#B2B2B2" stroke-width="2.8346" d="M2235.791,341.298
	c24.586,2.959,39.263-40.984-9.262-13.437"/>
<path id="path5326_15_" fill="none" stroke="#B2B2B2" stroke-width="2.8346" d="M2338.715,150.082
	c-58.16-6.574-42.838,211.425-102.924,215.68"/>
<line fill="none" stroke="#28434C" stroke-width="7.0866" stroke-linecap="round" stroke-linejoin="round" stroke-miterlimit="10" x1="2226.529" y1="327.861" x2="2226.529" y2="231.074"/>
<line fill="none" stroke="#28434C" stroke-width="7.0866" stroke-linecap="round" stroke-linejoin="round" stroke-miterlimit="10" x1="2338.715" y1="246.868" x2="2338.715" y2="150.082"/>
<polyline fill="none" stroke="#2B8ED8" stroke-width="7.0866" points="2324.54,379.195 2355.903,353.529 2324.54,327.861 "/>
<polyline fill="none" stroke="#2B8ED8" stroke-width="4.252" points="2235.791,365.762 2219.84,353.529 2235.791,341.298 "/>
<rect x="2074.529" y="246.868" fill="none" stroke="#DBDBDB" stroke-width="5.6693" stroke-miterlimit="10" stroke-dasharray="17.0079,8.5039" width="98.011" height="80.993"/>
<rect x="2088.704" y="150.082" fill="none" stroke="#DBDBDB" stroke-width="5.6693" stroke-miterlimit="10" stroke-dasharray="17.0079,8.5039" width="98.011" height="80.992"/>
<rect id="rect6890-0_4_" x="2104.718" y="265.711" width="43.308" height="43.307"/>
<path id="path5326_24_" fill="none" stroke="#B2B2B2" stroke-width="2.8346" d="M2172.54,327.861
	c-28.986,14.953-39.486,30.453-98.011,0"/>
<path id="path5326_23_" fill="none" stroke="#B2B2B2" stroke-width="2.8346" d="M2219.84,353.529
	c-1.285,9.785-13.285,15.285-15.937,0"/>
<path id="path5326_22_" fill="none" stroke="#B2B2B2" stroke-width="2.8346" d="M2186.715,150.082
	c66.84,161.426-82.16,243.039-14.175,229.113"/>
<path id="path5326_21_" fill="none" stroke="#B2B2B2" stroke-width="2.8346" d="M2083.791,341.298
	c24.586,2.959,39.263-40.984-9.262-13.437"/>
<path id="path5326_20_" fill="none" stroke="#B2B2B2" stroke-width="2.8346" d="M2186.715,150.082
	c-58.16-6.574-42.838,211.425-102.924,215.68"/>
<line fill="none" stroke="#28434C" stroke-width="7.0866" stroke-linecap="round" stroke-linejoin="round" stroke-miterlimit="10" x1="2074.529" y1="327.861" x2="2074.529" y2="231.074"/>
<line fill="none" stroke="#28434C" stroke-width="7.0866" stroke-linecap="round" stroke-linejoin="round" stroke-miterlimit="10" x1="2186.715" y1="246.868" x2="2186.715" y2="150.082"/>
<polyline fill="none" stroke="#2B8ED8" stroke-width="7.0866" points="2172.54,379.195 2203.903,353.529 2172.54,327.861 "/>
<polyline fill="none" stroke="#2B8ED8" stroke-width="4.252" points="2083.791,365.762 2067.84,353.529 2083.791,341.298 "/>
<rect x="1922.529" y="246.868" fill="none" stroke="#DBDBDB" stroke-width="5.6693" stroke-miterlimit="10" stroke-dasharray="17.0079,8.5039" width="98.011" height="80.993"/>
<rect x="1936.704" y="150.082" fill="none" stroke="#DBDBDB" stroke-width="5.6693" stroke-miterlimit="10" stroke-dasharray="17.0079,8.5039" width="98.011" height="80.992"/>
<rect id="rect6890-0_5_" x="1952.718" y="265.711" width="43.308" height="43.307"/>
<path id="path5326_29_" fill="none" stroke="#B2B2B2" stroke-width="2.8346" d="M2020.54,327.861
	c-28.985,14.953-39.485,30.453-98.011,0"/>
<path id="path5326_28_" fill="none" stroke="#B2B2B2" stroke-width="2.8346" d="M2067.84,353.529
	c-1.285,9.785-13.285,15.285-15.937,0"/>
<path id="path5326_27_" fill="none" stroke="#B2B2B2" stroke-width="2.8346" d="M2034.715,150.082
	c66.839,161.426-82.161,243.039-14.175,229.113"/>
<path id="path5326_26_" fill="none" stroke="#B2B2B2" stroke-width="2.8346" d="M1931.791,341.298
	c24.586,2.959,39.263-40.984-9.262-13.437"/>
<path id="path5326_25_" fill="none" stroke="#B2B2B2" stroke-width="2.8346" d="M2034.715,150.082
	c-58.161-6.574-42.838,211.425-102.924,215.68"/>
<line fill="none" stroke="#28434C" stroke-width="7.0866" stroke-linecap="round" stroke-linejoin="round" stroke-miterlimit="10" x1="1922.529" y1="327.861" x2="1922.529" y2="231.074"/>
<line fill="none" stroke="#28434C" stroke-width="7.0866" stroke-linecap="round" stroke-linejoin="round" stroke-miterlimit="10" x1="2034.715" y1="246.868" x2="2034.715" y2="150.082"/>
<polyline fill="none" stroke="#2B8ED8" stroke-width="7.0866" points="2020.54,379.195 2051.903,353.529 2020.54,327.861 "/>
<polyline fill="none" stroke="#2B8ED8" stroke-width="4.252" points="1931.791,365.762 1915.84,353.529 1931.791,341.298 "/>
<rect x="1770.529" y="246.868" fill="none" stroke="#DBDBDB" stroke-width="5.6693" stroke-miterlimit="10" stroke-dasharray="17.0079,8.5039" width="98.011" height="80.993"/>
<rect x="1784.704" y="150.082" fill="none" stroke="#DBDBDB" stroke-width="5.6693" stroke-miterlimit="10" stroke-dasharray="17.0079,8.5039" width="98.011" height="80.992"/>
<rect id="rect6890-0_6_" x="1800.718" y="265.711" width="43.308" height="43.307"/>
<path id="path5326_34_" fill="none" stroke="#B2B2B2" stroke-width="2.8346" d="M1868.54,327.861
	c-28.985,14.953-39.486,30.453-98.011,0"/>
<path id="path5326_33_" fill="none" stroke="#B2B2B2" stroke-width="2.8346" d="M1915.84,353.529
	c-1.286,9.785-13.286,15.285-15.938,0"/>
<path id="path5326_32_" fill="none" stroke="#B2B2B2" stroke-width="2.8346" d="M1882.715,150.082
	c66.839,161.426-82.161,243.039-14.175,229.113"/>
<path id="path5326_31_" fill="none" stroke="#B2B2B2" stroke-width="2.8346" d="M1779.791,341.298
	c24.586,2.959,39.263-40.984-9.262-13.437"/>
<path id="path5326_30_" fill="none" stroke="#B2B2B2" stroke-width="2.8346" d="M1882.715,150.082
	c-58.161-6.574-42.838,211.425-102.924,215.68"/>
<line fill="none" stroke="#28434C" stroke-width="7.0866" stroke-linecap="round" stroke-linejoin="round" stroke-miterlimit="10" x1="1770.529" y1="327.861" x2="1770.529" y2="231.074"/>
<line fill="none" stroke="#28434C" stroke-width="7.0866" stroke-linecap="round" stroke-linejoin="round" stroke-miterlimit="10" x1="1882.715" y1="246.868" x2="1882.715" y2="150.082"/>
<polyline fill="none" stroke="#2B8ED8" stroke-width="7.0866" points="1868.54,379.195 1899.902,353.529 1868.54,327.861 "/>
<polyline fill="none" stroke="#2B8ED8" stroke-width="4.252" points="1779.791,365.762 1763.84,353.529 1779.791,341.298 "/>
<rect x="1618.529" y="246.868" fill="none" stroke="#DBDBDB" stroke-width="5.6693" stroke-miterlimit="10" stroke-dasharray="17.0079,8.5039" width="98.011" height="80.993"/>
<rect x="1632.704" y="150.082" fill="none" stroke="#DBDBDB" stroke-width="5.6693" stroke-miterlimit="10" stroke-dasharray="17.0079,8.5039" width="98.011" height="80.992"/>
<rect id="rect6890-0_7_" x="1648.718" y="265.711" width="43.308" height="43.307"/>
<path id="path5326_39_" fill="none" stroke="#B2B2B2" stroke-width="2.8346" d="M1716.54,327.861
	c-28.986,14.953-39.486,30.453-98.011,0"/>
<path id="path5326_38_" fill="none" stroke="#B2B2B2" stroke-width="2.8346" d="M1763.84,353.529
	c-1.286,9.785-13.286,15.285-15.937,0"/>
<path id="path5326_37_" fill="none" stroke="#B2B2B2" stroke-width="2.8346" d="M1730.715,150.082
	c66.839,161.426-82.161,243.039-14.175,229.113"/>
<path id="path5326_36_" fill="none" stroke="#B2B2B2" stroke-width="2.8346" d="M1627.791,341.298
	c24.586,2.959,39.262-40.983-9.262-13.437"/>
<path id="path5326_35_" fill="none" stroke="#B2B2B2" stroke-width="2.8346" d="M1730.715,150.082
	c-70.654-7.987-30.624,210.561-102.924,215.68"/>
<line fill="none" stroke="#28434C" stroke-width="7.0866" stroke-linecap="round" stroke-linejoin="round" stroke-miterlimit="10" x1="1618.529" y1="327.861" x2="1618.529" y2="231.074"/>
<line fill="none" stroke="#28434C" stroke-width="7.0866" stroke-linecap="round" stroke-linejoin="round" stroke-miterlimit="10" x1="1730.715" y1="246.868" x2="1730.715" y2="150.082"/>
<polyline fill="none" stroke="#2B8ED8" stroke-width="7.0866" points="1716.54,379.195 1747.903,353.529 1716.54,327.861 "/>
<polyline fill="none" stroke="#2B8ED8" stroke-width="4.252" points="1627.791,365.762 1611.84,353.529 1627.791,341.298 "/>
<rect x="1466.529" y="246.868" fill="none" stroke="#DBDBDB" stroke-width="5.6693" stroke-miterlimit="10" stroke-dasharray="17.0079,8.5039" width="98.011" height="80.993"/>
<rect x="1480.704" y="150.082" fill="none" stroke="#DBDBDB" stroke-width="5.6693" stroke-miterlimit="10" stroke-dasharray="17.0079,8.5039" width="98.011" height="80.992"/>
<rect id="rect6890-0_8_" x="1496.718" y="265.711" width="43.308" height="43.307"/>
<path id="path5326_44_" fill="none" stroke="#B2B2B2" stroke-width="2.8346" d="M1564.54,327.861
	c-28.986,14.953-39.486,30.453-98.011,0"/>
<path id="path5326_43_" fill="none" stroke="#B2B2B2" stroke-width="2.8346" d="M1611.84,353.529
	c-1.286,9.785-13.286,15.285-15.937,0"/>
<path id="path5326_42_" fill="none" stroke="#B2B2B2" stroke-width="2.8346" d="M1578.715,150.082
	c66.839,161.426-82.161,243.039-14.175,229.113"/>
<path id="path5326_41_" fill="none" stroke="#B2B2B2" stroke-width="2.8346" d="M1475.791,341.298
	c24.586,2.959,39.263-40.984-9.262-13.437"/>
<path id="path5326_40_" fill="none" stroke="#B2B2B2" stroke-width="2.8346" d="M1578.715,150.082
	c-58.161-6.574-42.838,211.425-102.924,215.68"/>
<line fill="none" stroke="#28434C" stroke-width="7.0866" stroke-linecap="round" stroke-linejoin="round" stroke-miterlimit="10" x1="1466.529" y1="327.861" x2="1466.529" y2="231.074"/>
<line fill="none" stroke="#28434C" stroke-width="7.0866" stroke-linecap="round" stroke-linejoin="round" stroke-miterlimit="10" x1="1578.715" y1="246.868" x2="1578.715" y2="150.082"/>
<polyline fill="none" stroke="#2B8ED8" stroke-width="7.0866" points="1564.54,379.195 1595.903,353.529 1564.54,327.861 "/>
<polyline fill="none" stroke="#2B8ED8" stroke-width="4.252" points="1475.791,365.762 1459.84,353.529 1475.791,341.298 "/>
<rect x="1314.529" y="246.868" fill="none" stroke="#DBDBDB" stroke-width="5.6693" stroke-miterlimit="10" stroke-dasharray="17.0079,8.5039" width="98.011" height="80.993"/>
<rect x="1328.704" y="150.082" fill="none" stroke="#DBDBDB" stroke-width="5.6693" stroke-miterlimit="10" stroke-dasharray="17.0079,8.5039" width="98.011" height="80.992"/>
<rect id="rect6890-0_9_" x="1344.718" y="265.711" width="43.308" height="43.307"/>
<path id="path5326_50_" fill="none" stroke="#B2B2B2" stroke-width="2.8346" d="M1412.54,327.861
	c-28.986,14.953-39.486,30.453-98.011,0"/>
<path id="path5326_49_" fill="none" stroke="#B2B2B2" stroke-width="2.8346" d="M1459.84,353.529
	c-1.286,9.785-13.286,15.285-15.937,0"/>
<path id="path5326_48_" fill="none" stroke="#B2B2B2" stroke-width="2.8346" d="M1426.715,150.082
	c66.839,161.426-82.161,243.039-14.175,229.113"/>
<path id="path5326_47_" fill="none" stroke="#B2B2B2" stroke-width="2.8346" d="M1323.791,341.298
	c24.586,2.959,39.263-40.984-9.262-13.437"/>
<path id="path5326_45_" fill="none" stroke="#B2B2B2" stroke-width="2.8346" d="M1426.715,150.082
	c-58.161-6.574-42.838,211.425-102.924,215.68"/>
<line fill="none" stroke="#28434C" stroke-width="7.0866" stroke-linecap="round" stroke-linejoin="round" stroke-miterlimit="10" x1="1314.529" y1="327.861" x2="1314.529" y2="231.074"/>
<line fill="none" stroke="#28434C" stroke-width="7.0866" stroke-linecap="round" stroke-linejoin="round" stroke-miterlimit="10" x1="1426.715" y1="246.868" x2="1426.715" y2="150.082"/>
<polyline fill="none" stroke="#2B8ED8" stroke-width="7.0866" points="1412.54,379.195 1443.903,353.529 1412.54,327.861 "/>
<polyline fill="none" stroke="#2B8ED8" stroke-width="4.252" points="1323.791,365.762 1307.84,353.529 1323.791,341.298 "/>
<rect x="1162.529" y="246.868" fill="none" stroke="#DBDBDB" stroke-width="5.6693" stroke-miterlimit="10" stroke-dasharray="17.0079,8.5039" width="98.011" height="80.993"/>
<rect x="1176.704" y="150.082" fill="none" stroke="#DBDBDB" stroke-width="5.6693" stroke-miterlimit="10" stroke-dasharray="17.0079,8.5039" width="98.011" height="80.992"/>
<rect id="rect6890-0_10_" x="1192.718" y="265.711" width="43.308" height="43.307"/>
<path id="path5326_55_" fill="none" stroke="#B2B2B2" stroke-width="2.8346" d="M1260.54,327.861
	c-28.986,14.953-39.486,30.453-98.011,0"/>
<path id="path5326_54_" fill="none" stroke="#B2B2B2" stroke-width="2.8346" d="M1307.84,353.529
	c-1.286,9.785-13.286,15.285-15.937,0"/>
<path id="path5326_53_" fill="none" stroke="#B2B2B2" stroke-width="2.8346" d="M1274.715,150.082
	c66.839,161.426-82.161,243.039-14.175,229.113"/>
<path id="path5326_52_" fill="none" stroke="#B2B2B2" stroke-width="2.8346" d="M1171.791,341.298
	c24.586,2.959,39.263-40.984-9.262-13.437"/>
<path id="path5326_51_" fill="none" stroke="#B2B2B2" stroke-width="2.8346" d="M1274.715,150.082
	c-58.161-6.574-42.838,211.425-102.924,215.68"/>
<line fill="none" stroke="#28434C" stroke-width="7.0866" stroke-linecap="round" stroke-linejoin="round" stroke-miterlimit="10" x1="1162.529" y1="327.861" x2="1162.529" y2="231.074"/>
<line fill="none" stroke="#28434C" stroke-width="7.0866" stroke-linecap="round" stroke-linejoin="round" stroke-miterlimit="10" x1="1274.715" y1="246.868" x2="1274.715" y2="150.082"/>
<polyline fill="none" stroke="#2B8ED8" stroke-width="7.0866" points="1260.54,379.195 1291.903,353.529 1260.54,327.861 "/>
<polyline fill="none" stroke="#2B8ED8" stroke-width="4.252" points="1171.791,365.762 1155.84,353.529 1171.791,341.298 "/>
<rect x="1010.529" y="246.868" fill="none" stroke="#DBDBDB" stroke-width="5.6693" stroke-miterlimit="10" stroke-dasharray="17.0079,8.5039" width="98.011" height="80.993"/>
<rect x="1024.704" y="150.082" fill="none" stroke="#DBDBDB" stroke-width="5.6693" stroke-miterlimit="10" stroke-dasharray="17.0079,8.5039" width="98.011" height="80.992"/>
<rect id="rect6890-0_11_" x="1040.718" y="265.711" width="43.308" height="43.307"/>
<path id="path5326_60_" fill="none" stroke="#B2B2B2" stroke-width="2.8346" d="M1108.54,327.861
	c-28.986,14.953-39.486,30.453-98.011,0"/>
<path id="path5326_59_" fill="none" stroke="#B2B2B2" stroke-width="2.8346" d="M1155.84,353.529
	c-1.286,9.785-13.286,15.285-15.937,0"/>
<path id="path5326_58_" fill="none" stroke="#B2B2B2" stroke-width="2.8346" d="M1122.715,150.082
	c66.839,161.426-82.161,243.039-14.175,229.113"/>
<path id="path5326_57_" fill="none" stroke="#B2B2B2" stroke-width="2.8346" d="M1019.791,341.298
	c24.586,2.959,39.263-40.984-9.262-13.437"/>
<path id="path5326_56_" fill="none" stroke="#B2B2B2" stroke-width="2.8346" d="M1122.715,150.082
	c-58.161-6.574-42.838,211.425-102.924,215.68"/>
<line fill="none" stroke="#28434C" stroke-width="7.0866" stroke-linecap="round" stroke-linejoin="round" stroke-miterlimit="10" x1="1010.529" y1="327.861" x2="1010.529" y2="231.074"/>
<line fill="none" stroke="#28434C" stroke-width="7.0866" stroke-linecap="round" stroke-linejoin="round" stroke-miterlimit="10" x1="1122.715" y1="246.868" x2="1122.715" y2="150.082"/>
<polyline fill="none" stroke="#2B8ED8" stroke-width="7.0866" points="1108.54,379.195 1139.903,353.529 1108.54,327.861 "/>
<polyline fill="none" stroke="#2B8ED8" stroke-width="4.252" points="1019.791,365.762 1003.84,353.529 1019.791,341.298 "/>
<rect x="858.529" y="246.868" fill="none" stroke="#DBDBDB" stroke-width="5.6693" stroke-miterlimit="10" stroke-dasharray="17.0079,8.5039" width="98.011" height="80.993"/>
<rect x="872.704" y="150.082" fill="none" stroke="#DBDBDB" stroke-width="5.6693" stroke-miterlimit="10" stroke-dasharray="17.0079,8.5039" width="98.011" height="80.992"/>
<rect id="rect6890-0_12_" x="888.718" y="265.711" width="43.308" height="43.307"/>
<path id="path5326_65_" fill="none" stroke="#B2B2B2" stroke-width="2.8346" d="M956.54,327.861
	c-28.986,14.953-39.486,30.453-98.011,0"/>
<path id="path5326_64_" fill="none" stroke="#B2B2B2" stroke-width="2.8346" d="M1003.84,353.529
	c-1.286,9.785,34.03,40.237,31.38,24.952"/>
<path id="path5326_63_" fill="none" stroke="#B2B2B2" stroke-width="2.8346" d="M970.715,150.082
	c66.839,161.426-82.161,243.039-14.175,229.113"/>
<path id="path5326_62_" fill="none" stroke="#B2B2B2" stroke-width="2.8346" d="M867.791,341.298
	c24.586,2.959,39.263-40.984-9.262-13.437"/>
<path id="path5326_61_" fill="none" stroke="#B2B2B2" stroke-width="2.8346" d="M970.715,150.082
	c-58.161-6.574-42.838,211.425-102.924,215.68"/>
<line fill="none" stroke="#28434C" stroke-width="7.0866" stroke-linecap="round" stroke-linejoin="round" stroke-miterlimit="10" x1="858.529" y1="327.861" x2="858.529" y2="231.074"/>
<line fill="none" stroke="#28434C" stroke-width="7.0866" stroke-linecap="round" stroke-linejoin="round" stroke-miterlimit="10" x1="970.715" y1="246.868" x2="970.715" y2="150.082"/>
<polyline fill="none" stroke="#2B8ED8" stroke-width="7.0866" points="956.54,379.195 987.903,353.529 956.54,327.861 "/>
<polyline fill="none" stroke="#2B8ED8" stroke-width="4.252" points="867.791,365.762 851.84,353.529 867.791,341.298 "/>
<rect x="706.529" y="246.868" fill="none" stroke="#DBDBDB" stroke-width="5.6693" stroke-miterlimit="10" stroke-dasharray="17.0079,8.5039" width="98.011" height="80.993"/>
<rect x="720.704" y="150.082" fill="none" stroke="#DBDBDB" stroke-width="5.6693" stroke-miterlimit="10" stroke-dasharray="17.0079,8.5039" width="98.011" height="80.992"/>
<rect id="rect6890-0_13_" x="736.718" y="265.711" width="43.308" height="43.307"/>
<path id="path5326_70_" fill="none" stroke="#B2B2B2" stroke-width="2.8346" d="M804.54,327.861
	c-28.986,14.953-39.486,30.453-98.011,0"/>
<path id="path5326_69_" fill="none" stroke="#B2B2B2" stroke-width="2.8346" d="M851.84,353.529
	c-21.952,43.952-147.286,108.62-167.937,0"/>
<path id="path5326_68_" fill="none" stroke="#B2B2B2" stroke-width="2.8346" d="M818.715,150.082
	c66.839,161.426-82.161,243.039-14.175,229.113"/>
<path id="path5326_67_" fill="none" stroke="#B2B2B2" stroke-width="2.8346" d="M715.791,341.298
	c24.586,2.959,39.263-40.984-9.262-13.437"/>
<path id="path5326_66_" fill="none" stroke="#B2B2B2" stroke-width="2.8346" d="M818.715,150.082
	c-58.161-6.574-42.838,211.425-102.924,215.68"/>
<line fill="none" stroke="#28434C" stroke-width="7.0866" stroke-linecap="round" stroke-linejoin="round" stroke-miterlimit="10" x1="706.529" y1="327.861" x2="706.529" y2="231.074"/>
<line fill="none" stroke="#28434C" stroke-width="7.0866" stroke-linecap="round" stroke-linejoin="round" stroke-miterlimit="10" x1="818.715" y1="246.868" x2="818.715" y2="150.082"/>
<polyline fill="none" stroke="#2B8ED8" stroke-width="7.0866" points="804.54,379.195 835.903,353.529 804.54,327.861 "/>
<polyline fill="none" stroke="#2B8ED8" stroke-width="4.252" points="715.791,365.762 699.84,353.529 715.791,341.298 "/>
<rect x="554.529" y="246.868" fill="none" stroke="#DBDBDB" stroke-width="5.6693" stroke-miterlimit="10" stroke-dasharray="17.0079,8.5039" width="98.011" height="80.993"/>
<rect x="568.704" y="150.082" fill="none" stroke="#DBDBDB" stroke-width="5.6693" stroke-miterlimit="10" stroke-dasharray="17.0079,8.5039" width="98.011" height="80.992"/>
<rect id="rect6890-0_14_" x="584.718" y="265.711" width="43.308" height="43.307"/>
<path id="path5326_75_" fill="none" stroke="#B2B2B2" stroke-width="2.8346" d="M652.54,327.861
	c-28.986,14.953-39.486,30.453-98.011,0"/>
<path id="path5326_74_" fill="none" stroke="#B2B2B2" stroke-width="2.8346" d="M699.84,353.529
	c-1.286,9.785,14.698,45.237,12.047,29.952"/>
<path id="path5326_73_" fill="none" stroke="#B2B2B2" stroke-width="2.8346" d="M666.715,150.082
	c66.839,161.426-82.161,243.039-14.175,229.113"/>
<path id="path5326_72_" fill="none" stroke="#B2B2B2" stroke-width="2.8346" d="M563.791,341.298
	c24.586,2.959,39.263-40.984-9.262-13.437"/>
<path id="path5326_71_" fill="none" stroke="#B2B2B2" stroke-width="2.8346" d="M666.715,150.082
	c-58.161-6.574-42.838,211.425-102.924,215.68"/>
<line fill="none" stroke="#28434C" stroke-width="7.0866" stroke-linecap="round" stroke-linejoin="round" stroke-miterlimit="10" x1="554.529" y1="327.861" x2="554.529" y2="231.074"/>
<line fill="none" stroke="#28434C" stroke-width="7.0866" stroke-linecap="round" stroke-linejoin="round" stroke-miterlimit="10" x1="666.715" y1="246.868" x2="666.715" y2="150.082"/>
<polyline fill="none" stroke="#2B8ED8" stroke-width="7.0866" points="652.54,379.195 683.903,353.529 652.54,327.861 "/>
<polyline fill="none" stroke="#2B8ED8" stroke-width="4.252" points="563.791,365.762 547.84,353.529 563.791,341.298 "/>
<rect x="402.529" y="246.868" fill="none" stroke="#DBDBDB" stroke-width="5.6693" stroke-miterlimit="10" stroke-dasharray="17.0079,8.5039" width="98.011" height="80.993"/>
<rect x="416.704" y="150.082" fill="none" stroke="#DBDBDB" stroke-width="5.6693" stroke-miterlimit="10" stroke-dasharray="17.0079,8.5039" width="98.011" height="80.992"/>
<rect id="rect6890-0_15_" x="432.718" y="265.711" width="43.308" height="43.307"/>
<path id="path5326_80_" fill="none" stroke="#B2B2B2" stroke-width="2.8346" d="M500.54,327.861
	c-28.986,14.953-39.486,30.453-98.011,0"/>
<path id="path5326_79_" fill="none" stroke="#B2B2B2" stroke-width="2.8346" d="M547.84,353.529
	c-1.286,9.785-13.286,15.285-15.937,0"/>
<path id="path5326_78_" fill="none" stroke="#B2B2B2" stroke-width="2.8346" d="M514.715,150.082
	c66.839,161.426-82.161,243.039-14.175,229.113"/>
<path id="path5326_77_" fill="none" stroke="#B2B2B2" stroke-width="2.8346" d="M411.791,341.298
	c24.586,2.959,39.263-40.984-9.262-13.437"/>
<path id="path5326_76_" fill="none" stroke="#B2B2B2" stroke-width="2.8346" d="M514.715,150.082
	c-58.161-6.574-42.838,211.425-102.924,215.68"/>
<line fill="none" stroke="#28434C" stroke-width="7.0866" stroke-linecap="round" stroke-linejoin="round" stroke-miterlimit="10" x1="402.529" y1="327.861" x2="402.529" y2="231.074"/>
<line fill="none" stroke="#28434C" stroke-width="7.0866" stroke-linecap="round" stroke-linejoin="round" stroke-miterlimit="10" x1="514.715" y1="246.868" x2="514.715" y2="150.082"/>
<polyline fill="none" stroke="#2B8ED8" stroke-width="7.0866" points="500.54,379.195 531.903,353.529 500.54,327.861 "/>
<polyline fill="none" stroke="#2B8ED8" stroke-width="4.252" points="411.791,365.762 395.84,353.529 411.791,341.298 "/>
<rect x="250.529" y="246.868" fill="none" stroke="#DBDBDB" stroke-width="5.6693" stroke-miterlimit="10" stroke-dasharray="17.0079,8.5039" width="98.011" height="80.993"/>
<rect x="264.704" y="150.082" fill="none" stroke="#DBDBDB" stroke-width="5.6693" stroke-miterlimit="10" stroke-dasharray="17.0079,8.5039" width="98.011" height="80.992"/>
<rect id="rect6890-0_16_" x="280.718" y="265.711" width="43.308" height="43.307"/>
<rect id="rect6890-0_17_" x="128.718" y="265.711" fill="#8E6E6E" width="43.307" height="43.307"/>
<path id="path5326_86_" fill="none" stroke="#B2B2B2" stroke-width="2.8346" d="M348.54,327.861
	c-28.986,14.953-39.486,30.453-98.011,0"/>
<path id="path5326_85_" fill="none" stroke="#B2B2B2" stroke-width="2.8346" d="M300.27,88.724c-28.566,4.518-10.541,40.09,0,28.345
	"/>
<path id="path5326_84_" fill="none" stroke="#B2B2B2" stroke-width="2.8346" d="M362.715,150.082
	c66.839,161.426-82.161,243.039-14.175,229.113"/>
<path id="path5326_83_" fill="none" stroke="#B2B2B2" stroke-width="2.8346" d="M259.791,341.298
	c24.586,2.959,39.263-40.984-9.262-13.437"/>
<path id="path5326_82_" fill="none" stroke="#B2B2B2" stroke-width="2.8346" d="M362.715,150.082
	c-58.161-6.574-42.838,211.425-102.924,215.68"/>
<line fill="none" stroke="#28434C" stroke-width="7.0866" stroke-linecap="round" stroke-linejoin="round" stroke-miterlimit="10" x1="250.529" y1="327.861" x2="250.529" y2="231.074"/>
<line fill="none" stroke="#28434C" stroke-width="7.0866" stroke-linecap="round" stroke-linejoin="round" stroke-miterlimit="10" x1="452.27" y1="117.067" x2="300.27" y2="117.067"/>
<line fill="none" stroke="#28434C" stroke-width="7.0866" stroke-linecap="round" stroke-linejoin="round" stroke-miterlimit="10" x1="2604.025" y1="39.575" x2="172.024" y2="39.575"/>
<line fill="none" stroke="#28434C" stroke-width="7.0866" stroke-linecap="round" stroke-linejoin="round" stroke-miterlimit="10" x1="2672.934" y1="133.075" x2="240.933" y2="133.075"/>
<line fill="none" stroke="#28434C" stroke-width="7.0866" stroke-linecap="round" stroke-linejoin="round" stroke-miterlimit="10" x1="362.715" y1="246.868" x2="362.715" y2="150.082"/>
<polyline fill="none" stroke="#2B8ED8" stroke-width="7.0866" points="348.54,379.195 379.903,353.529 348.54,327.861 "/>
<polyline fill="none" stroke="#2B8ED8" stroke-width="4.252" points="259.791,365.762 243.84,353.529 259.791,341.298 "/>
<polyline fill="none" stroke="#2B8ED8" stroke-width="4.252" points="1157.262,365.762 1141.311,353.529 1157.262,341.298 "/>
<path id="path5326_87_" fill="none" stroke="#B2B2B2" stroke-width="2.8346" d="M2672.934,133.075
	c-10.379-77.268-2133.342,55.739-2372.664-16.006"/>
<path id="path4145_1_" fill="none" stroke="#B2B2B2" stroke-width="5" d="M215.23,441.101c32.323-40.787,11.323,10.214,19.463,28.81
	"/>
<line fill="none" stroke="#28434C" stroke-width="8.5039" stroke-linecap="round" stroke-linejoin="round" stroke-miterlimit="10" x1="234.694" y1="518.814" x2="234.694" y2="469.909"/>
<rect x="126.884" y="441.101" fill="none" stroke="#28434C" stroke-width="8.5039" stroke-linecap="round" stroke-linejoin="round" stroke-miterlimit="10" width="88.347" height="23"/>
<line fill="none" stroke="#28434C" stroke-width="8.5039" stroke-linecap="round" stroke-linejoin="round" stroke-miterlimit="10" x1="215.23" y1="614.474" x2="215.23" y2="441.101"/>
<path id="path5326_4_" fill="none" stroke="#B2B2B2" stroke-width="2.8346" d="M2672.934,133.075
	C2958.025,280.814-255.255-368.516,138.554,337.012"/>
<path id="path5326_6_" fill="none" stroke="#B2B2B2" stroke-width="2.8346" d="M395.84,353.529
	c3.416,232.146-428.491-105.006-113.471-286.425"/>
</svg>
