<?xml version="1.0" encoding="utf-8"?>
<!-- Generator: Adobe Illustrator 15.0.0, SVG Export Plug-In . SVG Version: 6.00 Build 0)  -->
<!DOCTYPE svg PUBLIC "-//W3C//DTD SVG 1.1//EN" "http://www.w3.org/Graphics/SVG/1.1/DTD/svg11.dtd">
<svg version="1.1" xmlns="http://www.w3.org/2000/svg" xmlns:xlink="http://www.w3.org/1999/xlink" x="0px" y="0px" width="107.5px"
	 height="243.5px" viewBox="0 0 107.5 243.5" enable-background="new 0 0 107.5 243.5" xml:space="preserve">
<g id="Background">
	<rect fill="#606060" width="107.5" height="243.5"/>
</g>
<g id="clip8">
	<g id="D">
		<rect x="31.099" y="20.001" width="10" height="10"/>
	</g>
	<g id="I">
		<polyline fill="none" stroke="#9ACDCD" stroke-width="0.5" stroke-linecap="square" stroke-miterlimit="10" points="
			41.833,61.083 40.833,62.083 41.833,63.083 		"/>
		
			<rect x="29.5" y="64.334" fill="none" stroke="#E5B7B7" stroke-width="0.3" stroke-miterlimit="10" stroke-dasharray="1,0.5" width="75.667" height="177"/>
		
			<rect x="8.667" y="64.334" fill="none" stroke="#E5B7B7" stroke-width="0.3" stroke-miterlimit="10" stroke-dasharray="1,0.5" width="67.667" height="5.834"/>
		<path fill="none" stroke="#9ACDCD" stroke-width="0.3" stroke-linecap="square" stroke-miterlimit="10" d="M27.625,12.75
			c5.25-1.063,7.25-0.833,7.25-7.833"/>
		
			<circle fill="#9ACDCD" stroke="#9ACDCD" stroke-width="0.3" stroke-linecap="square" stroke-miterlimit="10" cx="34.875" cy="4.917" r="1"/>
		
			<line fill="none" stroke="#E5B7B7" stroke-width="1.5" stroke-linecap="round" stroke-linejoin="round" stroke-miterlimit="10" x1="28.265" y1="32.667" x2="28.265" y2="52"/>
		
			<line fill="none" stroke="#E5B7B7" stroke-width="0.5" stroke-linecap="round" stroke-linejoin="round" stroke-miterlimit="10" x1="8.667" y1="64.334" x2="8.667" y2="61.938"/>
		
			<line fill="none" stroke="#E5B7B7" stroke-width="0.3" stroke-linecap="round" stroke-linejoin="round" stroke-miterlimit="10" x1="32" y1="41.5" x2="31.583" y2="59.167"/>
		
			<circle fill="none" stroke="#E5B7B7" stroke-width="0.3" stroke-linecap="round" stroke-linejoin="round" stroke-miterlimit="10" cx="31.583" cy="59.167" r="1"/>
		
			<line fill="none" stroke="#E5B7B7" stroke-width="0.5" stroke-linecap="round" stroke-linejoin="round" stroke-miterlimit="10" x1="105.167" y1="64.334" x2="105.167" y2="66.334"/>
		
			<circle fill="none" stroke="#E5B7B7" stroke-width="0.5" stroke-linecap="round" stroke-linejoin="round" stroke-miterlimit="10" cx="105.167" cy="66.334" r="1"/>
		
			<line fill="none" stroke="#E5B7B7" stroke-width="0.3" stroke-linecap="round" stroke-linejoin="round" stroke-miterlimit="10" x1="34" y1="41.5" x2="41.583" y2="59.167"/>
		
			<circle fill="none" stroke="#E5B7B7" stroke-width="0.3" stroke-linecap="round" stroke-linejoin="round" stroke-miterlimit="10" cx="41.583" cy="59.167" r="1"/>
		
			<line fill="none" stroke="#E5B7B7" stroke-width="0.3" stroke-linecap="round" stroke-linejoin="round" stroke-miterlimit="10" x1="36" y1="41.5" x2="51.583" y2="59.167"/>
		
			<circle fill="none" stroke="#E5B7B7" stroke-width="0.3" stroke-linecap="round" stroke-linejoin="round" stroke-miterlimit="10" cx="51.583" cy="59.167" r="1"/>
		
			<line fill="none" stroke="#E5B7B7" stroke-width="0.3" stroke-linecap="round" stroke-linejoin="round" stroke-miterlimit="10" x1="38" y1="41.5" x2="61.583" y2="59.167"/>
		
			<circle fill="none" stroke="#E5B7B7" stroke-width="0.3" stroke-linecap="round" stroke-linejoin="round" stroke-miterlimit="10" cx="61.583" cy="59.167" r="1"/>
		
			<line fill="none" stroke="#E5B7B7" stroke-width="0.3" stroke-linecap="round" stroke-linejoin="round" stroke-miterlimit="10" x1="40" y1="41.5" x2="71.583" y2="59.167"/>
		
			<circle fill="none" stroke="#E5B7B7" stroke-width="0.3" stroke-linecap="round" stroke-linejoin="round" stroke-miterlimit="10" cx="71.583" cy="59.167" r="1"/>
		
			<rect x="28.265" y="17.334" fill="none" stroke="#E5B7B7" stroke-miterlimit="10" stroke-dasharray="0.9014,1.8028" width="15.667" height="15.333"/>
		
			<rect x="32" y="38.5" fill="none" stroke="#E5B7B7" stroke-width="0.3" stroke-miterlimit="10" stroke-dasharray="1,0.5" width="1" height="3"/>
		
			<rect x="34" y="38.5" fill="none" stroke="#E5B7B7" stroke-width="0.3" stroke-miterlimit="10" stroke-dasharray="1,0.5" width="1" height="3"/>
		
			<rect x="36" y="38.5" fill="none" stroke="#E5B7B7" stroke-width="0.3" stroke-miterlimit="10" stroke-dasharray="1,0.5" width="1" height="3"/>
		
			<rect x="38" y="38.5" fill="none" stroke="#E5B7B7" stroke-width="0.3" stroke-miterlimit="10" stroke-dasharray="1,0.5" width="1" height="3"/>
		
			<rect x="40" y="38.5" fill="none" stroke="#E5B7B7" stroke-width="0.3" stroke-miterlimit="10" stroke-dasharray="1,0.5" width="1" height="3"/>
		
			<rect x="30.833" y="63.083" fill="none" stroke="#E5B7B7" stroke-width="0.3" stroke-miterlimit="10" stroke-dasharray="1,0.5" width="1" height="6"/>
		
			<rect x="22.598" y="32.667" fill="none" stroke="#E5B7B7" stroke-width="1.5" stroke-linecap="round" stroke-linejoin="round" stroke-miterlimit="10" width="5.667" height="2.167"/>
		
			<rect x="22.598" y="52" fill="none" stroke="#E5B7B7" stroke-width="1.5" stroke-linecap="round" stroke-linejoin="round" stroke-miterlimit="10" width="5.667" height="2.167"/>
		<path fill="none" stroke="#9ACDCD" stroke-width="0.3" stroke-linecap="square" stroke-miterlimit="10" d="M40.833,62.083
			c-2.583,0-9,0.583-9,1"/>
		<path fill="none" stroke="#9ACDCD" stroke-width="0.3" stroke-linecap="square" stroke-miterlimit="10" d="M34,37.25
			c-0.688,0-1.5-0.083-1.5-0.5"/>
		<path fill="none" stroke="#9ACDCD" stroke-width="0.3" stroke-linecap="square" stroke-miterlimit="10" d="M36,37.25
			c-0.688,0-1.5-0.083-1.5-0.5"/>
		<path fill="none" stroke="#9ACDCD" stroke-width="0.3" stroke-linecap="square" stroke-miterlimit="10" d="M38,37.25
			c-0.688,0-1.5-0.083-1.5-0.5"/>
		<path fill="none" stroke="#9ACDCD" stroke-width="0.3" stroke-linecap="square" stroke-miterlimit="10" d="M40,37.25
			c-0.688,0-1.5-0.083-1.5-0.5"/>
		<path fill="none" stroke="#9ACDCD" stroke-width="0.3" stroke-linecap="square" stroke-miterlimit="10" d="M32,41.5
			c-2.583,0-4.344,20.323-0.167,19.583"/>
		<path fill="none" stroke="#9ACDCD" stroke-width="0.3" stroke-linecap="square" stroke-miterlimit="10" d="M8.667,64.334
			C4.25,64.666,7,50,7.375,43.042"/>
		<path fill="none" stroke="#9ACDCD" stroke-width="0.3" stroke-linecap="square" stroke-miterlimit="10" d="M32,37.25
			C19.833,38.667,21,61.5,8.667,64.334"/>
		<path fill="none" stroke="#9ACDCD" stroke-width="0.3" stroke-linecap="square" stroke-miterlimit="10" d="M26.625,13.75
			c2.5,5-1.625,10.875,1.64,18.917"/>
		<path fill="none" stroke="#9ACDCD" stroke-width="0.3" stroke-linecap="square" stroke-miterlimit="10" d="M28.265,32.667
			C17,39.75,20.75,62.083,30.833,62.083"/>
		<path fill="none" stroke="#9ACDCD" stroke-width="0.3" stroke-linecap="square" stroke-miterlimit="10" d="M7.875,42.542
			c0-12.249,1.167-48,17.75-29.792"/>
		<path fill="none" stroke="#9ACDCD" stroke-width="0.3" stroke-linecap="square" stroke-miterlimit="10" d="M105.167,64.334
			C97.5,85.5-13.5,102.5,7.667,71.168"/>
		<path fill="none" stroke="#9ACDCD" stroke-width="0.3" stroke-linecap="square" stroke-miterlimit="10" d="M32.5,37.75
			c1.188,0,0.979,3.75-0.5,3.75"/>
		<path fill="none" stroke="#9ACDCD" stroke-width="0.3" stroke-linecap="square" stroke-miterlimit="10" d="M40.5,37.75
			c1.188,0,0.979,3.75-0.5,3.75"/>
		<path fill="none" stroke="#9ACDCD" stroke-width="0.3" stroke-linecap="square" stroke-miterlimit="10" d="M38.5,37.75
			c1.188,0,0.979,3.75-0.5,3.75"/>
		<path fill="none" stroke="#9ACDCD" stroke-width="0.3" stroke-linecap="square" stroke-miterlimit="10" d="M36.5,37.75
			c1.188,0,0.979,3.75-0.5,3.75"/>
		<path fill="none" stroke="#9ACDCD" stroke-width="0.3" stroke-linecap="square" stroke-miterlimit="10" d="M34.5,37.75
			c1.188,0,0.979,3.75-0.5,3.75"/>
		<path fill="none" stroke="#9ACDCD" stroke-width="0.3" stroke-linecap="square" stroke-miterlimit="10" d="M34,41.5
			c-2.583,0,3.656,20.323,7.833,19.583"/>
		<path fill="none" stroke="#9ACDCD" stroke-width="0.3" stroke-linecap="square" stroke-miterlimit="10" d="M36,41.5
			c-2.583,0,11.656,20.323,15.833,19.583"/>
		<path fill="none" stroke="#9ACDCD" stroke-width="0.3" stroke-linecap="square" stroke-miterlimit="10" d="M38,41.5
			c-2.583,0,19.656,20.323,23.833,19.583"/>
		<path fill="none" stroke="#9ACDCD" stroke-width="0.3" stroke-linecap="square" stroke-miterlimit="10" d="M40,41.5
			c-2.583,0,27.656,20.323,31.833,19.583"/>
		<polyline fill="none" stroke="#9ACDCD" stroke-width="0.5" stroke-linecap="square" stroke-miterlimit="10" points="
			31.833,61.083 30.833,62.083 31.833,63.083 		"/>
		<polyline fill="none" stroke="#9ACDCD" stroke-width="0.5" stroke-linecap="square" stroke-miterlimit="10" points="8.667,70.168 
			7.667,71.168 8.667,72.168 		"/>
		
			<rect x="40.833" y="63.083" fill="none" stroke="#E5B7B7" stroke-width="0.3" stroke-miterlimit="10" stroke-dasharray="1,0.5" width="1" height="6"/>
		<polyline fill="none" stroke="#9ACDCD" stroke-width="0.5" stroke-linecap="square" stroke-miterlimit="10" points="
			51.833,61.083 50.833,62.083 51.833,63.083 		"/>
		<path fill="none" stroke="#9ACDCD" stroke-width="0.3" stroke-linecap="square" stroke-miterlimit="10" d="M50.833,62.083
			c-2.583,0-9,0.583-9,1"/>
		
			<rect x="50.833" y="63.083" fill="none" stroke="#E5B7B7" stroke-width="0.3" stroke-miterlimit="10" stroke-dasharray="1,0.5" width="1" height="6"/>
		<polyline fill="none" stroke="#9ACDCD" stroke-width="0.5" stroke-linecap="square" stroke-miterlimit="10" points="
			61.833,61.083 60.833,62.083 61.833,63.083 		"/>
		<path fill="none" stroke="#9ACDCD" stroke-width="0.3" stroke-linecap="square" stroke-miterlimit="10" d="M60.833,62.083
			c-2.583,0-9,0.583-9,1"/>
		
			<rect x="60.833" y="63.083" fill="none" stroke="#E5B7B7" stroke-width="0.3" stroke-miterlimit="10" stroke-dasharray="1,0.5" width="1" height="6"/>
		<polyline fill="none" stroke="#9ACDCD" stroke-width="0.5" stroke-linecap="square" stroke-miterlimit="10" points="
			71.833,61.083 70.833,62.083 71.833,63.083 		"/>
		<polyline fill="none" stroke="#9ACDCD" stroke-width="0.5" stroke-linecap="square" stroke-miterlimit="10" points="25.625,12.75 
			26.625,13.75 27.625,12.75 		"/>
		
			<polyline fill="none" stroke="#E5B7B7" stroke-width="0.5" stroke-linecap="round" stroke-linejoin="round" stroke-miterlimit="10" points="
			7.667,63.334 8.667,64.334 9.667,63.334 		"/>
		<polyline fill="none" stroke="#9ACDCD" stroke-width="0.5" stroke-linecap="square" stroke-miterlimit="10" points="32.5,37.75 
			32,37.25 32.5,36.75 		"/>
		<polyline fill="none" stroke="#9ACDCD" stroke-width="0.5" stroke-linecap="square" stroke-miterlimit="10" points="
			82.875,73.125 83.375,73.625 82.875,74.125 		"/>
		<polyline fill="none" stroke="#9ACDCD" stroke-width="0.5" stroke-linecap="square" stroke-miterlimit="10" points="40.5,37.75 
			40,37.25 40.5,36.75 		"/>
		<polyline fill="none" stroke="#9ACDCD" stroke-width="0.5" stroke-linecap="square" stroke-miterlimit="10" points="7.375,43.042 
			7.875,42.542 8.375,43.042 		"/>
		<polyline fill="none" stroke="#9ACDCD" stroke-width="0.5" stroke-linecap="square" stroke-miterlimit="10" points="38.5,37.75 
			38,37.25 38.5,36.75 		"/>
		<polyline fill="none" stroke="#9ACDCD" stroke-width="0.5" stroke-linecap="square" stroke-miterlimit="10" points="36.5,37.75 
			36,37.25 36.5,36.75 		"/>
		<polyline fill="none" stroke="#9ACDCD" stroke-width="0.5" stroke-linecap="square" stroke-miterlimit="10" points="34.5,37.75 
			34,37.25 34.5,36.75 		"/>
		<path fill="none" stroke="#9ACDCD" stroke-width="0.3" stroke-linecap="square" stroke-miterlimit="10" d="M70.833,62.083
			c-2.583,0-9,0.583-9,1"/>
		
			<rect x="70.833" y="63.083" fill="none" stroke="#E5B7B7" stroke-width="0.3" stroke-miterlimit="10" stroke-dasharray="1,0.5" width="1" height="6"/>
		<path fill="none" stroke="#9ACDCD" stroke-width="0.3" stroke-linecap="square" stroke-miterlimit="10" d="M8.667,70.168
			C19.625,74,76.938,74,82.875,74.125"/>
		<path fill="none" stroke="#9ACDCD" stroke-width="0.3" stroke-linecap="square" stroke-miterlimit="10" d="M71.833,63.083
			c5.979,0.604,5.479,8.354,11.042,10.042"/>
		<path fill="none" stroke="#9ACDCD" stroke-width="0.3" stroke-linecap="square" stroke-miterlimit="10" d="M83.375,73.625
			c5.979,0.604,12.333-12.583,21.792-9.291"/>
		<path fill="none" stroke="#9ACDCD" stroke-width="0.3" stroke-linecap="square" stroke-miterlimit="10" d="M8.667,72.168
			C12.999,71.951,8,50,8.375,43.042"/>
	</g>
</g>
</svg>
