<?xml version="1.0" encoding="utf-8"?>
<!-- Generator: Adobe Illustrator 15.0.0, SVG Export Plug-In . SVG Version: 6.00 Build 0)  -->
<!DOCTYPE svg PUBLIC "-//W3C//DTD SVG 1.1//EN" "http://www.w3.org/Graphics/SVG/1.1/DTD/svg11.dtd">
<svg version="1.1" id="Ebene_1" xmlns="http://www.w3.org/2000/svg" xmlns:xlink="http://www.w3.org/1999/xlink" x="0px" y="0px"
	 width="136.5px" height="92.5px" viewBox="0 0 136.5 92.5" enable-background="new 0 0 136.5 92.5" xml:space="preserve">
<g id="D">
</g>
<path fill="none" stroke="#E3C291" stroke-width="1.4298" stroke-linecap="square" stroke-miterlimit="10" d="M16.627,38.783
	c15.977,0,8.409,7.343,18.875,8.072"/>
<path fill="none" stroke="#E3C291" stroke-width="1.4298" stroke-linecap="square" stroke-miterlimit="10" d="M107.061,20.55
	c0,16.425-64.516,12.438-64.516,12.438"/>
<path fill="none" stroke="#E3C291" stroke-width="1.4298" stroke-linecap="square" stroke-miterlimit="10" d="M107.061,42.05
	c0-11.027-64.516-9.062-64.516-9.062"/>
<path fill="none" stroke="#E3C291" stroke-width="1.4298" stroke-linecap="square" stroke-miterlimit="10" d="M107.061,69.077
	c0-11.026-64.516-8.351-64.516-8.351"/>
<path fill="none" stroke="#E3C291" stroke-width="1.4298" stroke-linecap="square" stroke-miterlimit="10" d="M107.061,58.289
	C74.75,56.917,60.25,49.25,42.545,60.727"/>
<circle fill="#E3C291" stroke="#E3C291" stroke-width="0.9475" stroke-linecap="square" stroke-miterlimit="10" cx="16.627" cy="38.783" r="2.543"/>
<circle fill="#E3C291" cx="107.061" cy="20.55" r="2.543"/>
<circle fill="#E3C291" cx="107.061" cy="58.289" r="2.543"/>
<circle fill="none" stroke="#E3C291" stroke-width="0.9475" stroke-linecap="square" stroke-miterlimit="10" cx="107.061" cy="58.289" r="4.043"/>
<circle fill="none" stroke="#E3C291" stroke-width="0.9475" stroke-linecap="square" stroke-miterlimit="10" cx="107.061" cy="20.55" r="4.043"/>
<polyline fill="none" stroke="#572509" stroke-width="4.2895" stroke-miterlimit="10" points="42.545,32.988 35.502,46.855 
	42.545,60.727 "/>
<rect x="35.667" y="60.727" fill="none" stroke="#E3C291" stroke-width="1.4298" stroke-miterlimit="10" stroke-dasharray="2,1" width="6.878" height="17.403"/>
</svg>
